ISO-10303-21;
HEADER;
/* Generated by software containing ST-Developer
 * from STEP Tools, Inc. (www.steptools.com) 
 */
/* OPTION: using custom renumber hook */

FILE_DESCRIPTION(
/* description */ ('STEP AP242 Edition 2',
'CAx-IF Rec.Pracs.---Representation and Presentation of Product Manufa
cturing Information (PMI)---4.0---2014-10-13',
'CAx-IF Rec.Pracs.---3D Tessellated Geometry---0.4---2014-09-14','2;1',
'CAx-IF Rec.Pracs.---User Defined Attributes---1.5---2016-08-15'),
/* implementation_level */ '2;1');

FILE_NAME(
/* name */ 'Connector_Cover_2',
/* time_stamp */ '2026-08-02T04:22:24Z',
/* author */ (''),
/* organization */ (''),
/* preprocessor_version */ 'ST-DEVELOPER v20',
/* originating_system */ 'ONSHAPE BY PTC INC, 1.218',
/* authorisation */ '  ');

FILE_SCHEMA (('AP242_MANAGED_MODEL_BASED_3D_ENGINEERING_MIM_LF { 1 0 10303 442 3 1 4 }'));
ENDSEC;

DATA;
#10=CONICAL_SURFACE('',#969,0.0011,0.785398163397448);
#11=CONICAL_SURFACE('',#971,0.0011,0.785398163397448);
#12=CONICAL_SURFACE('',#978,0.008,0.785398163397446);
#13=CONICAL_SURFACE('',#981,0.008,0.785398163397446);
#14=CONICAL_SURFACE('',#1003,0.007,0.785398163397449);
#15=CONICAL_SURFACE('',#1011,0.007,0.785398163397444);
#16=(
BOUNDED_SURFACE()
B_SPLINE_SURFACE(3,2,((#1382,#1383,#1384),(#1385,#1386,#1387),(#1388,#1389,
#1390),(#1391,#1392,#1393)),.UNSPECIFIED.,.F.,.F.,.F.)
B_SPLINE_SURFACE_WITH_KNOTS((4,4),(3,3),(-1.30104260698261E-17,0.00247649917024981),
(0.,1.),.PIECEWISE_BEZIER_KNOTS.)
GEOMETRIC_REPRESENTATION_ITEM()
RATIONAL_B_SPLINE_SURFACE(((1.,0.83400711801965,1.),(1.,0.838232867183746,
1.),(1.,0.832050294389118,1.),(1.,0.832050294337844,1.)))
REPRESENTATION_ITEM('')
SURFACE()
);
#17=(
BOUNDED_SURFACE()
B_SPLINE_SURFACE(3,2,((#1400,#1401,#1402),(#1403,#1404,#1405),(#1406,#1407,
#1408),(#1409,#1410,#1411),(#1412,#1413,#1414),(#1415,#1416,#1417),(#1418,
#1419,#1420)),.UNSPECIFIED.,.F.,.F.,.F.)
B_SPLINE_SURFACE_WITH_KNOTS((4,1,1,1,4),(3,3),(2.10666885476865,2.62413075417922,
3.14159265358979,3.65905455300037,4.17651645241094),(0.,1.),
 .UNSPECIFIED.)
GEOMETRIC_REPRESENTATION_ITEM()
RATIONAL_B_SPLINE_SURFACE(((1.,0.83400711801965,1.),(1.,0.868062882081797,
1.),(1.,0.921363055093204,1.),(1.,0.948857403632308,1.),(1.,0.921363055093014,
1.),(1.,0.868062882082242,1.),(1.,0.834007118019649,1.)))
REPRESENTATION_ITEM('')
SURFACE()
);
#18=(
BOUNDED_SURFACE()
B_SPLINE_SURFACE(3,2,((#1424,#1425,#1426),(#1427,#1428,#1429),(#1430,#1431,
#1432),(#1433,#1434,#1435)),.UNSPECIFIED.,.F.,.F.,.F.)
B_SPLINE_SURFACE_WITH_KNOTS((4,4),(3,3),(-1.95156391047391E-18,0.00247698156902506),
(0.,1.),.PIECEWISE_BEZIER_KNOTS.)
GEOMETRIC_REPRESENTATION_ITEM()
RATIONAL_B_SPLINE_SURFACE(((1.,0.832050294337844,1.),(1.,0.832050294504873,
1.),(1.,0.838233302774225,1.),(1.,0.83400711801965,1.)))
REPRESENTATION_ITEM('')
SURFACE()
);
#19=B_SPLINE_CURVE_WITH_KNOTS('',3,(#1348,#1349,#1350,#1351),
 .UNSPECIFIED.,.F.,.F.,(4,4),(0.,0.00149005516371659),.UNSPECIFIED.);
#20=B_SPLINE_CURVE_WITH_KNOTS('',3,(#1355,#1356,#1357,#1358),
 .UNSPECIFIED.,.F.,.F.,(4,4),(0.,0.00149161740252823),.UNSPECIFIED.);
#21=B_SPLINE_CURVE_WITH_KNOTS('',3,(#1394,#1395,#1396,#1397),
 .UNSPECIFIED.,.F.,.F.,(4,4),(0.,0.00258377655056935),.UNSPECIFIED.);
#22=B_SPLINE_CURVE_WITH_KNOTS('',3,(#1436,#1437,#1438,#1439),
 .UNSPECIFIED.,.F.,.F.,(4,4),(0.,0.00258629190396436),.UNSPECIFIED.);
#23=ELLIPSE('',#951,0.0101122048745927,0.0065);
#24=ELLIPSE('',#955,0.00855648104773227,0.0055);
#25=ELLIPSE('',#957,0.00777817459305203,0.0055);
#26=ELLIPSE('',#958,0.00777817459305203,0.0055);
#27=ELLIPSE('',#963,0.0111358289958914,0.008);
#28=ELLIPSE('',#975,0.00777817459305202,0.0055);
#29=ELLIPSE('',#977,0.00777817459305202,0.0055);
#30=SHAPE_REPRESENTATION_RELATIONSHIP('','',#924,#33);
#31=SHAPE_REPRESENTATION_RELATIONSHIP('','',#925,#34);
#32=SHAPE_REPRESENTATION_RELATIONSHIP('','',#926,#35);
#33=ADVANCED_BREP_SHAPE_REPRESENTATION('',(#918),#1607);
#34=ADVANCED_BREP_SHAPE_REPRESENTATION('',(#919),#1608);
#35=ADVANCED_BREP_SHAPE_REPRESENTATION('',(#920),#1609);
#36=PLANE('',#931);
#37=PLANE('',#935);
#38=PLANE('',#936);
#39=PLANE('',#937);
#40=PLANE('',#942);
#41=PLANE('',#946);
#42=PLANE('',#947);
#43=PLANE('',#948);
#44=PLANE('',#950);
#45=PLANE('',#953);
#46=PLANE('',#954);
#47=PLANE('',#956);
#48=PLANE('',#968);
#49=PLANE('',#973);
#50=PLANE('',#974);
#51=PLANE('',#976);
#52=PLANE('',#984);
#53=PLANE('',#985);
#54=PLANE('',#986);
#55=PLANE('',#987);
#56=PLANE('',#992);
#57=PLANE('',#996);
#58=PLANE('',#998);
#59=PLANE('',#1006);
#60=PLANE('',#1014);
#61=PLANE('',#1018);
#62=PLANE('',#1019);
#63=CIRCLE('',#929,0.0075);
#64=CIRCLE('',#930,0.0075);
#65=CIRCLE('',#932,0.008);
#66=CIRCLE('',#934,0.008);
#67=CIRCLE('',#940,0.008);
#68=CIRCLE('',#941,0.008);
#69=CIRCLE('',#943,0.0075);
#70=CIRCLE('',#945,0.0075);
#71=CIRCLE('',#960,0.0015);
#72=CIRCLE('',#961,0.0015);
#73=CIRCLE('',#962,0.0015);
#74=CIRCLE('',#964,0.0015);
#75=CIRCLE('',#965,0.0015);
#76=CIRCLE('',#967,0.0015);
#77=CIRCLE('',#970,0.0011);
#78=CIRCLE('',#972,0.0011);
#79=CIRCLE('',#979,0.008);
#80=CIRCLE('',#980,0.0076);
#81=CIRCLE('',#982,0.0076);
#82=CIRCLE('',#983,0.008);
#83=CIRCLE('',#988,0.008);
#84=CIRCLE('',#989,0.0075);
#85=CIRCLE('',#991,0.0075);
#86=CIRCLE('',#993,0.008);
#87=CIRCLE('',#995,0.008);
#88=CIRCLE('',#997,0.0075);
#89=CIRCLE('',#999,0.008);
#90=CIRCLE('',#1000,0.0075);
#91=CIRCLE('',#1004,0.007);
#92=CIRCLE('',#1005,0.008);
#93=CIRCLE('',#1007,0.0055);
#94=CIRCLE('',#1008,0.005);
#95=CIRCLE('',#1010,0.005);
#96=CIRCLE('',#1012,0.007);
#97=CIRCLE('',#1013,0.0066);
#98=ORIENTED_EDGE('',*,*,#352,.F.);
#99=ORIENTED_EDGE('',*,*,#353,.F.);
#100=ORIENTED_EDGE('',*,*,#354,.F.);
#101=ORIENTED_EDGE('',*,*,#355,.T.);
#102=ORIENTED_EDGE('',*,*,#356,.F.);
#103=ORIENTED_EDGE('',*,*,#357,.T.);
#104=ORIENTED_EDGE('',*,*,#358,.F.);
#105=ORIENTED_EDGE('',*,*,#355,.F.);
#106=ORIENTED_EDGE('',*,*,#359,.T.);
#107=ORIENTED_EDGE('',*,*,#360,.T.);
#108=ORIENTED_EDGE('',*,*,#357,.F.);
#109=ORIENTED_EDGE('',*,*,#361,.T.);
#110=ORIENTED_EDGE('',*,*,#359,.F.);
#111=ORIENTED_EDGE('',*,*,#362,.T.);
#112=ORIENTED_EDGE('',*,*,#353,.T.);
#113=ORIENTED_EDGE('',*,*,#363,.T.);
#114=ORIENTED_EDGE('',*,*,#352,.T.);
#115=ORIENTED_EDGE('',*,*,#358,.T.);
#116=ORIENTED_EDGE('',*,*,#360,.F.);
#117=ORIENTED_EDGE('',*,*,#363,.F.);
#118=ORIENTED_EDGE('',*,*,#354,.T.);
#119=ORIENTED_EDGE('',*,*,#362,.F.);
#120=ORIENTED_EDGE('',*,*,#361,.F.);
#121=ORIENTED_EDGE('',*,*,#356,.T.);
#122=ORIENTED_EDGE('',*,*,#364,.T.);
#123=ORIENTED_EDGE('',*,*,#365,.T.);
#124=ORIENTED_EDGE('',*,*,#366,.F.);
#125=ORIENTED_EDGE('',*,*,#367,.T.);
#126=ORIENTED_EDGE('',*,*,#368,.F.);
#127=ORIENTED_EDGE('',*,*,#366,.T.);
#128=ORIENTED_EDGE('',*,*,#369,.F.);
#129=ORIENTED_EDGE('',*,*,#370,.F.);
#130=ORIENTED_EDGE('',*,*,#371,.F.);
#131=ORIENTED_EDGE('',*,*,#372,.F.);
#132=ORIENTED_EDGE('',*,*,#373,.F.);
#133=ORIENTED_EDGE('',*,*,#370,.T.);
#134=ORIENTED_EDGE('',*,*,#364,.F.);
#135=ORIENTED_EDGE('',*,*,#374,.T.);
#136=ORIENTED_EDGE('',*,*,#372,.T.);
#137=ORIENTED_EDGE('',*,*,#375,.T.);
#138=ORIENTED_EDGE('',*,*,#367,.F.);
#139=ORIENTED_EDGE('',*,*,#368,.T.);
#140=ORIENTED_EDGE('',*,*,#373,.T.);
#141=ORIENTED_EDGE('',*,*,#374,.F.);
#142=ORIENTED_EDGE('',*,*,#371,.T.);
#143=ORIENTED_EDGE('',*,*,#369,.T.);
#144=ORIENTED_EDGE('',*,*,#365,.F.);
#145=ORIENTED_EDGE('',*,*,#375,.F.);
#146=ORIENTED_EDGE('',*,*,#376,.T.);
#147=ORIENTED_EDGE('',*,*,#377,.T.);
#148=ORIENTED_EDGE('',*,*,#376,.F.);
#149=ORIENTED_EDGE('',*,*,#378,.T.);
#150=ORIENTED_EDGE('',*,*,#379,.F.);
#151=ORIENTED_EDGE('',*,*,#380,.T.);
#152=ORIENTED_EDGE('',*,*,#381,.T.);
#153=ORIENTED_EDGE('',*,*,#382,.T.);
#154=ORIENTED_EDGE('',*,*,#383,.T.);
#155=ORIENTED_EDGE('',*,*,#379,.T.);
#156=ORIENTED_EDGE('',*,*,#384,.F.);
#157=ORIENTED_EDGE('',*,*,#385,.T.);
#158=ORIENTED_EDGE('',*,*,#386,.F.);
#159=ORIENTED_EDGE('',*,*,#385,.F.);
#160=ORIENTED_EDGE('',*,*,#387,.F.);
#161=ORIENTED_EDGE('',*,*,#388,.F.);
#162=ORIENTED_EDGE('',*,*,#383,.F.);
#163=ORIENTED_EDGE('',*,*,#389,.T.);
#164=ORIENTED_EDGE('',*,*,#390,.F.);
#165=ORIENTED_EDGE('',*,*,#391,.F.);
#166=ORIENTED_EDGE('',*,*,#391,.T.);
#167=ORIENTED_EDGE('',*,*,#392,.F.);
#168=ORIENTED_EDGE('',*,*,#393,.F.);
#169=ORIENTED_EDGE('',*,*,#380,.F.);
#170=ORIENTED_EDGE('',*,*,#393,.T.);
#171=ORIENTED_EDGE('',*,*,#394,.F.);
#172=ORIENTED_EDGE('',*,*,#395,.F.);
#173=ORIENTED_EDGE('',*,*,#377,.F.);
#174=ORIENTED_EDGE('',*,*,#395,.T.);
#175=ORIENTED_EDGE('',*,*,#396,.F.);
#176=ORIENTED_EDGE('',*,*,#397,.F.);
#177=ORIENTED_EDGE('',*,*,#378,.F.);
#178=ORIENTED_EDGE('',*,*,#398,.F.);
#179=ORIENTED_EDGE('',*,*,#399,.T.);
#180=ORIENTED_EDGE('',*,*,#381,.F.);
#181=ORIENTED_EDGE('',*,*,#397,.T.);
#182=ORIENTED_EDGE('',*,*,#400,.T.);
#183=ORIENTED_EDGE('',*,*,#401,.F.);
#184=ORIENTED_EDGE('',*,*,#402,.F.);
#185=ORIENTED_EDGE('',*,*,#382,.F.);
#186=ORIENTED_EDGE('',*,*,#403,.T.);
#187=ORIENTED_EDGE('',*,*,#404,.F.);
#188=ORIENTED_EDGE('',*,*,#400,.F.);
#189=ORIENTED_EDGE('',*,*,#399,.F.);
#190=ORIENTED_EDGE('',*,*,#402,.T.);
#191=ORIENTED_EDGE('',*,*,#405,.F.);
#192=ORIENTED_EDGE('',*,*,#406,.F.);
#193=ORIENTED_EDGE('',*,*,#389,.F.);
#194=ORIENTED_EDGE('',*,*,#388,.T.);
#195=ORIENTED_EDGE('',*,*,#407,.T.);
#196=ORIENTED_EDGE('',*,*,#408,.T.);
#197=ORIENTED_EDGE('',*,*,#409,.T.);
#198=ORIENTED_EDGE('',*,*,#410,.F.);
#199=ORIENTED_EDGE('',*,*,#411,.F.);
#200=ORIENTED_EDGE('',*,*,#412,.T.);
#201=ORIENTED_EDGE('',*,*,#413,.T.);
#202=ORIENTED_EDGE('',*,*,#414,.T.);
#203=ORIENTED_EDGE('',*,*,#415,.T.);
#204=ORIENTED_EDGE('',*,*,#416,.T.);
#205=ORIENTED_EDGE('',*,*,#408,.F.);
#206=ORIENTED_EDGE('',*,*,#417,.F.);
#207=ORIENTED_EDGE('',*,*,#418,.T.);
#208=ORIENTED_EDGE('',*,*,#419,.T.);
#209=ORIENTED_EDGE('',*,*,#412,.F.);
#210=ORIENTED_EDGE('',*,*,#420,.F.);
#211=ORIENTED_EDGE('',*,*,#421,.F.);
#212=ORIENTED_EDGE('',*,*,#406,.T.);
#213=ORIENTED_EDGE('',*,*,#422,.F.);
#214=ORIENTED_EDGE('',*,*,#423,.F.);
#215=ORIENTED_EDGE('',*,*,#424,.F.);
#216=ORIENTED_EDGE('',*,*,#403,.F.);
#217=ORIENTED_EDGE('',*,*,#425,.F.);
#218=ORIENTED_EDGE('',*,*,#424,.T.);
#219=ORIENTED_EDGE('',*,*,#426,.T.);
#220=ORIENTED_EDGE('',*,*,#427,.T.);
#221=ORIENTED_EDGE('',*,*,#410,.T.);
#222=ORIENTED_EDGE('',*,*,#428,.F.);
#223=ORIENTED_EDGE('',*,*,#429,.T.);
#224=ORIENTED_EDGE('',*,*,#422,.T.);
#225=ORIENTED_EDGE('',*,*,#405,.T.);
#226=ORIENTED_EDGE('',*,*,#401,.T.);
#227=ORIENTED_EDGE('',*,*,#404,.T.);
#228=ORIENTED_EDGE('',*,*,#427,.F.);
#229=ORIENTED_EDGE('',*,*,#430,.T.);
#230=ORIENTED_EDGE('',*,*,#417,.T.);
#231=ORIENTED_EDGE('',*,*,#411,.T.);
#232=ORIENTED_EDGE('',*,*,#431,.F.);
#233=ORIENTED_EDGE('',*,*,#428,.T.);
#234=ORIENTED_EDGE('',*,*,#409,.F.);
#235=ORIENTED_EDGE('',*,*,#416,.F.);
#236=ORIENTED_EDGE('',*,*,#432,.F.);
#237=ORIENTED_EDGE('',*,*,#433,.T.);
#238=ORIENTED_EDGE('',*,*,#434,.T.);
#239=ORIENTED_EDGE('',*,*,#435,.T.);
#240=ORIENTED_EDGE('',*,*,#436,.T.);
#241=ORIENTED_EDGE('',*,*,#437,.T.);
#242=ORIENTED_EDGE('',*,*,#434,.F.);
#243=ORIENTED_EDGE('',*,*,#438,.T.);
#244=ORIENTED_EDGE('',*,*,#439,.F.);
#245=ORIENTED_EDGE('',*,*,#440,.T.);
#246=ORIENTED_EDGE('',*,*,#441,.F.);
#247=ORIENTED_EDGE('',*,*,#436,.F.);
#248=ORIENTED_EDGE('',*,*,#442,.T.);
#249=ORIENTED_EDGE('',*,*,#443,.T.);
#250=ORIENTED_EDGE('',*,*,#440,.F.);
#251=ORIENTED_EDGE('',*,*,#444,.T.);
#252=ORIENTED_EDGE('',*,*,#442,.F.);
#253=ORIENTED_EDGE('',*,*,#445,.T.);
#254=ORIENTED_EDGE('',*,*,#446,.T.);
#255=ORIENTED_EDGE('',*,*,#447,.T.);
#256=ORIENTED_EDGE('',*,*,#448,.F.);
#257=ORIENTED_EDGE('',*,*,#449,.T.);
#258=ORIENTED_EDGE('',*,*,#450,.F.);
#259=ORIENTED_EDGE('',*,*,#451,.F.);
#260=ORIENTED_EDGE('',*,*,#451,.T.);
#261=ORIENTED_EDGE('',*,*,#452,.T.);
#262=ORIENTED_EDGE('',*,*,#446,.F.);
#263=ORIENTED_EDGE('',*,*,#453,.T.);
#264=ORIENTED_EDGE('',*,*,#432,.T.);
#265=ORIENTED_EDGE('',*,*,#454,.T.);
#266=ORIENTED_EDGE('',*,*,#425,.T.);
#267=ORIENTED_EDGE('',*,*,#398,.T.);
#268=ORIENTED_EDGE('',*,*,#396,.T.);
#269=ORIENTED_EDGE('',*,*,#394,.T.);
#270=ORIENTED_EDGE('',*,*,#392,.T.);
#271=ORIENTED_EDGE('',*,*,#390,.T.);
#272=ORIENTED_EDGE('',*,*,#421,.T.);
#273=ORIENTED_EDGE('',*,*,#455,.T.);
#274=ORIENTED_EDGE('',*,*,#456,.T.);
#275=ORIENTED_EDGE('',*,*,#457,.T.);
#276=ORIENTED_EDGE('',*,*,#458,.F.);
#277=ORIENTED_EDGE('',*,*,#459,.T.);
#278=ORIENTED_EDGE('',*,*,#460,.T.);
#279=ORIENTED_EDGE('',*,*,#461,.T.);
#280=ORIENTED_EDGE('',*,*,#462,.F.);
#281=ORIENTED_EDGE('',*,*,#463,.T.);
#282=ORIENTED_EDGE('',*,*,#464,.F.);
#283=ORIENTED_EDGE('',*,*,#465,.F.);
#284=ORIENTED_EDGE('',*,*,#466,.F.);
#285=ORIENTED_EDGE('',*,*,#462,.T.);
#286=ORIENTED_EDGE('',*,*,#467,.F.);
#287=ORIENTED_EDGE('',*,*,#468,.F.);
#288=ORIENTED_EDGE('',*,*,#469,.F.);
#289=ORIENTED_EDGE('',*,*,#470,.F.);
#290=ORIENTED_EDGE('',*,*,#471,.F.);
#291=ORIENTED_EDGE('',*,*,#470,.T.);
#292=ORIENTED_EDGE('',*,*,#472,.F.);
#293=ORIENTED_EDGE('',*,*,#465,.T.);
#294=ORIENTED_EDGE('',*,*,#468,.T.);
#295=ORIENTED_EDGE('',*,*,#473,.T.);
#296=ORIENTED_EDGE('',*,*,#456,.F.);
#297=ORIENTED_EDGE('',*,*,#474,.T.);
#298=ORIENTED_EDGE('',*,*,#475,.F.);
#299=ORIENTED_EDGE('',*,*,#460,.F.);
#300=ORIENTED_EDGE('',*,*,#476,.F.);
#301=ORIENTED_EDGE('',*,*,#414,.F.);
#302=ORIENTED_EDGE('',*,*,#407,.F.);
#303=ORIENTED_EDGE('',*,*,#387,.T.);
#304=ORIENTED_EDGE('',*,*,#384,.T.);
#305=ORIENTED_EDGE('',*,*,#386,.T.);
#306=ORIENTED_EDGE('',*,*,#413,.F.);
#307=ORIENTED_EDGE('',*,*,#419,.F.);
#308=ORIENTED_EDGE('',*,*,#458,.T.);
#309=ORIENTED_EDGE('',*,*,#477,.T.);
#310=ORIENTED_EDGE('',*,*,#449,.F.);
#311=ORIENTED_EDGE('',*,*,#478,.T.);
#312=ORIENTED_EDGE('',*,*,#471,.T.);
#313=ORIENTED_EDGE('',*,*,#464,.T.);
#314=ORIENTED_EDGE('',*,*,#461,.F.);
#315=ORIENTED_EDGE('',*,*,#475,.T.);
#316=ORIENTED_EDGE('',*,*,#418,.F.);
#317=ORIENTED_EDGE('',*,*,#430,.F.);
#318=ORIENTED_EDGE('',*,*,#426,.F.);
#319=ORIENTED_EDGE('',*,*,#423,.T.);
#320=ORIENTED_EDGE('',*,*,#454,.F.);
#321=ORIENTED_EDGE('',*,*,#435,.F.);
#322=ORIENTED_EDGE('',*,*,#437,.F.);
#323=ORIENTED_EDGE('',*,*,#441,.T.);
#324=ORIENTED_EDGE('',*,*,#443,.F.);
#325=ORIENTED_EDGE('',*,*,#447,.F.);
#326=ORIENTED_EDGE('',*,*,#452,.F.);
#327=ORIENTED_EDGE('',*,*,#450,.T.);
#328=ORIENTED_EDGE('',*,*,#477,.F.);
#329=ORIENTED_EDGE('',*,*,#457,.F.);
#330=ORIENTED_EDGE('',*,*,#473,.F.);
#331=ORIENTED_EDGE('',*,*,#467,.T.);
#332=ORIENTED_EDGE('',*,*,#472,.T.);
#333=ORIENTED_EDGE('',*,*,#469,.T.);
#334=ORIENTED_EDGE('',*,*,#474,.F.);
#335=ORIENTED_EDGE('',*,*,#459,.F.);
#336=ORIENTED_EDGE('',*,*,#478,.F.);
#337=ORIENTED_EDGE('',*,*,#448,.T.);
#338=ORIENTED_EDGE('',*,*,#453,.F.);
#339=ORIENTED_EDGE('',*,*,#445,.F.);
#340=ORIENTED_EDGE('',*,*,#444,.F.);
#341=ORIENTED_EDGE('',*,*,#439,.T.);
#342=ORIENTED_EDGE('',*,*,#438,.F.);
#343=ORIENTED_EDGE('',*,*,#433,.F.);
#344=ORIENTED_EDGE('',*,*,#455,.F.);
#345=ORIENTED_EDGE('',*,*,#420,.T.);
#346=ORIENTED_EDGE('',*,*,#429,.F.);
#347=ORIENTED_EDGE('',*,*,#431,.T.);
#348=ORIENTED_EDGE('',*,*,#415,.F.);
#349=ORIENTED_EDGE('',*,*,#476,.T.);
#350=ORIENTED_EDGE('',*,*,#463,.F.);
#351=ORIENTED_EDGE('',*,*,#466,.T.);
#352=EDGE_CURVE('',#479,#480,#561,.T.);
#353=EDGE_CURVE('',#481,#479,#63,.T.);
#354=EDGE_CURVE('',#482,#481,#562,.F.);
#355=EDGE_CURVE('',#482,#480,#64,.T.);
#356=EDGE_CURVE('',#483,#482,#563,.T.);
#357=EDGE_CURVE('',#483,#484,#65,.T.);
#358=EDGE_CURVE('',#480,#484,#564,.T.);
#359=EDGE_CURVE('',#485,#486,#66,.T.);
#360=EDGE_CURVE('',#486,#484,#565,.T.);
#361=EDGE_CURVE('',#483,#485,#566,.F.);
#362=EDGE_CURVE('',#485,#481,#567,.T.);
#363=EDGE_CURVE('',#479,#486,#568,.T.);
#364=EDGE_CURVE('',#487,#488,#67,.T.);
#365=EDGE_CURVE('',#488,#489,#569,.T.);
#366=EDGE_CURVE('',#490,#489,#68,.T.);
#367=EDGE_CURVE('',#490,#487,#570,.F.);
#368=EDGE_CURVE('',#490,#491,#571,.T.);
#369=EDGE_CURVE('',#492,#489,#572,.T.);
#370=EDGE_CURVE('',#491,#492,#69,.T.);
#371=EDGE_CURVE('',#493,#492,#573,.T.);
#372=EDGE_CURVE('',#494,#493,#70,.T.);
#373=EDGE_CURVE('',#491,#494,#574,.F.);
#374=EDGE_CURVE('',#487,#494,#575,.T.);
#375=EDGE_CURVE('',#493,#488,#576,.T.);
#376=EDGE_CURVE('',#495,#496,#577,.T.);
#377=EDGE_CURVE('',#496,#495,#23,.T.);
#378=EDGE_CURVE('',#495,#497,#19,.T.);
#379=EDGE_CURVE('',#498,#497,#578,.F.);
#380=EDGE_CURVE('',#498,#496,#20,.T.);
#381=EDGE_CURVE('',#497,#499,#579,.F.);
#382=EDGE_CURVE('',#499,#500,#580,.T.);
#383=EDGE_CURVE('',#500,#498,#581,.T.);
#384=EDGE_CURVE('',#501,#502,#24,.T.);
#385=EDGE_CURVE('',#501,#502,#582,.F.);
#386=EDGE_CURVE('',#502,#503,#25,.T.);
#387=EDGE_CURVE('',#504,#501,#26,.T.);
#388=EDGE_CURVE('',#503,#504,#583,.T.);
#389=EDGE_CURVE('',#500,#505,#71,.T.);
#390=EDGE_CURVE('',#506,#505,#584,.T.);
#391=EDGE_CURVE('',#498,#506,#72,.T.);
#392=EDGE_CURVE('',#507,#506,#21,.T.);
#393=EDGE_CURVE('',#496,#507,#73,.T.);
#394=EDGE_CURVE('',#508,#507,#27,.T.);
#395=EDGE_CURVE('',#495,#508,#74,.T.);
#396=EDGE_CURVE('',#509,#508,#22,.T.);
#397=EDGE_CURVE('',#497,#509,#75,.T.);
#398=EDGE_CURVE('',#510,#509,#585,.F.);
#399=EDGE_CURVE('',#510,#499,#76,.T.);
#400=EDGE_CURVE('',#499,#511,#586,.T.);
#401=EDGE_CURVE('',#512,#511,#587,.T.);
#402=EDGE_CURVE('',#500,#512,#588,.T.);
#403=EDGE_CURVE('',#510,#513,#589,.T.);
#404=EDGE_CURVE('',#511,#513,#77,.F.);
#405=EDGE_CURVE('',#514,#512,#78,.F.);
#406=EDGE_CURVE('',#505,#514,#590,.T.);
#407=EDGE_CURVE('',#504,#515,#591,.F.);
#408=EDGE_CURVE('',#515,#516,#592,.T.);
#409=EDGE_CURVE('',#516,#517,#593,.T.);
#410=EDGE_CURVE('',#518,#517,#594,.T.);
#411=EDGE_CURVE('',#519,#518,#595,.T.);
#412=EDGE_CURVE('',#519,#520,#596,.T.);
#413=EDGE_CURVE('',#520,#503,#597,.T.);
#414=EDGE_CURVE('',#515,#521,#28,.T.);
#415=EDGE_CURVE('',#521,#522,#598,.T.);
#416=EDGE_CURVE('',#522,#516,#599,.T.);
#417=EDGE_CURVE('',#523,#519,#600,.T.);
#418=EDGE_CURVE('',#523,#524,#601,.T.);
#419=EDGE_CURVE('',#524,#520,#29,.T.);
#420=EDGE_CURVE('',#525,#526,#602,.F.);
#421=EDGE_CURVE('',#505,#525,#79,.T.);
#422=EDGE_CURVE('',#526,#514,#80,.F.);
#423=EDGE_CURVE('',#527,#528,#603,.F.);
#424=EDGE_CURVE('',#513,#527,#81,.F.);
#425=EDGE_CURVE('',#528,#510,#82,.T.);
#426=EDGE_CURVE('',#527,#529,#604,.T.);
#427=EDGE_CURVE('',#529,#518,#605,.T.);
#428=EDGE_CURVE('',#530,#517,#606,.T.);
#429=EDGE_CURVE('',#530,#526,#607,.T.);
#430=EDGE_CURVE('',#529,#523,#608,.T.);
#431=EDGE_CURVE('',#530,#522,#609,.T.);
#432=EDGE_CURVE('',#531,#532,#83,.T.);
#433=EDGE_CURVE('',#531,#533,#610,.T.);
#434=EDGE_CURVE('',#533,#534,#84,.T.);
#435=EDGE_CURVE('',#534,#532,#611,.T.);
#436=EDGE_CURVE('',#535,#536,#85,.T.);
#437=EDGE_CURVE('',#536,#534,#612,.T.);
#438=EDGE_CURVE('',#533,#535,#613,.F.);
#439=EDGE_CURVE('',#537,#535,#614,.T.);
#440=EDGE_CURVE('',#537,#538,#86,.T.);
#441=EDGE_CURVE('',#536,#538,#615,.T.);
#442=EDGE_CURVE('',#539,#540,#87,.T.);
#443=EDGE_CURVE('',#540,#538,#616,.T.);
#444=EDGE_CURVE('',#537,#539,#617,.F.);
#445=EDGE_CURVE('',#539,#541,#618,.T.);
#446=EDGE_CURVE('',#541,#542,#88,.T.);
#447=EDGE_CURVE('',#542,#540,#619,.T.);
#448=EDGE_CURVE('',#543,#544,#620,.T.);
#449=EDGE_CURVE('',#543,#545,#89,.T.);
#450=EDGE_CURVE('',#546,#545,#621,.T.);
#451=EDGE_CURVE('',#544,#546,#90,.T.);
#452=EDGE_CURVE('',#546,#542,#622,.T.);
#453=EDGE_CURVE('',#541,#544,#623,.F.);
#454=EDGE_CURVE('',#532,#528,#624,.T.);
#455=EDGE_CURVE('',#525,#531,#625,.F.);
#456=EDGE_CURVE('',#547,#548,#91,.T.);
#457=EDGE_CURVE('',#548,#549,#626,.T.);
#458=EDGE_CURVE('',#550,#549,#92,.T.);
#459=EDGE_CURVE('',#550,#547,#627,.T.);
#460=EDGE_CURVE('',#551,#552,#93,.T.);
#461=EDGE_CURVE('',#552,#553,#628,.T.);
#462=EDGE_CURVE('',#554,#553,#94,.T.);
#463=EDGE_CURVE('',#554,#551,#629,.T.);
#464=EDGE_CURVE('',#555,#553,#630,.T.);
#465=EDGE_CURVE('',#556,#555,#95,.T.);
#466=EDGE_CURVE('',#554,#556,#631,.F.);
#467=EDGE_CURVE('',#557,#558,#632,.F.);
#468=EDGE_CURVE('',#559,#557,#96,.F.);
#469=EDGE_CURVE('',#560,#559,#633,.F.);
#470=EDGE_CURVE('',#558,#560,#97,.T.);
#471=EDGE_CURVE('',#558,#555,#634,.T.);
#472=EDGE_CURVE('',#556,#560,#635,.T.);
#473=EDGE_CURVE('',#557,#548,#636,.T.);
#474=EDGE_CURVE('',#547,#559,#637,.F.);
#475=EDGE_CURVE('',#552,#524,#638,.T.);
#476=EDGE_CURVE('',#521,#551,#639,.F.);
#477=EDGE_CURVE('',#549,#545,#640,.T.);
#478=EDGE_CURVE('',#543,#550,#641,.F.);
#479=VERTEX_POINT('',#1290);
#480=VERTEX_POINT('',#1291);
#481=VERTEX_POINT('',#1293);
#482=VERTEX_POINT('',#1295);
#483=VERTEX_POINT('',#1299);
#484=VERTEX_POINT('',#1301);
#485=VERTEX_POINT('',#1305);
#486=VERTEX_POINT('',#1306);
#487=VERTEX_POINT('',#1317);
#488=VERTEX_POINT('',#1318);
#489=VERTEX_POINT('',#1320);
#490=VERTEX_POINT('',#1322);
#491=VERTEX_POINT('',#1326);
#492=VERTEX_POINT('',#1328);
#493=VERTEX_POINT('',#1332);
#494=VERTEX_POINT('',#1334);
#495=VERTEX_POINT('',#1344);
#496=VERTEX_POINT('',#1345);
#497=VERTEX_POINT('',#1352);
#498=VERTEX_POINT('',#1354);
#499=VERTEX_POINT('',#1361);
#500=VERTEX_POINT('',#1363);
#501=VERTEX_POINT('',#1367);
#502=VERTEX_POINT('',#1368);
#503=VERTEX_POINT('',#1372);
#504=VERTEX_POINT('',#1374);
#505=VERTEX_POINT('',#1378);
#506=VERTEX_POINT('',#1380);
#507=VERTEX_POINT('',#1398);
#508=VERTEX_POINT('',#1422);
#509=VERTEX_POINT('',#1440);
#510=VERTEX_POINT('',#1444);
#511=VERTEX_POINT('',#1448);
#512=VERTEX_POINT('',#1450);
#513=VERTEX_POINT('',#1454);
#514=VERTEX_POINT('',#1458);
#515=VERTEX_POINT('',#1462);
#516=VERTEX_POINT('',#1464);
#517=VERTEX_POINT('',#1466);
#518=VERTEX_POINT('',#1468);
#519=VERTEX_POINT('',#1470);
#520=VERTEX_POINT('',#1472);
#521=VERTEX_POINT('',#1476);
#522=VERTEX_POINT('',#1478);
#523=VERTEX_POINT('',#1482);
#524=VERTEX_POINT('',#1484);
#525=VERTEX_POINT('',#1488);
#526=VERTEX_POINT('',#1489);
#527=VERTEX_POINT('',#1494);
#528=VERTEX_POINT('',#1495);
#529=VERTEX_POINT('',#1500);
#530=VERTEX_POINT('',#1503);
#531=VERTEX_POINT('',#1511);
#532=VERTEX_POINT('',#1512);
#533=VERTEX_POINT('',#1514);
#534=VERTEX_POINT('',#1516);
#535=VERTEX_POINT('',#1520);
#536=VERTEX_POINT('',#1521);
#537=VERTEX_POINT('',#1526);
#538=VERTEX_POINT('',#1528);
#539=VERTEX_POINT('',#1532);
#540=VERTEX_POINT('',#1533);
#541=VERTEX_POINT('',#1538);
#542=VERTEX_POINT('',#1540);
#543=VERTEX_POINT('',#1544);
#544=VERTEX_POINT('',#1545);
#545=VERTEX_POINT('',#1547);
#546=VERTEX_POINT('',#1549);
#547=VERTEX_POINT('',#1559);
#548=VERTEX_POINT('',#1560);
#549=VERTEX_POINT('',#1562);
#550=VERTEX_POINT('',#1564);
#551=VERTEX_POINT('',#1568);
#552=VERTEX_POINT('',#1569);
#553=VERTEX_POINT('',#1571);
#554=VERTEX_POINT('',#1573);
#555=VERTEX_POINT('',#1577);
#556=VERTEX_POINT('',#1579);
#557=VERTEX_POINT('',#1583);
#558=VERTEX_POINT('',#1584);
#559=VERTEX_POINT('',#1586);
#560=VERTEX_POINT('',#1588);
#561=LINE('',#1289,#642);
#562=LINE('',#1294,#643);
#563=LINE('',#1298,#644);
#564=LINE('',#1302,#645);
#565=LINE('',#1307,#646);
#566=LINE('',#1308,#647);
#567=LINE('',#1310,#648);
#568=LINE('',#1311,#649);
#569=LINE('',#1319,#650);
#570=LINE('',#1323,#651);
#571=LINE('',#1325,#652);
#572=LINE('',#1327,#653);
#573=LINE('',#1331,#654);
#574=LINE('',#1335,#655);
#575=LINE('',#1337,#656);
#576=LINE('',#1338,#657);
#577=LINE('',#1343,#658);
#578=LINE('',#1353,#659);
#579=LINE('',#1360,#660);
#580=LINE('',#1362,#661);
#581=LINE('',#1364,#662);
#582=LINE('',#1369,#663);
#583=LINE('',#1375,#664);
#584=LINE('',#1379,#665);
#585=LINE('',#1443,#666);
#586=LINE('',#1447,#667);
#587=LINE('',#1449,#668);
#588=LINE('',#1451,#669);
#589=LINE('',#1453,#670);
#590=LINE('',#1459,#671);
#591=LINE('',#1461,#672);
#592=LINE('',#1463,#673);
#593=LINE('',#1465,#674);
#594=LINE('',#1467,#675);
#595=LINE('',#1469,#676);
#596=LINE('',#1471,#677);
#597=LINE('',#1473,#678);
#598=LINE('',#1477,#679);
#599=LINE('',#1479,#680);
#600=LINE('',#1481,#681);
#601=LINE('',#1483,#682);
#602=LINE('',#1487,#683);
#603=LINE('',#1493,#684);
#604=LINE('',#1499,#685);
#605=LINE('',#1501,#686);
#606=LINE('',#1502,#687);
#607=LINE('',#1504,#688);
#608=LINE('',#1506,#689);
#609=LINE('',#1508,#690);
#610=LINE('',#1513,#691);
#611=LINE('',#1517,#692);
#612=LINE('',#1522,#693);
#613=LINE('',#1523,#694);
#614=LINE('',#1525,#695);
#615=LINE('',#1529,#696);
#616=LINE('',#1534,#697);
#617=LINE('',#1535,#698);
#618=LINE('',#1537,#699);
#619=LINE('',#1541,#700);
#620=LINE('',#1543,#701);
#621=LINE('',#1548,#702);
#622=LINE('',#1552,#703);
#623=LINE('',#1553,#704);
#624=LINE('',#1555,#705);
#625=LINE('',#1556,#706);
#626=LINE('',#1561,#707);
#627=LINE('',#1565,#708);
#628=LINE('',#1570,#709);
#629=LINE('',#1574,#710);
#630=LINE('',#1576,#711);
#631=LINE('',#1580,#712);
#632=LINE('',#1582,#713);
#633=LINE('',#1587,#714);
#634=LINE('',#1591,#715);
#635=LINE('',#1592,#716);
#636=LINE('',#1594,#717);
#637=LINE('',#1595,#718);
#638=LINE('',#1597,#719);
#639=LINE('',#1598,#720);
#640=LINE('',#1600,#721);
#641=LINE('',#1601,#722);
#642=VECTOR('',#1024,1.);
#643=VECTOR('',#1027,1.);
#644=VECTOR('',#1032,1.);
#645=VECTOR('',#1035,1.);
#646=VECTOR('',#1040,1.);
#647=VECTOR('',#1041,1.);
#648=VECTOR('',#1044,1.);
#649=VECTOR('',#1045,1.);
#650=VECTOR('',#1056,1.);
#651=VECTOR('',#1059,1.);
#652=VECTOR('',#1062,1.);
#653=VECTOR('',#1063,1.);
#654=VECTOR('',#1068,1.);
#655=VECTOR('',#1071,1.);
#656=VECTOR('',#1074,1.);
#657=VECTOR('',#1075,1.);
#658=VECTOR('',#1084,1.);
#659=VECTOR('',#1089,1.);
#660=VECTOR('',#1092,1.);
#661=VECTOR('',#1093,1.);
#662=VECTOR('',#1094,1.);
#663=VECTOR('',#1099,1.);
#664=VECTOR('',#1106,1.);
#665=VECTOR('',#1111,1.);
#666=VECTOR('',#1124,1.);
#667=VECTOR('',#1129,1.);
#668=VECTOR('',#1130,1.);
#669=VECTOR('',#1131,1.);
#670=VECTOR('',#1134,1.);
#671=VECTOR('',#1141,1.);
#672=VECTOR('',#1144,1.);
#673=VECTOR('',#1145,1.);
#674=VECTOR('',#1146,1.);
#675=VECTOR('',#1147,1.);
#676=VECTOR('',#1148,1.);
#677=VECTOR('',#1149,1.);
#678=VECTOR('',#1150,1.);
#679=VECTOR('',#1155,1.);
#680=VECTOR('',#1156,1.);
#681=VECTOR('',#1159,1.);
#682=VECTOR('',#1160,1.);
#683=VECTOR('',#1165,1.);
#684=VECTOR('',#1172,1.);
#685=VECTOR('',#1179,1.);
#686=VECTOR('',#1180,1.);
#687=VECTOR('',#1181,1.);
#688=VECTOR('',#1182,1.);
#689=VECTOR('',#1185,1.);
#690=VECTOR('',#1188,1.);
#691=VECTOR('',#1193,1.);
#692=VECTOR('',#1196,1.);
#693=VECTOR('',#1201,1.);
#694=VECTOR('',#1202,1.);
#695=VECTOR('',#1205,1.);
#696=VECTOR('',#1208,1.);
#697=VECTOR('',#1213,1.);
#698=VECTOR('',#1214,1.);
#699=VECTOR('',#1217,1.);
#700=VECTOR('',#1220,1.);
#701=VECTOR('',#1223,1.);
#702=VECTOR('',#1226,1.);
#703=VECTOR('',#1231,1.);
#704=VECTOR('',#1232,1.);
#705=VECTOR('',#1235,1.);
#706=VECTOR('',#1236,1.);
#707=VECTOR('',#1241,1.);
#708=VECTOR('',#1244,1.);
#709=VECTOR('',#1249,1.);
#710=VECTOR('',#1252,1.);
#711=VECTOR('',#1255,1.);
#712=VECTOR('',#1258,1.);
#713=VECTOR('',#1261,1.);
#714=VECTOR('',#1264,1.);
#715=VECTOR('',#1269,1.);
#716=VECTOR('',#1270,1.);
#717=VECTOR('',#1273,1.);
#718=VECTOR('',#1274,1.);
#719=VECTOR('',#1277,1.);
#720=VECTOR('',#1278,1.);
#721=VECTOR('',#1281,1.);
#722=VECTOR('',#1282,1.);
#723=EDGE_LOOP('',(#98,#99,#100,#101));
#724=EDGE_LOOP('',(#102,#103,#104,#105));
#725=EDGE_LOOP('',(#106,#107,#108,#109));
#726=EDGE_LOOP('',(#110,#111,#112,#113));
#727=EDGE_LOOP('',(#114,#115,#116,#117));
#728=EDGE_LOOP('',(#118,#119,#120,#121));
#729=EDGE_LOOP('',(#122,#123,#124,#125));
#730=EDGE_LOOP('',(#126,#127,#128,#129));
#731=EDGE_LOOP('',(#130,#131,#132,#133));
#732=EDGE_LOOP('',(#134,#135,#136,#137));
#733=EDGE_LOOP('',(#138,#139,#140,#141));
#734=EDGE_LOOP('',(#142,#143,#144,#145));
#735=EDGE_LOOP('',(#146,#147));
#736=EDGE_LOOP('',(#148,#149,#150,#151));
#737=EDGE_LOOP('',(#152,#153,#154,#155));
#738=EDGE_LOOP('',(#156,#157));
#739=EDGE_LOOP('',(#158,#159,#160,#161));
#740=EDGE_LOOP('',(#162,#163,#164,#165));
#741=EDGE_LOOP('',(#166,#167,#168,#169));
#742=EDGE_LOOP('',(#170,#171,#172,#173));
#743=EDGE_LOOP('',(#174,#175,#176,#177));
#744=EDGE_LOOP('',(#178,#179,#180,#181));
#745=EDGE_LOOP('',(#182,#183,#184,#185));
#746=EDGE_LOOP('',(#186,#187,#188,#189));
#747=EDGE_LOOP('',(#190,#191,#192,#193));
#748=EDGE_LOOP('',(#194,#195,#196,#197,#198,#199,#200,#201));
#749=EDGE_LOOP('',(#202,#203,#204,#205));
#750=EDGE_LOOP('',(#206,#207,#208,#209));
#751=EDGE_LOOP('',(#210,#211,#212,#213));
#752=EDGE_LOOP('',(#214,#215,#216,#217));
#753=EDGE_LOOP('',(#218,#219,#220,#221,#222,#223,#224,#225,#226,#227));
#754=EDGE_LOOP('',(#228,#229,#230,#231));
#755=EDGE_LOOP('',(#232,#233,#234,#235));
#756=EDGE_LOOP('',(#236,#237,#238,#239));
#757=EDGE_LOOP('',(#240,#241,#242,#243));
#758=EDGE_LOOP('',(#244,#245,#246,#247));
#759=EDGE_LOOP('',(#248,#249,#250,#251));
#760=EDGE_LOOP('',(#252,#253,#254,#255));
#761=EDGE_LOOP('',(#256,#257,#258,#259));
#762=EDGE_LOOP('',(#260,#261,#262,#263));
#763=EDGE_LOOP('',(#264,#265,#266,#267,#268,#269,#270,#271,#272,#273));
#764=EDGE_LOOP('',(#274,#275,#276,#277));
#765=EDGE_LOOP('',(#278,#279,#280,#281));
#766=EDGE_LOOP('',(#282,#283,#284,#285));
#767=EDGE_LOOP('',(#286,#287,#288,#289));
#768=EDGE_LOOP('',(#290,#291,#292,#293));
#769=EDGE_LOOP('',(#294,#295,#296,#297));
#770=EDGE_LOOP('',(#298,#299,#300,#301,#302,#303,#304,#305,#306,#307));
#771=EDGE_LOOP('',(#308,#309,#310,#311));
#772=EDGE_LOOP('',(#312,#313,#314,#315,#316,#317,#318,#319,#320,#321,#322,
#323,#324,#325,#326,#327,#328,#329,#330,#331));
#773=EDGE_LOOP('',(#332,#333,#334,#335,#336,#337,#338,#339,#340,#341,#342,
#343,#344,#345,#346,#347,#348,#349,#350,#351));
#774=FACE_BOUND('',#723,.T.);
#775=FACE_BOUND('',#724,.T.);
#776=FACE_BOUND('',#725,.T.);
#777=FACE_BOUND('',#726,.T.);
#778=FACE_BOUND('',#727,.T.);
#779=FACE_BOUND('',#728,.T.);
#780=FACE_BOUND('',#729,.T.);
#781=FACE_BOUND('',#730,.T.);
#782=FACE_BOUND('',#731,.T.);
#783=FACE_BOUND('',#732,.T.);
#784=FACE_BOUND('',#733,.T.);
#785=FACE_BOUND('',#734,.T.);
#786=FACE_BOUND('',#735,.T.);
#787=FACE_BOUND('',#736,.T.);
#788=FACE_BOUND('',#737,.T.);
#789=FACE_BOUND('',#738,.T.);
#790=FACE_BOUND('',#739,.T.);
#791=FACE_BOUND('',#740,.T.);
#792=FACE_BOUND('',#741,.T.);
#793=FACE_BOUND('',#742,.T.);
#794=FACE_BOUND('',#743,.T.);
#795=FACE_BOUND('',#744,.T.);
#796=FACE_BOUND('',#745,.T.);
#797=FACE_BOUND('',#746,.T.);
#798=FACE_BOUND('',#747,.T.);
#799=FACE_BOUND('',#748,.T.);
#800=FACE_BOUND('',#749,.T.);
#801=FACE_BOUND('',#750,.T.);
#802=FACE_BOUND('',#751,.T.);
#803=FACE_BOUND('',#752,.T.);
#804=FACE_BOUND('',#753,.T.);
#805=FACE_BOUND('',#754,.T.);
#806=FACE_BOUND('',#755,.T.);
#807=FACE_BOUND('',#756,.T.);
#808=FACE_BOUND('',#757,.T.);
#809=FACE_BOUND('',#758,.T.);
#810=FACE_BOUND('',#759,.T.);
#811=FACE_BOUND('',#760,.T.);
#812=FACE_BOUND('',#761,.T.);
#813=FACE_BOUND('',#762,.T.);
#814=FACE_BOUND('',#763,.T.);
#815=FACE_BOUND('',#764,.T.);
#816=FACE_BOUND('',#765,.T.);
#817=FACE_BOUND('',#766,.T.);
#818=FACE_BOUND('',#767,.T.);
#819=FACE_BOUND('',#768,.T.);
#820=FACE_BOUND('',#769,.T.);
#821=FACE_BOUND('',#770,.T.);
#822=FACE_BOUND('',#771,.T.);
#823=FACE_BOUND('',#772,.T.);
#824=FACE_BOUND('',#773,.T.);
#825=CYLINDRICAL_SURFACE('',#928,0.0075);
#826=CYLINDRICAL_SURFACE('',#933,0.008);
#827=CYLINDRICAL_SURFACE('',#939,0.008);
#828=CYLINDRICAL_SURFACE('',#944,0.0075);
#829=CYLINDRICAL_SURFACE('',#952,0.002);
#830=CYLINDRICAL_SURFACE('',#959,0.0015);
#831=CYLINDRICAL_SURFACE('',#966,0.0015);
#832=CYLINDRICAL_SURFACE('',#990,0.0075);
#833=CYLINDRICAL_SURFACE('',#994,0.008);
#834=CYLINDRICAL_SURFACE('',#1001,0.0075);
#835=CYLINDRICAL_SURFACE('',#1002,0.008);
#836=CYLINDRICAL_SURFACE('',#1009,0.005);
#837=CYLINDRICAL_SURFACE('',#1015,0.007);
#838=CYLINDRICAL_SURFACE('',#1016,0.0055);
#839=CYLINDRICAL_SURFACE('',#1017,0.008);
#840=ADVANCED_FACE('',(#774),#825,.F.);
#841=ADVANCED_FACE('',(#775),#36,.T.);
#842=ADVANCED_FACE('',(#776),#826,.T.);
#843=ADVANCED_FACE('',(#777),#37,.F.);
#844=ADVANCED_FACE('',(#778),#38,.F.);
#845=ADVANCED_FACE('',(#779),#39,.F.);
#846=ADVANCED_FACE('',(#780),#827,.T.);
#847=ADVANCED_FACE('',(#781),#40,.T.);
#848=ADVANCED_FACE('',(#782),#828,.F.);
#849=ADVANCED_FACE('',(#783),#41,.F.);
#850=ADVANCED_FACE('',(#784),#42,.F.);
#851=ADVANCED_FACE('',(#785),#43,.F.);
#852=ADVANCED_FACE('',(#786),#44,.T.);
#853=ADVANCED_FACE('',(#787),#829,.F.);
#854=ADVANCED_FACE('',(#788),#45,.T.);
#855=ADVANCED_FACE('',(#789),#46,.F.);
#856=ADVANCED_FACE('',(#790),#47,.F.);
#857=ADVANCED_FACE('',(#791),#830,.T.);
#858=ADVANCED_FACE('',(#792),#16,.T.);
#859=ADVANCED_FACE('',(#793),#17,.T.);
#860=ADVANCED_FACE('',(#794),#18,.T.);
#861=ADVANCED_FACE('',(#795),#831,.T.);
#862=ADVANCED_FACE('',(#796),#48,.T.);
#863=ADVANCED_FACE('',(#797),#10,.T.);
#864=ADVANCED_FACE('',(#798),#11,.T.);
#865=ADVANCED_FACE('',(#799),#49,.F.);
#866=ADVANCED_FACE('',(#800),#50,.F.);
#867=ADVANCED_FACE('',(#801),#51,.F.);
#868=ADVANCED_FACE('',(#802),#12,.T.);
#869=ADVANCED_FACE('',(#803),#13,.T.);
#870=ADVANCED_FACE('',(#804),#52,.F.);
#871=ADVANCED_FACE('',(#805),#53,.F.);
#872=ADVANCED_FACE('',(#806),#54,.T.);
#873=ADVANCED_FACE('',(#807),#55,.F.);
#874=ADVANCED_FACE('',(#808),#832,.T.);
#875=ADVANCED_FACE('',(#809),#56,.T.);
#876=ADVANCED_FACE('',(#810),#833,.T.);
#877=ADVANCED_FACE('',(#811),#57,.F.);
#878=ADVANCED_FACE('',(#812),#58,.T.);
#879=ADVANCED_FACE('',(#813),#834,.T.);
#880=ADVANCED_FACE('',(#814),#835,.T.);
#881=ADVANCED_FACE('',(#815),#14,.T.);
#882=ADVANCED_FACE('',(#816),#59,.F.);
#883=ADVANCED_FACE('',(#817),#836,.F.);
#884=ADVANCED_FACE('',(#818),#15,.T.);
#885=ADVANCED_FACE('',(#819),#60,.T.);
#886=ADVANCED_FACE('',(#820),#837,.T.);
#887=ADVANCED_FACE('',(#821),#838,.F.);
#888=ADVANCED_FACE('',(#822),#839,.T.);
#889=ADVANCED_FACE('',(#823),#61,.F.);
#890=ADVANCED_FACE('',(#824),#62,.F.);
#891=CLOSED_SHELL('',(#840,#841,#842,#843,#844,#845));
#892=CLOSED_SHELL('',(#846,#847,#848,#849,#850,#851));
#893=CLOSED_SHELL('',(#852,#853,#854,#855,#856,#857,#858,#859,#860,#861,
#862,#863,#864,#865,#866,#867,#868,#869,#870,#871,#872,#873,#874,#875,#876,
#877,#878,#879,#880,#881,#882,#883,#884,#885,#886,#887,#888,#889,#890));
#894=STYLED_ITEM('',(#897),#918);
#895=STYLED_ITEM('',(#898),#919);
#896=STYLED_ITEM('',(#899),#920);
#897=PRESENTATION_STYLE_ASSIGNMENT((#900));
#898=PRESENTATION_STYLE_ASSIGNMENT((#901));
#899=PRESENTATION_STYLE_ASSIGNMENT((#902));
#900=SURFACE_STYLE_USAGE(.BOTH.,#903);
#901=SURFACE_STYLE_USAGE(.BOTH.,#904);
#902=SURFACE_STYLE_USAGE(.BOTH.,#905);
#903=SURFACE_SIDE_STYLE('',(#906));
#904=SURFACE_SIDE_STYLE('',(#907));
#905=SURFACE_SIDE_STYLE('',(#908));
#906=SURFACE_STYLE_FILL_AREA(#909);
#907=SURFACE_STYLE_FILL_AREA(#910);
#908=SURFACE_STYLE_FILL_AREA(#911);
#909=FILL_AREA_STYLE('',(#912));
#910=FILL_AREA_STYLE('',(#913));
#911=FILL_AREA_STYLE('',(#914));
#912=FILL_AREA_STYLE_COLOUR('',#915);
#913=FILL_AREA_STYLE_COLOUR('',#916);
#914=FILL_AREA_STYLE_COLOUR('',#917);
#915=COLOUR_RGB('',0.647058823529412,0.647058823529412,0.647058823529412);
#916=COLOUR_RGB('',0.231372549019608,0.380392156862745,0.705882352941177);
#917=COLOUR_RGB('',0.615686274509804,0.811764705882353,0.929411764705882);
#918=MANIFOLD_SOLID_BREP('Part 3',#891);
#919=MANIFOLD_SOLID_BREP('Part 5',#892);
#920=MANIFOLD_SOLID_BREP('Part 2',#893);
#921=SHAPE_DEFINITION_REPRESENTATION(#1622,#924);
#922=SHAPE_DEFINITION_REPRESENTATION(#1623,#925);
#923=SHAPE_DEFINITION_REPRESENTATION(#1624,#926);
#924=SHAPE_REPRESENTATION('Part 3',(#927),#1607);
#925=SHAPE_REPRESENTATION('Part 5',(#938),#1608);
#926=SHAPE_REPRESENTATION('Part 2',(#949),#1609);
#927=AXIS2_PLACEMENT_3D('',#1287,#1020,#1021);
#928=AXIS2_PLACEMENT_3D('',#1288,#1022,#1023);
#929=AXIS2_PLACEMENT_3D('',#1292,#1025,#1026);
#930=AXIS2_PLACEMENT_3D('',#1296,#1028,#1029);
#931=AXIS2_PLACEMENT_3D('',#1297,#1030,#1031);
#932=AXIS2_PLACEMENT_3D('',#1300,#1033,#1034);
#933=AXIS2_PLACEMENT_3D('',#1303,#1036,#1037);
#934=AXIS2_PLACEMENT_3D('',#1304,#1038,#1039);
#935=AXIS2_PLACEMENT_3D('',#1309,#1042,#1043);
#936=AXIS2_PLACEMENT_3D('',#1312,#1046,#1047);
#937=AXIS2_PLACEMENT_3D('',#1313,#1048,#1049);
#938=AXIS2_PLACEMENT_3D('',#1314,#1050,#1051);
#939=AXIS2_PLACEMENT_3D('',#1315,#1052,#1053);
#940=AXIS2_PLACEMENT_3D('',#1316,#1054,#1055);
#941=AXIS2_PLACEMENT_3D('',#1321,#1057,#1058);
#942=AXIS2_PLACEMENT_3D('',#1324,#1060,#1061);
#943=AXIS2_PLACEMENT_3D('',#1329,#1064,#1065);
#944=AXIS2_PLACEMENT_3D('',#1330,#1066,#1067);
#945=AXIS2_PLACEMENT_3D('',#1333,#1069,#1070);
#946=AXIS2_PLACEMENT_3D('',#1336,#1072,#1073);
#947=AXIS2_PLACEMENT_3D('',#1339,#1076,#1077);
#948=AXIS2_PLACEMENT_3D('',#1340,#1078,#1079);
#949=AXIS2_PLACEMENT_3D('',#1341,#1080,#1081);
#950=AXIS2_PLACEMENT_3D('',#1342,#1082,#1083);
#951=AXIS2_PLACEMENT_3D('',#1346,#1085,#1086);
#952=AXIS2_PLACEMENT_3D('',#1347,#1087,#1088);
#953=AXIS2_PLACEMENT_3D('',#1359,#1090,#1091);
#954=AXIS2_PLACEMENT_3D('',#1365,#1095,#1096);
#955=AXIS2_PLACEMENT_3D('',#1366,#1097,#1098);
#956=AXIS2_PLACEMENT_3D('',#1370,#1100,#1101);
#957=AXIS2_PLACEMENT_3D('',#1371,#1102,#1103);
#958=AXIS2_PLACEMENT_3D('',#1373,#1104,#1105);
#959=AXIS2_PLACEMENT_3D('',#1376,#1107,#1108);
#960=AXIS2_PLACEMENT_3D('',#1377,#1109,#1110);
#961=AXIS2_PLACEMENT_3D('',#1381,#1112,#1113);
#962=AXIS2_PLACEMENT_3D('',#1399,#1114,#1115);
#963=AXIS2_PLACEMENT_3D('',#1421,#1116,#1117);
#964=AXIS2_PLACEMENT_3D('',#1423,#1118,#1119);
#965=AXIS2_PLACEMENT_3D('',#1441,#1120,#1121);
#966=AXIS2_PLACEMENT_3D('',#1442,#1122,#1123);
#967=AXIS2_PLACEMENT_3D('',#1445,#1125,#1126);
#968=AXIS2_PLACEMENT_3D('',#1446,#1127,#1128);
#969=AXIS2_PLACEMENT_3D('',#1452,#1132,#1133);
#970=AXIS2_PLACEMENT_3D('',#1455,#1135,#1136);
#971=AXIS2_PLACEMENT_3D('',#1456,#1137,#1138);
#972=AXIS2_PLACEMENT_3D('',#1457,#1139,#1140);
#973=AXIS2_PLACEMENT_3D('',#1460,#1142,#1143);
#974=AXIS2_PLACEMENT_3D('',#1474,#1151,#1152);
#975=AXIS2_PLACEMENT_3D('',#1475,#1153,#1154);
#976=AXIS2_PLACEMENT_3D('',#1480,#1157,#1158);
#977=AXIS2_PLACEMENT_3D('',#1485,#1161,#1162);
#978=AXIS2_PLACEMENT_3D('',#1486,#1163,#1164);
#979=AXIS2_PLACEMENT_3D('',#1490,#1166,#1167);
#980=AXIS2_PLACEMENT_3D('',#1491,#1168,#1169);
#981=AXIS2_PLACEMENT_3D('',#1492,#1170,#1171);
#982=AXIS2_PLACEMENT_3D('',#1496,#1173,#1174);
#983=AXIS2_PLACEMENT_3D('',#1497,#1175,#1176);
#984=AXIS2_PLACEMENT_3D('',#1498,#1177,#1178);
#985=AXIS2_PLACEMENT_3D('',#1505,#1183,#1184);
#986=AXIS2_PLACEMENT_3D('',#1507,#1186,#1187);
#987=AXIS2_PLACEMENT_3D('',#1509,#1189,#1190);
#988=AXIS2_PLACEMENT_3D('',#1510,#1191,#1192);
#989=AXIS2_PLACEMENT_3D('',#1515,#1194,#1195);
#990=AXIS2_PLACEMENT_3D('',#1518,#1197,#1198);
#991=AXIS2_PLACEMENT_3D('',#1519,#1199,#1200);
#992=AXIS2_PLACEMENT_3D('',#1524,#1203,#1204);
#993=AXIS2_PLACEMENT_3D('',#1527,#1206,#1207);
#994=AXIS2_PLACEMENT_3D('',#1530,#1209,#1210);
#995=AXIS2_PLACEMENT_3D('',#1531,#1211,#1212);
#996=AXIS2_PLACEMENT_3D('',#1536,#1215,#1216);
#997=AXIS2_PLACEMENT_3D('',#1539,#1218,#1219);
#998=AXIS2_PLACEMENT_3D('',#1542,#1221,#1222);
#999=AXIS2_PLACEMENT_3D('',#1546,#1224,#1225);
#1000=AXIS2_PLACEMENT_3D('',#1550,#1227,#1228);
#1001=AXIS2_PLACEMENT_3D('',#1551,#1229,#1230);
#1002=AXIS2_PLACEMENT_3D('',#1554,#1233,#1234);
#1003=AXIS2_PLACEMENT_3D('',#1557,#1237,#1238);
#1004=AXIS2_PLACEMENT_3D('',#1558,#1239,#1240);
#1005=AXIS2_PLACEMENT_3D('',#1563,#1242,#1243);
#1006=AXIS2_PLACEMENT_3D('',#1566,#1245,#1246);
#1007=AXIS2_PLACEMENT_3D('',#1567,#1247,#1248);
#1008=AXIS2_PLACEMENT_3D('',#1572,#1250,#1251);
#1009=AXIS2_PLACEMENT_3D('',#1575,#1253,#1254);
#1010=AXIS2_PLACEMENT_3D('',#1578,#1256,#1257);
#1011=AXIS2_PLACEMENT_3D('',#1581,#1259,#1260);
#1012=AXIS2_PLACEMENT_3D('',#1585,#1262,#1263);
#1013=AXIS2_PLACEMENT_3D('',#1589,#1265,#1266);
#1014=AXIS2_PLACEMENT_3D('',#1590,#1267,#1268);
#1015=AXIS2_PLACEMENT_3D('',#1593,#1271,#1272);
#1016=AXIS2_PLACEMENT_3D('',#1596,#1275,#1276);
#1017=AXIS2_PLACEMENT_3D('',#1599,#1279,#1280);
#1018=AXIS2_PLACEMENT_3D('',#1602,#1283,#1284);
#1019=AXIS2_PLACEMENT_3D('',#1603,#1285,#1286);
#1020=DIRECTION('',(0.,0.,1.));
#1021=DIRECTION('',(1.,0.,0.));
#1022=DIRECTION('',(0.,-1.,0.));
#1023=DIRECTION('',(0.,0.,-1.));
#1024=DIRECTION('',(0.,-1.,0.));
#1025=DIRECTION('',(0.,-1.,0.));
#1026=DIRECTION('',(0.,0.,-1.));
#1027=DIRECTION('',(0.,-1.,0.));
#1028=DIRECTION('',(0.,-1.,0.));
#1029=DIRECTION('',(0.,0.,-1.));
#1030=DIRECTION('',(0.,-1.,0.));
#1031=DIRECTION('',(0.,0.,-1.));
#1032=DIRECTION('',(-1.,0.,0.));
#1033=DIRECTION('',(0.,-1.,0.));
#1034=DIRECTION('',(0.,0.,-1.));
#1035=DIRECTION('',(-1.,0.,0.));
#1036=DIRECTION('',(0.,-1.,0.));
#1037=DIRECTION('',(0.,0.,-1.));
#1038=DIRECTION('',(0.,-1.,0.));
#1039=DIRECTION('',(0.,0.,-1.));
#1040=DIRECTION('',(0.,-1.,0.));
#1041=DIRECTION('',(0.,-1.,0.));
#1042=DIRECTION('',(0.,-1.,0.));
#1043=DIRECTION('',(0.,0.,-1.));
#1044=DIRECTION('',(-1.,0.,0.));
#1045=DIRECTION('',(-1.,0.,0.));
#1046=DIRECTION('',(0.,0.,1.));
#1047=DIRECTION('',(1.,0.,0.));
#1048=DIRECTION('',(0.,0.,1.));
#1049=DIRECTION('',(1.,0.,0.));
#1050=DIRECTION('',(0.,0.,1.));
#1051=DIRECTION('',(1.,0.,0.));
#1052=DIRECTION('',(0.,-1.,0.));
#1053=DIRECTION('',(0.,0.,-1.));
#1054=DIRECTION('',(0.,-1.,0.));
#1055=DIRECTION('',(0.,0.,-1.));
#1056=DIRECTION('',(0.,-1.,0.));
#1057=DIRECTION('',(0.,-1.,0.));
#1058=DIRECTION('',(0.,0.,-1.));
#1059=DIRECTION('',(0.,-1.,0.));
#1060=DIRECTION('',(0.,-1.,0.));
#1061=DIRECTION('',(0.,0.,-1.));
#1062=DIRECTION('',(-1.,0.,0.));
#1063=DIRECTION('',(-1.,0.,0.));
#1064=DIRECTION('',(0.,-1.,0.));
#1065=DIRECTION('',(0.,0.,-1.));
#1066=DIRECTION('',(0.,-1.,0.));
#1067=DIRECTION('',(0.,0.,-1.));
#1068=DIRECTION('',(0.,-1.,0.));
#1069=DIRECTION('',(0.,-1.,0.));
#1070=DIRECTION('',(0.,0.,-1.));
#1071=DIRECTION('',(0.,-1.,0.));
#1072=DIRECTION('',(0.,-1.,0.));
#1073=DIRECTION('',(0.,0.,-1.));
#1074=DIRECTION('',(-1.,0.,0.));
#1075=DIRECTION('',(-1.,0.,0.));
#1076=DIRECTION('',(0.,0.,1.));
#1077=DIRECTION('',(1.,0.,0.));
#1078=DIRECTION('',(0.,0.,1.));
#1079=DIRECTION('',(1.,0.,0.));
#1080=DIRECTION('',(0.,0.,1.));
#1081=DIRECTION('',(1.,0.,0.));
#1082=DIRECTION('',(0.,-0.64278760968654,0.766044443118978));
#1083=DIRECTION('',(1.,0.,0.));
#1084=DIRECTION('',(1.,0.,0.));
#1085=DIRECTION('',(0.,-0.64278760968654,0.766044443118978));
#1086=DIRECTION('',(0.,-0.766044443118978,-0.64278760968654));
#1087=DIRECTION('',(-1.,0.,0.));
#1088=DIRECTION('',(0.,0.,1.));
#1089=DIRECTION('',(1.,0.,0.));
#1090=DIRECTION('',(0.,0.,1.));
#1091=DIRECTION('',(1.,0.,0.));
#1092=DIRECTION('',(0.,1.,0.));
#1093=DIRECTION('',(1.,0.,0.));
#1094=DIRECTION('',(0.,1.,0.));
#1095=DIRECTION('',(0.,-0.64278760968654,0.766044443118978));
#1096=DIRECTION('',(1.,0.,0.));
#1097=DIRECTION('',(0.,-0.64278760968654,0.766044443118978));
#1098=DIRECTION('',(0.,-0.766044443118978,-0.64278760968654));
#1099=DIRECTION('',(1.,0.,0.));
#1100=DIRECTION('',(0.,-0.707106781186548,0.707106781186548));
#1101=DIRECTION('',(1.,0.,0.));
#1102=DIRECTION('',(0.,-0.707106781186548,0.707106781186548));
#1103=DIRECTION('',(0.,-0.707106781186548,-0.707106781186548));
#1104=DIRECTION('',(0.,-0.707106781186548,0.707106781186548));
#1105=DIRECTION('',(0.,-0.707106781186548,-0.707106781186548));
#1106=DIRECTION('',(1.,0.,0.));
#1107=DIRECTION('',(0.,-1.,0.));
#1108=DIRECTION('',(0.,0.,-1.));
#1109=DIRECTION('',(0.,1.,0.));
#1110=DIRECTION('',(0.,0.,1.));
#1111=DIRECTION('',(0.,-1.,0.));
#1112=DIRECTION('',(0.,1.,0.));
#1113=DIRECTION('',(0.,0.,1.));
#1114=DIRECTION('',(-0.356612074701476,0.715678974805411,0.600525963800554));
#1115=DIRECTION('',(0.,-0.64278760968654,0.766044443118978));
#1116=DIRECTION('',(0.,0.718401836356469,-0.69562835014083));
#1117=DIRECTION('',(0.,-0.69562835014083,-0.718401836356469));
#1118=DIRECTION('',(-0.356612074701476,-0.715678974805411,-0.600525963800555));
#1119=DIRECTION('',(0.,0.64278760968654,-0.766044443118978));
#1120=DIRECTION('',(0.,-1.,0.));
#1121=DIRECTION('',(0.,0.,-1.));
#1122=DIRECTION('',(0.,-1.,0.));
#1123=DIRECTION('',(0.,0.,-1.));
#1124=DIRECTION('',(0.,-1.,0.));
#1125=DIRECTION('',(0.,1.,0.));
#1126=DIRECTION('',(0.,0.,1.));
#1127=DIRECTION('',(0.,-0.707106781186547,0.707106781186548));
#1128=DIRECTION('',(-1.,0.,0.));
#1129=DIRECTION('',(0.,-0.707106781186548,-0.707106781186547));
#1130=DIRECTION('',(-1.,0.,0.));
#1131=DIRECTION('',(0.,-0.707106781186548,-0.707106781186547));
#1132=DIRECTION('',(0.,1.,0.));
#1133=DIRECTION('',(0.,0.,1.));
#1134=DIRECTION('',(0.652713951864505,-0.707106781186548,-0.271964146610211));
#1135=DIRECTION('',(0.,1.,0.));
#1136=DIRECTION('',(0.,0.,1.));
#1137=DIRECTION('',(0.,1.,0.));
#1138=DIRECTION('',(0.,0.,1.));
#1139=DIRECTION('',(0.,1.,0.));
#1140=DIRECTION('',(0.,0.,1.));
#1141=DIRECTION('',(-0.652713951864504,-0.707106781186548,-0.271964146610211));
#1142=DIRECTION('',(0.,0.,1.));
#1143=DIRECTION('',(1.,0.,0.));
#1144=DIRECTION('',(0.,-1.,0.));
#1145=DIRECTION('',(0.707106781186548,-0.707106781186547,0.));
#1146=DIRECTION('',(0.,-1.,0.));
#1147=DIRECTION('',(1.,0.,0.));
#1148=DIRECTION('',(0.,-1.,0.));
#1149=DIRECTION('',(0.707106781186548,0.707106781186548,0.));
#1150=DIRECTION('',(0.,-1.,0.));
#1151=DIRECTION('',(0.707106781186547,0.707106781186548,0.));
#1152=DIRECTION('',(-0.707106781186548,0.707106781186547,0.));
#1153=DIRECTION('',(0.707106781186547,0.707106781186548,0.));
#1154=DIRECTION('',(0.707106781186548,-0.707106781186547,0.));
#1155=DIRECTION('',(0.707106781186548,-0.707106781186547,0.));
#1156=DIRECTION('',(0.,0.,1.));
#1157=DIRECTION('',(-0.707106781186548,0.707106781186548,0.));
#1158=DIRECTION('',(-0.707106781186548,-0.707106781186548,0.));
#1159=DIRECTION('',(0.,0.,1.));
#1160=DIRECTION('',(0.707106781186548,0.707106781186548,0.));
#1161=DIRECTION('',(-0.707106781186548,0.707106781186548,0.));
#1162=DIRECTION('',(-0.707106781186548,-0.707106781186548,0.));
#1163=DIRECTION('',(0.,1.,0.));
#1164=DIRECTION('',(0.,0.,1.));
#1165=DIRECTION('',(0.707106781186546,0.707106781186549,0.));
#1166=DIRECTION('',(0.,1.,0.));
#1167=DIRECTION('',(0.,0.,1.));
#1168=DIRECTION('',(0.,1.,0.));
#1169=DIRECTION('',(0.,0.,1.));
#1170=DIRECTION('',(0.,1.,0.));
#1171=DIRECTION('',(0.,0.,1.));
#1172=DIRECTION('',(0.707106781186546,-0.707106781186549,0.));
#1173=DIRECTION('',(0.,1.,0.));
#1174=DIRECTION('',(0.,0.,1.));
#1175=DIRECTION('',(0.,1.,0.));
#1176=DIRECTION('',(0.,0.,1.));
#1177=DIRECTION('',(0.,1.,0.));
#1178=DIRECTION('',(0.,0.,1.));
#1179=DIRECTION('',(1.,0.,0.));
#1180=DIRECTION('',(0.,0.,1.));
#1181=DIRECTION('',(0.,0.,1.));
#1182=DIRECTION('',(1.,0.,0.));
#1183=DIRECTION('',(-1.,0.,0.));
#1184=DIRECTION('',(0.,0.,1.));
#1185=DIRECTION('',(0.,1.,0.));
#1186=DIRECTION('',(-1.,0.,0.));
#1187=DIRECTION('',(0.,0.,1.));
#1188=DIRECTION('',(0.,1.,0.));
#1189=DIRECTION('',(0.,-1.,0.));
#1190=DIRECTION('',(0.,0.,-1.));
#1191=DIRECTION('',(0.,-1.,0.));
#1192=DIRECTION('',(0.,0.,-1.));
#1193=DIRECTION('',(-1.,0.,0.));
#1194=DIRECTION('',(0.,-1.,0.));
#1195=DIRECTION('',(0.,0.,-1.));
#1196=DIRECTION('',(-1.,0.,0.));
#1197=DIRECTION('',(0.,-1.,0.));
#1198=DIRECTION('',(0.,0.,-1.));
#1199=DIRECTION('',(0.,-1.,0.));
#1200=DIRECTION('',(0.,0.,-1.));
#1201=DIRECTION('',(0.,-1.,0.));
#1202=DIRECTION('',(0.,-1.,0.));
#1203=DIRECTION('',(0.,-1.,0.));
#1204=DIRECTION('',(0.,0.,-1.));
#1205=DIRECTION('',(-1.,0.,0.));
#1206=DIRECTION('',(0.,-1.,0.));
#1207=DIRECTION('',(0.,0.,-1.));
#1208=DIRECTION('',(-1.,0.,0.));
#1209=DIRECTION('',(0.,-1.,0.));
#1210=DIRECTION('',(0.,0.,-1.));
#1211=DIRECTION('',(0.,-1.,0.));
#1212=DIRECTION('',(0.,0.,-1.));
#1213=DIRECTION('',(0.,-1.,0.));
#1214=DIRECTION('',(0.,-1.,0.));
#1215=DIRECTION('',(0.,-1.,0.));
#1216=DIRECTION('',(0.,0.,-1.));
#1217=DIRECTION('',(-1.,0.,0.));
#1218=DIRECTION('',(0.,-1.,0.));
#1219=DIRECTION('',(0.,0.,-1.));
#1220=DIRECTION('',(-1.,0.,0.));
#1221=DIRECTION('',(0.,-1.,0.));
#1222=DIRECTION('',(0.,0.,-1.));
#1223=DIRECTION('',(-1.,0.,0.));
#1224=DIRECTION('',(0.,-1.,0.));
#1225=DIRECTION('',(0.,0.,-1.));
#1226=DIRECTION('',(-1.,0.,0.));
#1227=DIRECTION('',(0.,-1.,0.));
#1228=DIRECTION('',(0.,0.,-1.));
#1229=DIRECTION('',(0.,-1.,0.));
#1230=DIRECTION('',(0.,0.,-1.));
#1231=DIRECTION('',(0.,-1.,0.));
#1232=DIRECTION('',(0.,-1.,0.));
#1233=DIRECTION('',(0.,-1.,0.));
#1234=DIRECTION('',(0.,0.,-1.));
#1235=DIRECTION('',(0.,-1.,0.));
#1236=DIRECTION('',(0.,-1.,0.));
#1237=DIRECTION('',(0.,-1.,0.));
#1238=DIRECTION('',(0.,0.,-1.));
#1239=DIRECTION('',(0.,-1.,0.));
#1240=DIRECTION('',(0.,0.,-1.));
#1241=DIRECTION('',(-0.707106781186548,-0.707106781186547,0.));
#1242=DIRECTION('',(0.,-1.,0.));
#1243=DIRECTION('',(0.,0.,-1.));
#1244=DIRECTION('',(-0.707106781186548,0.707106781186547,0.));
#1245=DIRECTION('',(0.,1.,0.));
#1246=DIRECTION('',(0.,0.,1.));
#1247=DIRECTION('',(0.,-1.,0.));
#1248=DIRECTION('',(0.,0.,-1.));
#1249=DIRECTION('',(1.,0.,0.));
#1250=DIRECTION('',(0.,-1.,0.));
#1251=DIRECTION('',(0.,0.,-1.));
#1252=DIRECTION('',(1.,0.,0.));
#1253=DIRECTION('',(0.,-1.,0.));
#1254=DIRECTION('',(0.,0.,-1.));
#1255=DIRECTION('',(0.,-1.,0.));
#1256=DIRECTION('',(0.,-1.,0.));
#1257=DIRECTION('',(0.,0.,-1.));
#1258=DIRECTION('',(0.,-1.,0.));
#1259=DIRECTION('',(0.,-1.,0.));
#1260=DIRECTION('',(0.,0.,-1.));
#1261=DIRECTION('',(-0.707106781186545,-0.707106781186551,0.));
#1262=DIRECTION('',(0.,1.,0.));
#1263=DIRECTION('',(0.,0.,1.));
#1264=DIRECTION('',(-0.707106781186545,0.707106781186551,0.));
#1265=DIRECTION('',(0.,1.,0.));
#1266=DIRECTION('',(0.,0.,1.));
#1267=DIRECTION('',(0.,1.,0.));
#1268=DIRECTION('',(0.,0.,1.));
#1269=DIRECTION('',(1.,0.,0.));
#1270=DIRECTION('',(1.,0.,0.));
#1271=DIRECTION('',(0.,-1.,0.));
#1272=DIRECTION('',(0.,0.,-1.));
#1273=DIRECTION('',(0.,-1.,0.));
#1274=DIRECTION('',(0.,-1.,0.));
#1275=DIRECTION('',(0.,-1.,0.));
#1276=DIRECTION('',(0.,0.,-1.));
#1277=DIRECTION('',(0.,-1.,0.));
#1278=DIRECTION('',(0.,-1.,0.));
#1279=DIRECTION('',(0.,-1.,0.));
#1280=DIRECTION('',(0.,0.,-1.));
#1281=DIRECTION('',(0.,-1.,0.));
#1282=DIRECTION('',(0.,-1.,0.));
#1283=DIRECTION('',(0.,0.,1.));
#1284=DIRECTION('',(1.,0.,0.));
#1285=DIRECTION('',(0.,0.,1.));
#1286=DIRECTION('',(1.,0.,0.));
#1287=CARTESIAN_POINT('',(0.,0.,0.));
#1288=CARTESIAN_POINT('',(0.,0.016211150214076,0.));
#1289=CARTESIAN_POINT('',(-0.0075,0.016211150214076,0.));
#1290=CARTESIAN_POINT('',(-0.0075,0.022,0.));
#1291=CARTESIAN_POINT('',(-0.0075,0.02,0.));
#1292=CARTESIAN_POINT('',(0.,0.022,0.));
#1293=CARTESIAN_POINT('',(0.0075,0.022,0.));
#1294=CARTESIAN_POINT('',(0.0075,0.016211150214076,0.));
#1295=CARTESIAN_POINT('',(0.0075,0.02,0.));
#1296=CARTESIAN_POINT('',(0.,0.02,0.));
#1297=CARTESIAN_POINT('',(0.00775,0.02,0.));
#1298=CARTESIAN_POINT('',(0.00775,0.02,0.));
#1299=CARTESIAN_POINT('',(0.008,0.02,0.));
#1300=CARTESIAN_POINT('',(0.,0.02,0.));
#1301=CARTESIAN_POINT('',(-0.008,0.02,0.));
#1302=CARTESIAN_POINT('',(0.00775,0.02,0.));
#1303=CARTESIAN_POINT('',(0.,0.016211150214076,0.));
#1304=CARTESIAN_POINT('',(0.,0.022,0.));
#1305=CARTESIAN_POINT('',(0.008,0.022,0.));
#1306=CARTESIAN_POINT('',(-0.008,0.022,0.));
#1307=CARTESIAN_POINT('',(-0.008,0.016211150214076,0.));
#1308=CARTESIAN_POINT('',(0.008,0.016211150214076,0.));
#1309=CARTESIAN_POINT('',(0.00775,0.022,0.));
#1310=CARTESIAN_POINT('',(0.00775,0.022,0.));
#1311=CARTESIAN_POINT('',(0.00775,0.022,0.));
#1312=CARTESIAN_POINT('',(0.,0.,0.));
#1313=CARTESIAN_POINT('',(0.,0.,0.));
#1314=CARTESIAN_POINT('',(0.,0.,0.));
#1315=CARTESIAN_POINT('',(0.,0.016211150214076,0.));
#1316=CARTESIAN_POINT('',(0.,0.018,0.));
#1317=CARTESIAN_POINT('',(0.008,0.018,0.));
#1318=CARTESIAN_POINT('',(-0.008,0.018,0.));
#1319=CARTESIAN_POINT('',(-0.008,0.016211150214076,0.));
#1320=CARTESIAN_POINT('',(-0.008,0.016,0.));
#1321=CARTESIAN_POINT('',(0.,0.016,0.));
#1322=CARTESIAN_POINT('',(0.008,0.016,0.));
#1323=CARTESIAN_POINT('',(0.008,0.016211150214076,0.));
#1324=CARTESIAN_POINT('',(0.00775,0.016,0.));
#1325=CARTESIAN_POINT('',(0.00775,0.016,0.));
#1326=CARTESIAN_POINT('',(0.0075,0.016,0.));
#1327=CARTESIAN_POINT('',(0.00775,0.016,0.));
#1328=CARTESIAN_POINT('',(-0.0075,0.016,0.));
#1329=CARTESIAN_POINT('',(0.,0.016,0.));
#1330=CARTESIAN_POINT('',(0.,0.016211150214076,0.));
#1331=CARTESIAN_POINT('',(-0.0075,0.016211150214076,0.));
#1332=CARTESIAN_POINT('',(-0.0075,0.018,0.));
#1333=CARTESIAN_POINT('',(0.,0.018,0.));
#1334=CARTESIAN_POINT('',(0.0075,0.018,0.));
#1335=CARTESIAN_POINT('',(0.0075,0.016211150214076,0.));
#1336=CARTESIAN_POINT('',(0.00775,0.018,0.));
#1337=CARTESIAN_POINT('',(0.00775,0.018,0.));
#1338=CARTESIAN_POINT('',(0.00775,0.018,0.));
#1339=CARTESIAN_POINT('',(0.,0.,0.));
#1340=CARTESIAN_POINT('',(0.,0.,0.));
#1341=CARTESIAN_POINT('',(0.,0.,0.));
#1342=CARTESIAN_POINT('',(0.00692820323027551,0.00932179676972449,0.004));
#1343=CARTESIAN_POINT('',(0.00692820323027551,0.00987943152056517,0.00446791111376205));
#1344=CARTESIAN_POINT('',(-0.00558885243344169,0.00987943152056517,0.00446791111376205));
#1345=CARTESIAN_POINT('',(0.00558885243344169,0.00987943152056517,0.00446791111376205));
#1346=CARTESIAN_POINT('',(0.,0.00592418672510846,0.00114906666467847));
#1347=CARTESIAN_POINT('',(0.00692820323027551,0.00859385630119209,0.006));
#1348=CARTESIAN_POINT('',(-0.00558885243344169,0.00987943152056517,0.00446791111376205));
#1349=CARTESIAN_POINT('',(-0.00586517099095784,0.00956255196593442,0.00420201759634376));
#1350=CARTESIAN_POINT('',(-0.006,0.00909187723093686,0.004));
#1351=CARTESIAN_POINT('',(-0.006,0.00859385630119209,0.004));
#1352=CARTESIAN_POINT('',(-0.006,0.00859385630119209,0.004));
#1353=CARTESIAN_POINT('',(-0.00692820323027551,0.00859385630119209,0.004));
#1354=CARTESIAN_POINT('',(0.006,0.00859385630119209,0.004));
#1355=CARTESIAN_POINT('',(0.006,0.00859385630119209,0.004));
#1356=CARTESIAN_POINT('',(0.006,0.00909191382285864,0.004));
#1357=CARTESIAN_POINT('',(0.0058649950897928,0.00956275368775628,0.00420218686105008));
#1358=CARTESIAN_POINT('',(0.00558885243344169,0.00987943152056517,0.00446791111376205));
#1359=CARTESIAN_POINT('',(0.,0.005375,0.004));
#1360=CARTESIAN_POINT('',(-0.006,0.,0.004));
#1361=CARTESIAN_POINT('',(-0.006,0.0044,0.004));
#1362=CARTESIAN_POINT('',(0.006,0.0044,0.004));
#1363=CARTESIAN_POINT('',(0.006,0.0044,0.004));
#1364=CARTESIAN_POINT('',(0.006,0.00859385630119209,0.004));
#1365=CARTESIAN_POINT('',(0.00692820323027551,0.0106073719890976,0.00246791111376205));
#1366=CARTESIAN_POINT('',(0.,0.00766623005306848,0.));
#1367=CARTESIAN_POINT('',(0.00488723973289885,0.0106728729244999,0.00252287292449993));
#1368=CARTESIAN_POINT('',(-0.00488723973289885,0.0106728729244999,0.00252287292449993));
#1369=CARTESIAN_POINT('',(0.00692820323027551,0.0106728729244999,0.00252287292449993));
#1370=CARTESIAN_POINT('',(0.,0.01015,0.002));
#1371=CARTESIAN_POINT('',(0.,0.00815,0.));
#1372=CARTESIAN_POINT('',(-0.0051234753829798,0.01015,0.002));
#1373=CARTESIAN_POINT('',(0.,0.00815,0.));
#1374=CARTESIAN_POINT('',(0.0051234753829798,0.01015,0.002));
#1375=CARTESIAN_POINT('',(0.,0.01015,0.002));
#1376=CARTESIAN_POINT('',(0.006,0.015,0.0025));
#1377=CARTESIAN_POINT('',(0.006,0.0044,0.0025));
#1378=CARTESIAN_POINT('',(0.00738461538461538,0.0044,0.00307692307692308));
#1379=CARTESIAN_POINT('',(0.00738461538461538,0.015,0.00307692307692308));
#1380=CARTESIAN_POINT('',(0.00738461538461538,0.00859385630119209,0.00307692307692308));
#1381=CARTESIAN_POINT('',(0.006,0.00859385630119209,0.0025));
#1382=CARTESIAN_POINT('',(0.00558885243344169,0.00987943152056517,0.00446791111376205));
#1383=CARTESIAN_POINT('',(0.00651596194150238,0.0101505235529621,0.0046953843381614));
#1384=CARTESIAN_POINT('',(0.00687858761038977,0.010843612935095,0.00408473162964133));
#1385=CARTESIAN_POINT('',(0.00588750790454169,0.0095369361725067,0.00418052339352625));
#1386=CARTESIAN_POINT('',(0.00685305706963074,0.00974488424890332,0.00425226189758296));
#1387=CARTESIAN_POINT('',(0.00724616359898748,0.0102442460784687,0.00346574270447002));
#1388=CARTESIAN_POINT('',(0.00599999999843437,0.00907238021064176,0.004));
#1389=CARTESIAN_POINT('',(0.00699999999805362,0.00917207268676909,0.00400000000304913));
#1390=CARTESIAN_POINT('',(0.00738461538267965,0.009431273142731,0.00307692308156885));
#1391=CARTESIAN_POINT('',(0.006,0.00859385630119209,0.004));
#1392=CARTESIAN_POINT('',(0.007,0.00859385630119209,0.004));
#1393=CARTESIAN_POINT('',(0.00738461538461538,0.00859385630119209,0.00307692307692308));
#1394=CARTESIAN_POINT('',(0.00687858761038977,0.010843612935095,0.00408473162964133));
#1395=CARTESIAN_POINT('',(0.00722166618977935,0.0102841913913296,0.00350699573912298));
#1396=CARTESIAN_POINT('',(0.00738461538461538,0.00947144820829733,0.00307692307692308));
#1397=CARTESIAN_POINT('',(0.00738461538461538,0.00859385630119209,0.00307692307692308));
#1398=CARTESIAN_POINT('',(0.00687858761038977,0.010843612935095,0.00408473162964133));
#1399=CARTESIAN_POINT('',(0.00558885243344169,0.010843612935095,0.00331884444908358));
#1400=CARTESIAN_POINT('',(0.00687858761038978,0.010843612935095,0.00408473162964133));
#1401=CARTESIAN_POINT('',(0.00651596194150239,0.0101505235529621,0.0046953843381614));
#1402=CARTESIAN_POINT('',(0.0055888524334417,0.00987943152056516,0.00446791111376204));
#1403=CARTESIAN_POINT('',(0.00617402327845898,0.0119924706310553,0.00527120063758624));
#1404=CARTESIAN_POINT('',(0.00580198051411722,0.0113086918116267,0.00566720289685746));
#1405=CARTESIAN_POINT('',(0.00501639391374466,0.0110282892165252,0.00543191718271732));
#1406=CARTESIAN_POINT('',(0.00413811702783779,0.0139275589756575,0.00726963991912655));
#1407=CARTESIAN_POINT('',(0.00387346996327289,0.0133242296432071,0.00735843994794685));
#1408=CARTESIAN_POINT('',(0.00336222008511971,0.0129633775611278,0.00705564909896882));
#1409=CARTESIAN_POINT('',(6.28753859874478E-17,0.014988370249422,0.00836518004043681));
#1410=CARTESIAN_POINT('',(-6.41047260089895E-16,0.0144600245285149,0.00831148501730729));
#1411=CARTESIAN_POINT('',(-3.47653596615833E-16,0.0140241888348922,0.00794577544753321));
#1412=CARTESIAN_POINT('',(-0.00413811702783803,0.0139275589756581,0.00726963991912619));
#1413=CARTESIAN_POINT('',(-0.00387346996327105,0.0133242296432046,0.0073584399479474));
#1414=CARTESIAN_POINT('',(-0.00336222008511832,0.0129633775611282,0.00705564909896911));
#1415=CARTESIAN_POINT('',(-0.00617402327845848,0.0119924706310539,0.00527120063758707));
#1416=CARTESIAN_POINT('',(-0.00580198051411985,0.0113086918116337,0.00566720289685696));
#1417=CARTESIAN_POINT('',(-0.00501639391374745,0.0110282892165244,0.00543191718271663));
#1418=CARTESIAN_POINT('',(-0.00687858761038978,0.010843612935095,0.00408473162964133));
#1419=CARTESIAN_POINT('',(-0.00651596194150239,0.0101505235529621,0.0046953843381614));
#1420=CARTESIAN_POINT('',(-0.00558885243344169,0.00987943152056516,0.00446791111376205));
#1421=CARTESIAN_POINT('',(0.,0.00688836813963827,0.));
#1422=CARTESIAN_POINT('',(-0.00687858761038977,0.010843612935095,0.00408473162964133));
#1423=CARTESIAN_POINT('',(-0.00558885243344169,0.010843612935095,0.00331884444908358));
#1424=CARTESIAN_POINT('',(-0.006,0.00859385630119209,0.004));
#1425=CARTESIAN_POINT('',(-0.007,0.00859385630119209,0.004));
#1426=CARTESIAN_POINT('',(-0.00738461538461538,0.00859385630119209,0.00307692307692308));
#1427=CARTESIAN_POINT('',(-0.00599999999478614,0.00907239517579148,0.004));
#1428=CARTESIAN_POINT('',(-0.00699999999351534,0.00917209076957978,0.00400000001014227));
#1429=CARTESIAN_POINT('',(-0.00738461537818776,0.00943129933174175,0.00307692309234939));
#1430=CARTESIAN_POINT('',(-0.00588753867163894,0.00953690089627994,0.00418049379325738));
#1431=CARTESIAN_POINT('',(-0.00685309162085484,0.00974484268419044,0.00425221648130254));
#1432=CARTESIAN_POINT('',(-0.00724620146370569,0.01024418435009,0.00346567894121574));
#1433=CARTESIAN_POINT('',(-0.00558885243344169,0.00987943152056517,0.00446791111376205));
#1434=CARTESIAN_POINT('',(-0.00651596194150238,0.0101505235529621,0.0046953843381614));
#1435=CARTESIAN_POINT('',(-0.00687858761038977,0.010843612935095,0.00408473162964133));
#1436=CARTESIAN_POINT('',(-0.00738461538461538,0.00859385630119209,0.00307692307692308));
#1437=CARTESIAN_POINT('',(-0.00738461538461538,0.00946991308842661,0.00307692307692308));
#1438=CARTESIAN_POINT('',(-0.00722137808990646,0.0102846611649772,0.00350748089222382));
#1439=CARTESIAN_POINT('',(-0.00687858761038977,0.010843612935095,0.00408473162964133));
#1440=CARTESIAN_POINT('',(-0.00738461538461538,0.00859385630119209,0.00307692307692308));
#1441=CARTESIAN_POINT('',(-0.006,0.00859385630119209,0.0025));
#1442=CARTESIAN_POINT('',(-0.006,0.015,0.0025));
#1443=CARTESIAN_POINT('',(-0.00738461538461538,0.015,0.00307692307692308));
#1444=CARTESIAN_POINT('',(-0.00738461538461538,0.0044,0.00307692307692308));
#1445=CARTESIAN_POINT('',(-0.006,0.0044,0.0025));
#1446=CARTESIAN_POINT('',(0.,0.0044,0.004));
#1447=CARTESIAN_POINT('',(-0.006,0.0044,0.004));
#1448=CARTESIAN_POINT('',(-0.006,0.004,0.0036));
#1449=CARTESIAN_POINT('',(-0.006,0.004,0.0036));
#1450=CARTESIAN_POINT('',(0.006,0.004,0.0036));
#1451=CARTESIAN_POINT('',(0.006,0.0044,0.004));
#1452=CARTESIAN_POINT('',(-0.006,0.004,0.0025));
#1453=CARTESIAN_POINT('',(-0.00738461538461538,0.0044,0.00307692307692308));
#1454=CARTESIAN_POINT('',(-0.00701538461538461,0.004,0.00292307692307692));
#1455=CARTESIAN_POINT('',(-0.006,0.004,0.0025));
#1456=CARTESIAN_POINT('',(0.006,0.004,0.0025));
#1457=CARTESIAN_POINT('',(0.006,0.004,0.0025));
#1458=CARTESIAN_POINT('',(0.00701538461538461,0.004,0.00292307692307692));
#1459=CARTESIAN_POINT('',(0.00738461538461538,0.0044,0.00307692307692308));
#1460=CARTESIAN_POINT('',(0.,0.00525,0.002));
#1461=CARTESIAN_POINT('',(0.0051234753829798,0.015,0.002));
#1462=CARTESIAN_POINT('',(0.0051234753829798,0.0118765246170202,0.002));
#1463=CARTESIAN_POINT('',(0.00561202406330767,0.0113879759366923,0.002));
#1464=CARTESIAN_POINT('',(0.00625,0.01075,0.002));
#1465=CARTESIAN_POINT('',(0.00625,0.0035,0.002));
#1466=CARTESIAN_POINT('',(0.00625,0.004,0.002));
#1467=CARTESIAN_POINT('',(-0.003125,0.004,0.002));
#1468=CARTESIAN_POINT('',(-0.00625,0.004,0.002));
#1469=CARTESIAN_POINT('',(-0.00625,0.0035,0.002));
#1470=CARTESIAN_POINT('',(-0.00625,0.01075,0.002));
#1471=CARTESIAN_POINT('',(-0.00561202406330767,0.0113879759366923,0.002));
#1472=CARTESIAN_POINT('',(-0.0051234753829798,0.0118765246170202,0.002));
#1473=CARTESIAN_POINT('',(-0.0051234753829798,0.015,0.002));
#1474=CARTESIAN_POINT('',(0.00561202406330767,0.0113879759366923,0.002002));
#1475=CARTESIAN_POINT('',(0.,0.017,0.));
#1476=CARTESIAN_POINT('',(0.0055,0.0115,0.));
#1477=CARTESIAN_POINT('',(0.00561202406330767,0.0113879759366923,0.));
#1478=CARTESIAN_POINT('',(0.00625,0.01075,0.));
#1479=CARTESIAN_POINT('',(0.00625,0.01075,0.));
#1480=CARTESIAN_POINT('',(-0.00561202406330767,0.0113879759366923,0.002002));
#1481=CARTESIAN_POINT('',(-0.00625,0.01075,0.));
#1482=CARTESIAN_POINT('',(-0.00625,0.01075,0.));
#1483=CARTESIAN_POINT('',(-0.00561202406330767,0.0113879759366923,0.));
#1484=CARTESIAN_POINT('',(-0.0055,0.0115,0.));
#1485=CARTESIAN_POINT('',(0.,0.017,0.));
#1486=CARTESIAN_POINT('',(0.,0.0044,0.));
#1487=CARTESIAN_POINT('',(0.,-0.0036,0.));
#1488=CARTESIAN_POINT('',(0.008,0.0044,0.));
#1489=CARTESIAN_POINT('',(0.0076,0.004,0.));
#1490=CARTESIAN_POINT('',(0.,0.0044,0.));
#1491=CARTESIAN_POINT('',(0.,0.004,0.));
#1492=CARTESIAN_POINT('',(0.,0.0044,0.));
#1493=CARTESIAN_POINT('',(0.,-0.0036,0.));
#1494=CARTESIAN_POINT('',(-0.0076,0.004,0.));
#1495=CARTESIAN_POINT('',(-0.008,0.0044,0.));
#1496=CARTESIAN_POINT('',(0.,0.004,0.));
#1497=CARTESIAN_POINT('',(0.,0.0044,0.));
#1498=CARTESIAN_POINT('',(0.00675,0.004,0.));
#1499=CARTESIAN_POINT('',(0.00675,0.004,0.));
#1500=CARTESIAN_POINT('',(-0.00625,0.004,0.));
#1501=CARTESIAN_POINT('',(-0.00625,0.004,-0.002));
#1502=CARTESIAN_POINT('',(0.00625,0.004,-0.002));
#1503=CARTESIAN_POINT('',(0.00625,0.004,0.));
#1504=CARTESIAN_POINT('',(0.00675,0.004,0.));
#1505=CARTESIAN_POINT('',(-0.00625,0.0035,-0.002));
#1506=CARTESIAN_POINT('',(-0.00625,0.0035,0.));
#1507=CARTESIAN_POINT('',(0.00625,0.0035,-0.002));
#1508=CARTESIAN_POINT('',(0.00625,0.0035,0.));
#1509=CARTESIAN_POINT('',(0.00775,0.016,0.));
#1510=CARTESIAN_POINT('',(0.,0.016,0.));
#1511=CARTESIAN_POINT('',(0.008,0.016,0.));
#1512=CARTESIAN_POINT('',(-0.008,0.016,0.));
#1513=CARTESIAN_POINT('',(0.00775,0.016,0.));
#1514=CARTESIAN_POINT('',(0.0075,0.016,0.));
#1515=CARTESIAN_POINT('',(0.,0.016,0.));
#1516=CARTESIAN_POINT('',(-0.0075,0.016,0.));
#1517=CARTESIAN_POINT('',(0.00775,0.016,0.));
#1518=CARTESIAN_POINT('',(0.,0.016211150214076,0.));
#1519=CARTESIAN_POINT('',(0.,0.018,0.));
#1520=CARTESIAN_POINT('',(0.0075,0.018,0.));
#1521=CARTESIAN_POINT('',(-0.0075,0.018,0.));
#1522=CARTESIAN_POINT('',(-0.0075,0.016211150214076,0.));
#1523=CARTESIAN_POINT('',(0.0075,0.016211150214076,0.));
#1524=CARTESIAN_POINT('',(0.00775,0.018,0.));
#1525=CARTESIAN_POINT('',(0.00775,0.018,0.));
#1526=CARTESIAN_POINT('',(0.008,0.018,0.));
#1527=CARTESIAN_POINT('',(0.,0.018,0.));
#1528=CARTESIAN_POINT('',(-0.008,0.018,0.));
#1529=CARTESIAN_POINT('',(0.00775,0.018,0.));
#1530=CARTESIAN_POINT('',(0.,0.015,0.));
#1531=CARTESIAN_POINT('',(0.,0.02,0.));
#1532=CARTESIAN_POINT('',(0.008,0.02,0.));
#1533=CARTESIAN_POINT('',(-0.008,0.02,0.));
#1534=CARTESIAN_POINT('',(-0.008,0.015,0.));
#1535=CARTESIAN_POINT('',(0.008,0.015,0.));
#1536=CARTESIAN_POINT('',(0.00775,0.02,0.));
#1537=CARTESIAN_POINT('',(0.00775,0.02,0.));
#1538=CARTESIAN_POINT('',(0.0075,0.02,0.));
#1539=CARTESIAN_POINT('',(0.,0.02,0.));
#1540=CARTESIAN_POINT('',(-0.0075,0.02,0.));
#1541=CARTESIAN_POINT('',(0.00775,0.02,0.));
#1542=CARTESIAN_POINT('',(0.00775,0.022,0.));
#1543=CARTESIAN_POINT('',(0.00775,0.022,0.));
#1544=CARTESIAN_POINT('',(0.008,0.022,0.));
#1545=CARTESIAN_POINT('',(0.0075,0.022,0.));
#1546=CARTESIAN_POINT('',(0.,0.022,0.));
#1547=CARTESIAN_POINT('',(-0.008,0.022,0.));
#1548=CARTESIAN_POINT('',(0.00775,0.022,0.));
#1549=CARTESIAN_POINT('',(-0.0075,0.022,0.));
#1550=CARTESIAN_POINT('',(0.,0.022,0.));
#1551=CARTESIAN_POINT('',(0.,0.016211150214076,0.));
#1552=CARTESIAN_POINT('',(-0.0075,0.016211150214076,0.));
#1553=CARTESIAN_POINT('',(0.0075,0.016211150214076,0.));
#1554=CARTESIAN_POINT('',(0.,0.015,0.));
#1555=CARTESIAN_POINT('',(-0.008,0.015,0.));
#1556=CARTESIAN_POINT('',(0.008,0.015,0.));
#1557=CARTESIAN_POINT('',(0.,0.025,0.));
#1558=CARTESIAN_POINT('',(0.,0.025,0.));
#1559=CARTESIAN_POINT('',(0.007,0.025,0.));
#1560=CARTESIAN_POINT('',(-0.007,0.025,0.));
#1561=CARTESIAN_POINT('',(0.,0.032,0.));
#1562=CARTESIAN_POINT('',(-0.008,0.024,0.));
#1563=CARTESIAN_POINT('',(0.,0.024,0.));
#1564=CARTESIAN_POINT('',(0.008,0.024,0.));
#1565=CARTESIAN_POINT('',(0.,0.032,0.));
#1566=CARTESIAN_POINT('',(0.00525,0.027,0.));
#1567=CARTESIAN_POINT('',(0.,0.027,0.));
#1568=CARTESIAN_POINT('',(0.0055,0.027,0.));
#1569=CARTESIAN_POINT('',(-0.0055,0.027,0.));
#1570=CARTESIAN_POINT('',(0.00525,0.027,0.));
#1571=CARTESIAN_POINT('',(-0.005,0.027,0.));
#1572=CARTESIAN_POINT('',(0.,0.027,0.));
#1573=CARTESIAN_POINT('',(0.005,0.027,0.));
#1574=CARTESIAN_POINT('',(0.00525,0.027,0.));
#1575=CARTESIAN_POINT('',(0.,0.015,0.));
#1576=CARTESIAN_POINT('',(-0.005,0.015,0.));
#1577=CARTESIAN_POINT('',(-0.005,0.03,0.));
#1578=CARTESIAN_POINT('',(0.,0.03,0.));
#1579=CARTESIAN_POINT('',(0.005,0.03,0.));
#1580=CARTESIAN_POINT('',(0.005,0.015,0.));
#1581=CARTESIAN_POINT('',(0.,0.0296,0.));
#1582=CARTESIAN_POINT('',(0.,0.0366,0.));
#1583=CARTESIAN_POINT('',(-0.007,0.0296,0.));
#1584=CARTESIAN_POINT('',(-0.0066,0.03,0.));
#1585=CARTESIAN_POINT('',(0.,0.0296,0.));
#1586=CARTESIAN_POINT('',(0.007,0.0296,0.));
#1587=CARTESIAN_POINT('',(0.,0.0366,0.));
#1588=CARTESIAN_POINT('',(0.0066,0.03,0.));
#1589=CARTESIAN_POINT('',(0.,0.03,0.));
#1590=CARTESIAN_POINT('',(0.006,0.03,0.));
#1591=CARTESIAN_POINT('',(0.006,0.03,0.));
#1592=CARTESIAN_POINT('',(0.006,0.03,0.));
#1593=CARTESIAN_POINT('',(0.,0.015,0.));
#1594=CARTESIAN_POINT('',(-0.007,0.015,0.));
#1595=CARTESIAN_POINT('',(0.007,0.015,0.));
#1596=CARTESIAN_POINT('',(0.,0.015,0.));
#1597=CARTESIAN_POINT('',(-0.0055,0.015,0.));
#1598=CARTESIAN_POINT('',(0.0055,0.015,0.));
#1599=CARTESIAN_POINT('',(0.,0.015,0.));
#1600=CARTESIAN_POINT('',(-0.008,0.015,0.));
#1601=CARTESIAN_POINT('',(0.008,0.015,0.));
#1602=CARTESIAN_POINT('',(0.,0.,0.));
#1603=CARTESIAN_POINT('',(0.,0.,0.));
#1604=MECHANICAL_DESIGN_GEOMETRIC_PRESENTATION_REPRESENTATION('',(#894),
#1607);
#1605=MECHANICAL_DESIGN_GEOMETRIC_PRESENTATION_REPRESENTATION('',(#895),
#1608);
#1606=MECHANICAL_DESIGN_GEOMETRIC_PRESENTATION_REPRESENTATION('',(#896),
#1609);
#1607=(
GEOMETRIC_REPRESENTATION_CONTEXT(3)
GLOBAL_UNCERTAINTY_ASSIGNED_CONTEXT((#1610))
GLOBAL_UNIT_ASSIGNED_CONTEXT((#1619,#1616,#1613))
REPRESENTATION_CONTEXT('Part 3','TOP_LEVEL_ASSEMBLY_PART')
);
#1608=(
GEOMETRIC_REPRESENTATION_CONTEXT(3)
GLOBAL_UNCERTAINTY_ASSIGNED_CONTEXT((#1611))
GLOBAL_UNIT_ASSIGNED_CONTEXT((#1620,#1617,#1614))
REPRESENTATION_CONTEXT('Part 5','TOP_LEVEL_ASSEMBLY_PART')
);
#1609=(
GEOMETRIC_REPRESENTATION_CONTEXT(3)
GLOBAL_UNCERTAINTY_ASSIGNED_CONTEXT((#1612))
GLOBAL_UNIT_ASSIGNED_CONTEXT((#1621,#1618,#1615))
REPRESENTATION_CONTEXT('Part 2','TOP_LEVEL_ASSEMBLY_PART')
);
#1610=UNCERTAINTY_MEASURE_WITH_UNIT(LENGTH_MEASURE(1.E-8),#1619,
'DISTANCE_ACCURACY_VALUE','Maximum Tolerance applied to model');
#1611=UNCERTAINTY_MEASURE_WITH_UNIT(LENGTH_MEASURE(1.E-8),#1620,
'DISTANCE_ACCURACY_VALUE','Maximum Tolerance applied to model');
#1612=UNCERTAINTY_MEASURE_WITH_UNIT(LENGTH_MEASURE(2.E-5),#1621,
'DISTANCE_ACCURACY_VALUE','Maximum Tolerance applied to model');
#1613=(
NAMED_UNIT(*)
SI_UNIT($,.STERADIAN.)
SOLID_ANGLE_UNIT()
);
#1614=(
NAMED_UNIT(*)
SI_UNIT($,.STERADIAN.)
SOLID_ANGLE_UNIT()
);
#1615=(
NAMED_UNIT(*)
SI_UNIT($,.STERADIAN.)
SOLID_ANGLE_UNIT()
);
#1616=(
NAMED_UNIT(*)
PLANE_ANGLE_UNIT()
SI_UNIT($,.RADIAN.)
);
#1617=(
NAMED_UNIT(*)
PLANE_ANGLE_UNIT()
SI_UNIT($,.RADIAN.)
);
#1618=(
NAMED_UNIT(*)
PLANE_ANGLE_UNIT()
SI_UNIT($,.RADIAN.)
);
#1619=(
LENGTH_UNIT()
NAMED_UNIT(*)
SI_UNIT($,.METRE.)
);
#1620=(
LENGTH_UNIT()
NAMED_UNIT(*)
SI_UNIT($,.METRE.)
);
#1621=(
LENGTH_UNIT()
NAMED_UNIT(*)
SI_UNIT($,.METRE.)
);
#1622=PRODUCT_DEFINITION_SHAPE('','',#1625);
#1623=PRODUCT_DEFINITION_SHAPE('','',#1626);
#1624=PRODUCT_DEFINITION_SHAPE('','',#1627);
#1625=PRODUCT_DEFINITION('','',#1631,#1628);
#1626=PRODUCT_DEFINITION('','',#1632,#1629);
#1627=PRODUCT_DEFINITION('','',#1633,#1630);
#1628=PRODUCT_DEFINITION_CONTEXT('',#1649,'design');
#1629=PRODUCT_DEFINITION_CONTEXT('',#1650,'design');
#1630=PRODUCT_DEFINITION_CONTEXT('',#1651,'design');
#1631=PRODUCT_DEFINITION_FORMATION_WITH_SPECIFIED_SOURCE('','',#1637,
 .NOT_KNOWN.);
#1632=PRODUCT_DEFINITION_FORMATION_WITH_SPECIFIED_SOURCE('','',#1638,
 .NOT_KNOWN.);
#1633=PRODUCT_DEFINITION_FORMATION_WITH_SPECIFIED_SOURCE('','',#1639,
 .NOT_KNOWN.);
#1634=PRODUCT_RELATED_PRODUCT_CATEGORY('','',(#1637));
#1635=PRODUCT_RELATED_PRODUCT_CATEGORY('','',(#1638));
#1636=PRODUCT_RELATED_PRODUCT_CATEGORY('','',(#1639));
#1637=PRODUCT('Part 3','Part 3','Part 3',(#1643));
#1638=PRODUCT('Part 5','Part 5','Part 5',(#1644));
#1639=PRODUCT('Part 2','Part 2','Part 2',(#1645));
#1640=PRODUCT_CATEGORY('','');
#1641=PRODUCT_CATEGORY('','');
#1642=PRODUCT_CATEGORY('','');
#1643=PRODUCT_CONTEXT('',#1649,'mechanical');
#1644=PRODUCT_CONTEXT('',#1650,'mechanical');
#1645=PRODUCT_CONTEXT('',#1651,'mechanical');
#1646=APPLICATION_PROTOCOL_DEFINITION('international standard',
'ap242_managed_model_based_3d_engineering',2020,#1649);
#1647=APPLICATION_PROTOCOL_DEFINITION('international standard',
'ap242_managed_model_based_3d_engineering',2020,#1650);
#1648=APPLICATION_PROTOCOL_DEFINITION('international standard',
'ap242_managed_model_based_3d_engineering',2020,#1651);
#1649=APPLICATION_CONTEXT('managed model based 3d engineering');
#1650=APPLICATION_CONTEXT('managed model based 3d engineering');
#1651=APPLICATION_CONTEXT('managed model based 3d engineering');
ENDSEC;
END-ISO-10303-21;
