ISO-10303-21;
HEADER;
/* Generated by software containing ST-Developer
 * from STEP Tools, Inc. (www.steptools.com) 
 */
/* OPTION: using custom renumber hook */

FILE_DESCRIPTION(
/* description */ ('STEP AP242 Edition 2',
'CAx-IF Rec.Pracs.---Representation and Presentation of Product Manufa
cturing Information (PMI)---4.0---2014-10-13',
'CAx-IF Rec.Pracs.---3D Tessellated Geometry---0.4---2014-09-14','2;1',
'CAx-IF Rec.Pracs.---User Defined Attributes---1.5---2016-08-15'),
/* implementation_level */ '2;1');

FILE_NAME(
/* name */ 'Connector_Cover_1',
/* time_stamp */ '2026-08-02T04:23:59Z',
/* author */ (''),
/* organization */ (''),
/* preprocessor_version */ 'ST-DEVELOPER v20',
/* originating_system */ 'ONSHAPE BY PTC INC, 1.218',
/* authorisation */ '  ');

FILE_SCHEMA (('AP242_MANAGED_MODEL_BASED_3D_ENGINEERING_MIM_LF { 1 0 10303 442 3 1 4 }'));
ENDSEC;

DATA;
#10=(
BOUNDED_SURFACE()
B_SPLINE_SURFACE(3,2,((#1240,#1241,#1242),(#1243,#1244,#1245),(#1246,#1247,
#1248),(#1249,#1250,#1251)),.UNSPECIFIED.,.F.,.F.,.F.)
B_SPLINE_SURFACE_WITH_KNOTS((4,4),(3,3),(-1.95156391047391E-18,0.00247698156902506),
(0.,1.),.PIECEWISE_BEZIER_KNOTS.)
GEOMETRIC_REPRESENTATION_ITEM()
RATIONAL_B_SPLINE_SURFACE(((1.,0.832050294337844,1.),(1.,0.832050294504873,
1.),(1.,0.838233302774411,1.),(1.,0.83400711801965,1.)))
REPRESENTATION_ITEM('')
SURFACE()
);
#11=(
BOUNDED_SURFACE()
B_SPLINE_SURFACE(3,2,((#1253,#1254,#1255),(#1256,#1257,#1258),(#1259,#1260,
#1261),(#1262,#1263,#1264),(#1265,#1266,#1267),(#1268,#1269,#1270),(#1271,
#1272,#1273)),.UNSPECIFIED.,.F.,.F.,.F.)
B_SPLINE_SURFACE_WITH_KNOTS((4,1,1,1,4),(3,3),(2.10666885476865,2.62413075417922,
3.14159265358979,3.65905455300037,4.17651645241094),(0.,1.),
 .UNSPECIFIED.)
GEOMETRIC_REPRESENTATION_ITEM()
RATIONAL_B_SPLINE_SURFACE(((1.,0.834007118019649,1.),(1.,0.868062882082242,
1.),(1.,0.921363055093001,1.),(1.,0.948857403632353,1.),(1.,0.921363055093039,
1.),(1.,0.868062882082154,1.),(1.,0.83400711801965,1.)))
REPRESENTATION_ITEM('')
SURFACE()
);
#12=(
BOUNDED_SURFACE()
B_SPLINE_SURFACE(3,2,((#1275,#1276,#1277),(#1278,#1279,#1280),(#1281,#1282,
#1283),(#1284,#1285,#1286)),.UNSPECIFIED.,.F.,.F.,.F.)
B_SPLINE_SURFACE_WITH_KNOTS((4,4),(3,3),(1.0842021724855E-18,0.00247649917024983),
(0.,1.),.PIECEWISE_BEZIER_KNOTS.)
GEOMETRIC_REPRESENTATION_ITEM()
RATIONAL_B_SPLINE_SURFACE(((1.,0.83400711801965,1.),(1.,0.838232867183746,
1.),(1.,0.832050294389257,1.),(1.,0.832050294337843,1.)))
REPRESENTATION_ITEM('')
SURFACE()
);
#13=CONICAL_SURFACE('',#781,0.007,0.785398163397449);
#14=CONICAL_SURFACE('',#789,0.008,0.785398163397446);
#15=CONICAL_SURFACE('',#790,0.008,0.785398163397446);
#16=CONICAL_SURFACE('',#791,0.007,0.785398163397444);
#17=CONICAL_SURFACE('',#813,0.0011,0.785398163397448);
#18=CONICAL_SURFACE('',#815,0.0011,0.785398163397448);
#19=B_SPLINE_CURVE_WITH_KNOTS('',3,(#1129,#1130,#1131,#1132),
 .UNSPECIFIED.,.F.,.F.,(4,4),(0.,0.00258629190396437),.UNSPECIFIED.);
#20=B_SPLINE_CURVE_WITH_KNOTS('',3,(#1136,#1137,#1138,#1139),
 .UNSPECIFIED.,.F.,.F.,(4,4),(0.,0.00258377655056935),.UNSPECIFIED.);
#21=B_SPLINE_CURVE_WITH_KNOTS('',3,(#1229,#1230,#1231,#1232),
 .UNSPECIFIED.,.F.,.F.,(4,4),(0.,0.00149161740252823),.UNSPECIFIED.);
#22=B_SPLINE_CURVE_WITH_KNOTS('',3,(#1233,#1234,#1235,#1236),
 .UNSPECIFIED.,.F.,.F.,(4,4),(0.,0.00149005516371659),.UNSPECIFIED.);
#23=ELLIPSE('',#762,0.00777817459305202,0.0055);
#24=ELLIPSE('',#763,0.00777817459305203,0.0055);
#25=ELLIPSE('',#764,0.00855648104773226,0.0055);
#26=ELLIPSE('',#765,0.00777817459305203,0.0055);
#27=ELLIPSE('',#766,0.00777817459305202,0.0055);
#28=ELLIPSE('',#779,0.0111358289958914,0.008);
#29=ELLIPSE('',#801,0.0101122048745927,0.0065);
#30=SHAPE_REPRESENTATION_RELATIONSHIP('','',#743,#32);
#31=SHAPE_REPRESENTATION_RELATIONSHIP('','',#744,#33);
#32=ADVANCED_BREP_SHAPE_REPRESENTATION('',(#739),#1300);
#33=ADVANCED_BREP_SHAPE_REPRESENTATION('',(#740),#1301);
#34=PLANE('',#749);
#35=PLANE('',#753);
#36=PLANE('',#754);
#37=PLANE('',#755);
#38=PLANE('',#770);
#39=PLANE('',#775);
#40=PLANE('',#782);
#41=PLANE('',#783);
#42=PLANE('',#784);
#43=PLANE('',#792);
#44=PLANE('',#793);
#45=PLANE('',#794);
#46=PLANE('',#798);
#47=PLANE('',#799);
#48=PLANE('',#800);
#49=PLANE('',#802);
#50=PLANE('',#803);
#51=PLANE('',#814);
#52=PLANE('',#816);
#53=PLANE('',#817);
#54=PLANE('',#818);
#55=CIRCLE('',#747,0.008);
#56=CIRCLE('',#748,0.008);
#57=CIRCLE('',#750,0.0075);
#58=CIRCLE('',#752,0.0075);
#59=CIRCLE('',#758,0.008);
#60=CIRCLE('',#759,0.008);
#61=CIRCLE('',#761,0.0055);
#62=CIRCLE('',#768,0.007);
#63=CIRCLE('',#769,0.007);
#64=CIRCLE('',#771,0.0066);
#65=CIRCLE('',#772,0.005);
#66=CIRCLE('',#774,0.005);
#67=CIRCLE('',#777,0.008);
#68=CIRCLE('',#778,0.008);
#69=CIRCLE('',#780,0.008);
#70=CIRCLE('',#785,0.0076);
#71=CIRCLE('',#786,0.0011);
#72=CIRCLE('',#787,0.0011);
#73=CIRCLE('',#788,0.0076);
#74=CIRCLE('',#795,0.0075);
#75=CIRCLE('',#797,0.0075);
#76=CIRCLE('',#806,0.0015);
#77=CIRCLE('',#807,0.0015);
#78=CIRCLE('',#808,0.0015);
#79=CIRCLE('',#809,0.0015);
#80=CIRCLE('',#810,0.0015);
#81=CIRCLE('',#812,0.0015);
#82=ORIENTED_EDGE('',*,*,#288,.F.);
#83=ORIENTED_EDGE('',*,*,#289,.T.);
#84=ORIENTED_EDGE('',*,*,#290,.F.);
#85=ORIENTED_EDGE('',*,*,#291,.F.);
#86=ORIENTED_EDGE('',*,*,#292,.F.);
#87=ORIENTED_EDGE('',*,*,#289,.F.);
#88=ORIENTED_EDGE('',*,*,#293,.F.);
#89=ORIENTED_EDGE('',*,*,#294,.T.);
#90=ORIENTED_EDGE('',*,*,#294,.F.);
#91=ORIENTED_EDGE('',*,*,#295,.T.);
#92=ORIENTED_EDGE('',*,*,#296,.T.);
#93=ORIENTED_EDGE('',*,*,#297,.T.);
#94=ORIENTED_EDGE('',*,*,#291,.T.);
#95=ORIENTED_EDGE('',*,*,#298,.T.);
#96=ORIENTED_EDGE('',*,*,#296,.F.);
#97=ORIENTED_EDGE('',*,*,#299,.T.);
#98=ORIENTED_EDGE('',*,*,#293,.T.);
#99=ORIENTED_EDGE('',*,*,#288,.T.);
#100=ORIENTED_EDGE('',*,*,#299,.F.);
#101=ORIENTED_EDGE('',*,*,#295,.F.);
#102=ORIENTED_EDGE('',*,*,#298,.F.);
#103=ORIENTED_EDGE('',*,*,#290,.T.);
#104=ORIENTED_EDGE('',*,*,#292,.T.);
#105=ORIENTED_EDGE('',*,*,#297,.F.);
#106=ORIENTED_EDGE('',*,*,#300,.F.);
#107=ORIENTED_EDGE('',*,*,#301,.T.);
#108=ORIENTED_EDGE('',*,*,#302,.F.);
#109=ORIENTED_EDGE('',*,*,#303,.F.);
#110=ORIENTED_EDGE('',*,*,#304,.F.);
#111=ORIENTED_EDGE('',*,*,#305,.T.);
#112=ORIENTED_EDGE('',*,*,#306,.F.);
#113=ORIENTED_EDGE('',*,*,#307,.T.);
#114=ORIENTED_EDGE('',*,*,#308,.T.);
#115=ORIENTED_EDGE('',*,*,#309,.T.);
#116=ORIENTED_EDGE('',*,*,#310,.T.);
#117=ORIENTED_EDGE('',*,*,#311,.T.);
#118=ORIENTED_EDGE('',*,*,#312,.F.);
#119=ORIENTED_EDGE('',*,*,#313,.T.);
#120=ORIENTED_EDGE('',*,*,#314,.F.);
#121=ORIENTED_EDGE('',*,*,#315,.T.);
#122=ORIENTED_EDGE('',*,*,#316,.F.);
#123=ORIENTED_EDGE('',*,*,#317,.F.);
#124=ORIENTED_EDGE('',*,*,#318,.T.);
#125=ORIENTED_EDGE('',*,*,#319,.T.);
#126=ORIENTED_EDGE('',*,*,#320,.T.);
#127=ORIENTED_EDGE('',*,*,#321,.T.);
#128=ORIENTED_EDGE('',*,*,#320,.F.);
#129=ORIENTED_EDGE('',*,*,#322,.T.);
#130=ORIENTED_EDGE('',*,*,#323,.T.);
#131=ORIENTED_EDGE('',*,*,#324,.T.);
#132=ORIENTED_EDGE('',*,*,#325,.F.);
#133=ORIENTED_EDGE('',*,*,#304,.T.);
#134=ORIENTED_EDGE('',*,*,#326,.F.);
#135=ORIENTED_EDGE('',*,*,#323,.F.);
#136=ORIENTED_EDGE('',*,*,#327,.F.);
#137=ORIENTED_EDGE('',*,*,#328,.T.);
#138=ORIENTED_EDGE('',*,*,#329,.F.);
#139=ORIENTED_EDGE('',*,*,#330,.T.);
#140=ORIENTED_EDGE('',*,*,#331,.T.);
#141=ORIENTED_EDGE('',*,*,#332,.T.);
#142=ORIENTED_EDGE('',*,*,#333,.T.);
#143=ORIENTED_EDGE('',*,*,#334,.T.);
#144=ORIENTED_EDGE('',*,*,#335,.T.);
#145=ORIENTED_EDGE('',*,*,#336,.T.);
#146=ORIENTED_EDGE('',*,*,#337,.F.);
#147=ORIENTED_EDGE('',*,*,#317,.T.);
#148=ORIENTED_EDGE('',*,*,#338,.F.);
#149=ORIENTED_EDGE('',*,*,#301,.F.);
#150=ORIENTED_EDGE('',*,*,#339,.T.);
#151=ORIENTED_EDGE('',*,*,#340,.T.);
#152=ORIENTED_EDGE('',*,*,#341,.F.);
#153=ORIENTED_EDGE('',*,*,#342,.T.);
#154=ORIENTED_EDGE('',*,*,#343,.F.);
#155=ORIENTED_EDGE('',*,*,#344,.F.);
#156=ORIENTED_EDGE('',*,*,#345,.F.);
#157=ORIENTED_EDGE('',*,*,#346,.T.);
#158=ORIENTED_EDGE('',*,*,#347,.F.);
#159=ORIENTED_EDGE('',*,*,#348,.T.);
#160=ORIENTED_EDGE('',*,*,#349,.T.);
#161=ORIENTED_EDGE('',*,*,#350,.T.);
#162=ORIENTED_EDGE('',*,*,#351,.T.);
#163=ORIENTED_EDGE('',*,*,#352,.T.);
#164=ORIENTED_EDGE('',*,*,#353,.F.);
#165=ORIENTED_EDGE('',*,*,#339,.F.);
#166=ORIENTED_EDGE('',*,*,#354,.F.);
#167=ORIENTED_EDGE('',*,*,#344,.T.);
#168=ORIENTED_EDGE('',*,*,#348,.F.);
#169=ORIENTED_EDGE('',*,*,#355,.T.);
#170=ORIENTED_EDGE('',*,*,#336,.F.);
#171=ORIENTED_EDGE('',*,*,#356,.F.);
#172=ORIENTED_EDGE('',*,*,#330,.F.);
#173=ORIENTED_EDGE('',*,*,#357,.T.);
#174=ORIENTED_EDGE('',*,*,#352,.F.);
#175=ORIENTED_EDGE('',*,*,#358,.T.);
#176=ORIENTED_EDGE('',*,*,#315,.F.);
#177=ORIENTED_EDGE('',*,*,#359,.T.);
#178=ORIENTED_EDGE('',*,*,#318,.F.);
#179=ORIENTED_EDGE('',*,*,#360,.T.);
#180=ORIENTED_EDGE('',*,*,#361,.F.);
#181=ORIENTED_EDGE('',*,*,#346,.F.);
#182=ORIENTED_EDGE('',*,*,#362,.T.);
#183=ORIENTED_EDGE('',*,*,#306,.T.);
#184=ORIENTED_EDGE('',*,*,#363,.F.);
#185=ORIENTED_EDGE('',*,*,#312,.T.);
#186=ORIENTED_EDGE('',*,*,#364,.T.);
#187=ORIENTED_EDGE('',*,*,#341,.T.);
#188=ORIENTED_EDGE('',*,*,#303,.T.);
#189=ORIENTED_EDGE('',*,*,#365,.T.);
#190=ORIENTED_EDGE('',*,*,#366,.F.);
#191=ORIENTED_EDGE('',*,*,#367,.T.);
#192=ORIENTED_EDGE('',*,*,#368,.F.);
#193=ORIENTED_EDGE('',*,*,#366,.T.);
#194=ORIENTED_EDGE('',*,*,#369,.F.);
#195=ORIENTED_EDGE('',*,*,#370,.F.);
#196=ORIENTED_EDGE('',*,*,#371,.F.);
#197=ORIENTED_EDGE('',*,*,#328,.F.);
#198=ORIENTED_EDGE('',*,*,#372,.F.);
#199=ORIENTED_EDGE('',*,*,#370,.T.);
#200=ORIENTED_EDGE('',*,*,#373,.T.);
#201=ORIENTED_EDGE('',*,*,#374,.T.);
#202=ORIENTED_EDGE('',*,*,#375,.T.);
#203=ORIENTED_EDGE('',*,*,#376,.T.);
#204=ORIENTED_EDGE('',*,*,#377,.T.);
#205=ORIENTED_EDGE('',*,*,#378,.T.);
#206=ORIENTED_EDGE('',*,*,#311,.F.);
#207=ORIENTED_EDGE('',*,*,#379,.T.);
#208=ORIENTED_EDGE('',*,*,#307,.F.);
#209=ORIENTED_EDGE('',*,*,#362,.F.);
#210=ORIENTED_EDGE('',*,*,#345,.T.);
#211=ORIENTED_EDGE('',*,*,#354,.T.);
#212=ORIENTED_EDGE('',*,*,#342,.F.);
#213=ORIENTED_EDGE('',*,*,#364,.F.);
#214=ORIENTED_EDGE('',*,*,#309,.F.);
#215=ORIENTED_EDGE('',*,*,#380,.T.);
#216=ORIENTED_EDGE('',*,*,#376,.F.);
#217=ORIENTED_EDGE('',*,*,#381,.T.);
#218=ORIENTED_EDGE('',*,*,#377,.F.);
#219=ORIENTED_EDGE('',*,*,#382,.T.);
#220=ORIENTED_EDGE('',*,*,#331,.F.);
#221=ORIENTED_EDGE('',*,*,#383,.T.);
#222=ORIENTED_EDGE('',*,*,#373,.F.);
#223=ORIENTED_EDGE('',*,*,#384,.F.);
#224=ORIENTED_EDGE('',*,*,#384,.T.);
#225=ORIENTED_EDGE('',*,*,#382,.F.);
#226=ORIENTED_EDGE('',*,*,#385,.F.);
#227=ORIENTED_EDGE('',*,*,#332,.F.);
#228=ORIENTED_EDGE('',*,*,#385,.T.);
#229=ORIENTED_EDGE('',*,*,#378,.F.);
#230=ORIENTED_EDGE('',*,*,#386,.F.);
#231=ORIENTED_EDGE('',*,*,#333,.F.);
#232=ORIENTED_EDGE('',*,*,#386,.T.);
#233=ORIENTED_EDGE('',*,*,#381,.F.);
#234=ORIENTED_EDGE('',*,*,#387,.F.);
#235=ORIENTED_EDGE('',*,*,#334,.F.);
#236=ORIENTED_EDGE('',*,*,#375,.F.);
#237=ORIENTED_EDGE('',*,*,#388,.T.);
#238=ORIENTED_EDGE('',*,*,#335,.F.);
#239=ORIENTED_EDGE('',*,*,#387,.T.);
#240=ORIENTED_EDGE('',*,*,#356,.T.);
#241=ORIENTED_EDGE('',*,*,#388,.F.);
#242=ORIENTED_EDGE('',*,*,#389,.F.);
#243=ORIENTED_EDGE('',*,*,#349,.F.);
#244=ORIENTED_EDGE('',*,*,#389,.T.);
#245=ORIENTED_EDGE('',*,*,#374,.F.);
#246=ORIENTED_EDGE('',*,*,#390,.F.);
#247=ORIENTED_EDGE('',*,*,#350,.F.);
#248=ORIENTED_EDGE('',*,*,#390,.T.);
#249=ORIENTED_EDGE('',*,*,#383,.F.);
#250=ORIENTED_EDGE('',*,*,#358,.F.);
#251=ORIENTED_EDGE('',*,*,#351,.F.);
#252=ORIENTED_EDGE('',*,*,#308,.F.);
#253=ORIENTED_EDGE('',*,*,#379,.F.);
#254=ORIENTED_EDGE('',*,*,#310,.F.);
#255=ORIENTED_EDGE('',*,*,#380,.F.);
#256=ORIENTED_EDGE('',*,*,#322,.F.);
#257=ORIENTED_EDGE('',*,*,#319,.F.);
#258=ORIENTED_EDGE('',*,*,#359,.F.);
#259=ORIENTED_EDGE('',*,*,#314,.T.);
#260=ORIENTED_EDGE('',*,*,#337,.T.);
#261=ORIENTED_EDGE('',*,*,#300,.T.);
#262=ORIENTED_EDGE('',*,*,#367,.F.);
#263=ORIENTED_EDGE('',*,*,#368,.T.);
#264=ORIENTED_EDGE('',*,*,#372,.T.);
#265=ORIENTED_EDGE('',*,*,#327,.T.);
#266=ORIENTED_EDGE('',*,*,#355,.F.);
#267=ORIENTED_EDGE('',*,*,#347,.T.);
#268=ORIENTED_EDGE('',*,*,#343,.T.);
#269=ORIENTED_EDGE('',*,*,#361,.T.);
#270=ORIENTED_EDGE('',*,*,#305,.F.);
#271=ORIENTED_EDGE('',*,*,#325,.T.);
#272=ORIENTED_EDGE('',*,*,#324,.F.);
#273=ORIENTED_EDGE('',*,*,#326,.T.);
#274=ORIENTED_EDGE('',*,*,#313,.F.);
#275=ORIENTED_EDGE('',*,*,#363,.T.);
#276=ORIENTED_EDGE('',*,*,#340,.F.);
#277=ORIENTED_EDGE('',*,*,#353,.T.);
#278=ORIENTED_EDGE('',*,*,#357,.F.);
#279=ORIENTED_EDGE('',*,*,#329,.T.);
#280=ORIENTED_EDGE('',*,*,#371,.T.);
#281=ORIENTED_EDGE('',*,*,#369,.T.);
#282=ORIENTED_EDGE('',*,*,#365,.F.);
#283=ORIENTED_EDGE('',*,*,#302,.T.);
#284=ORIENTED_EDGE('',*,*,#338,.T.);
#285=ORIENTED_EDGE('',*,*,#316,.T.);
#286=ORIENTED_EDGE('',*,*,#360,.F.);
#287=ORIENTED_EDGE('',*,*,#321,.F.);
#288=EDGE_CURVE('',#391,#392,#457,.T.);
#289=EDGE_CURVE('',#391,#393,#55,.T.);
#290=EDGE_CURVE('',#394,#393,#458,.F.);
#291=EDGE_CURVE('',#392,#394,#56,.T.);
#292=EDGE_CURVE('',#393,#395,#459,.T.);
#293=EDGE_CURVE('',#396,#391,#460,.T.);
#294=EDGE_CURVE('',#396,#395,#57,.T.);
#295=EDGE_CURVE('',#396,#397,#461,.T.);
#296=EDGE_CURVE('',#397,#398,#58,.T.);
#297=EDGE_CURVE('',#398,#395,#462,.F.);
#298=EDGE_CURVE('',#394,#398,#463,.T.);
#299=EDGE_CURVE('',#397,#392,#464,.T.);
#300=EDGE_CURVE('',#399,#400,#465,.T.);
#301=EDGE_CURVE('',#399,#401,#59,.T.);
#302=EDGE_CURVE('',#402,#401,#466,.F.);
#303=EDGE_CURVE('',#400,#402,#60,.T.);
#304=EDGE_CURVE('',#403,#404,#61,.T.);
#305=EDGE_CURVE('',#403,#405,#467,.T.);
#306=EDGE_CURVE('',#406,#405,#23,.T.);
#307=EDGE_CURVE('',#406,#407,#468,.T.);
#308=EDGE_CURVE('',#407,#408,#24,.F.);
#309=EDGE_CURVE('',#408,#409,#25,.T.);
#310=EDGE_CURVE('',#409,#410,#26,.F.);
#311=EDGE_CURVE('',#410,#411,#469,.F.);
#312=EDGE_CURVE('',#412,#411,#27,.T.);
#313=EDGE_CURVE('',#412,#404,#470,.F.);
#314=EDGE_CURVE('',#413,#414,#471,.T.);
#315=EDGE_CURVE('',#413,#415,#62,.F.);
#316=EDGE_CURVE('',#416,#415,#472,.F.);
#317=EDGE_CURVE('',#414,#416,#63,.T.);
#318=EDGE_CURVE('',#417,#418,#64,.T.);
#319=EDGE_CURVE('',#418,#419,#473,.T.);
#320=EDGE_CURVE('',#419,#420,#65,.T.);
#321=EDGE_CURVE('',#420,#417,#474,.T.);
#322=EDGE_CURVE('',#419,#421,#475,.T.);
#323=EDGE_CURVE('',#421,#422,#66,.T.);
#324=EDGE_CURVE('',#422,#420,#476,.F.);
#325=EDGE_CURVE('',#403,#421,#477,.T.);
#326=EDGE_CURVE('',#422,#404,#478,.T.);
#327=EDGE_CURVE('',#423,#424,#479,.T.);
#328=EDGE_CURVE('',#423,#425,#67,.T.);
#329=EDGE_CURVE('',#426,#425,#480,.F.);
#330=EDGE_CURVE('',#426,#427,#68,.T.);
#331=EDGE_CURVE('',#427,#428,#481,.F.);
#332=EDGE_CURVE('',#428,#429,#19,.T.);
#333=EDGE_CURVE('',#429,#430,#28,.T.);
#334=EDGE_CURVE('',#430,#431,#20,.T.);
#335=EDGE_CURVE('',#431,#432,#482,.T.);
#336=EDGE_CURVE('',#432,#424,#69,.T.);
#337=EDGE_CURVE('',#414,#399,#483,.T.);
#338=EDGE_CURVE('',#401,#416,#484,.T.);
#339=EDGE_CURVE('',#433,#434,#485,.T.);
#340=EDGE_CURVE('',#434,#435,#486,.T.);
#341=EDGE_CURVE('',#436,#435,#487,.T.);
#342=EDGE_CURVE('',#436,#433,#488,.T.);
#343=EDGE_CURVE('',#437,#438,#489,.T.);
#344=EDGE_CURVE('',#439,#437,#490,.T.);
#345=EDGE_CURVE('',#440,#439,#491,.T.);
#346=EDGE_CURVE('',#440,#438,#492,.T.);
#347=EDGE_CURVE('',#441,#437,#493,.T.);
#348=EDGE_CURVE('',#441,#442,#70,.F.);
#349=EDGE_CURVE('',#442,#443,#71,.F.);
#350=EDGE_CURVE('',#443,#444,#494,.T.);
#351=EDGE_CURVE('',#444,#445,#72,.F.);
#352=EDGE_CURVE('',#445,#446,#73,.F.);
#353=EDGE_CURVE('',#434,#446,#495,.T.);
#354=EDGE_CURVE('',#439,#433,#496,.T.);
#355=EDGE_CURVE('',#441,#424,#497,.F.);
#356=EDGE_CURVE('',#442,#432,#498,.T.);
#357=EDGE_CURVE('',#426,#446,#499,.F.);
#358=EDGE_CURVE('',#445,#427,#500,.T.);
#359=EDGE_CURVE('',#413,#418,#501,.F.);
#360=EDGE_CURVE('',#417,#415,#502,.F.);
#361=EDGE_CURVE('',#438,#405,#503,.T.);
#362=EDGE_CURVE('',#440,#406,#504,.T.);
#363=EDGE_CURVE('',#412,#435,#505,.T.);
#364=EDGE_CURVE('',#411,#436,#506,.T.);
#365=EDGE_CURVE('',#402,#447,#507,.T.);
#366=EDGE_CURVE('',#448,#447,#74,.T.);
#367=EDGE_CURVE('',#448,#400,#508,.T.);
#368=EDGE_CURVE('',#448,#449,#509,.T.);
#369=EDGE_CURVE('',#450,#447,#510,.F.);
#370=EDGE_CURVE('',#449,#450,#75,.T.);
#371=EDGE_CURVE('',#425,#450,#511,.T.);
#372=EDGE_CURVE('',#449,#423,#512,.T.);
#373=EDGE_CURVE('',#451,#452,#513,.T.);
#374=EDGE_CURVE('',#452,#453,#514,.T.);
#375=EDGE_CURVE('',#453,#454,#515,.F.);
#376=EDGE_CURVE('',#454,#451,#516,.F.);
#377=EDGE_CURVE('',#455,#456,#517,.T.);
#378=EDGE_CURVE('',#456,#455,#29,.T.);
#379=EDGE_CURVE('',#410,#407,#518,.T.);
#380=EDGE_CURVE('',#408,#409,#519,.T.);
#381=EDGE_CURVE('',#454,#456,#21,.T.);
#382=EDGE_CURVE('',#455,#451,#22,.T.);
#383=EDGE_CURVE('',#427,#452,#76,.T.);
#384=EDGE_CURVE('',#428,#451,#77,.T.);
#385=EDGE_CURVE('',#429,#455,#78,.T.);
#386=EDGE_CURVE('',#430,#456,#79,.T.);
#387=EDGE_CURVE('',#431,#454,#80,.T.);
#388=EDGE_CURVE('',#453,#432,#81,.T.);
#389=EDGE_CURVE('',#443,#453,#520,.T.);
#390=EDGE_CURVE('',#444,#452,#521,.T.);
#391=VERTEX_POINT('',#1035);
#392=VERTEX_POINT('',#1036);
#393=VERTEX_POINT('',#1038);
#394=VERTEX_POINT('',#1040);
#395=VERTEX_POINT('',#1044);
#396=VERTEX_POINT('',#1046);
#397=VERTEX_POINT('',#1050);
#398=VERTEX_POINT('',#1052);
#399=VERTEX_POINT('',#1062);
#400=VERTEX_POINT('',#1063);
#401=VERTEX_POINT('',#1065);
#402=VERTEX_POINT('',#1067);
#403=VERTEX_POINT('',#1071);
#404=VERTEX_POINT('',#1072);
#405=VERTEX_POINT('',#1074);
#406=VERTEX_POINT('',#1076);
#407=VERTEX_POINT('',#1078);
#408=VERTEX_POINT('',#1080);
#409=VERTEX_POINT('',#1082);
#410=VERTEX_POINT('',#1084);
#411=VERTEX_POINT('',#1086);
#412=VERTEX_POINT('',#1088);
#413=VERTEX_POINT('',#1092);
#414=VERTEX_POINT('',#1093);
#415=VERTEX_POINT('',#1095);
#416=VERTEX_POINT('',#1097);
#417=VERTEX_POINT('',#1101);
#418=VERTEX_POINT('',#1102);
#419=VERTEX_POINT('',#1104);
#420=VERTEX_POINT('',#1106);
#421=VERTEX_POINT('',#1110);
#422=VERTEX_POINT('',#1112);
#423=VERTEX_POINT('',#1119);
#424=VERTEX_POINT('',#1120);
#425=VERTEX_POINT('',#1122);
#426=VERTEX_POINT('',#1124);
#427=VERTEX_POINT('',#1126);
#428=VERTEX_POINT('',#1128);
#429=VERTEX_POINT('',#1133);
#430=VERTEX_POINT('',#1135);
#431=VERTEX_POINT('',#1140);
#432=VERTEX_POINT('',#1142);
#433=VERTEX_POINT('',#1149);
#434=VERTEX_POINT('',#1150);
#435=VERTEX_POINT('',#1152);
#436=VERTEX_POINT('',#1154);
#437=VERTEX_POINT('',#1158);
#438=VERTEX_POINT('',#1159);
#439=VERTEX_POINT('',#1161);
#440=VERTEX_POINT('',#1163);
#441=VERTEX_POINT('',#1167);
#442=VERTEX_POINT('',#1169);
#443=VERTEX_POINT('',#1171);
#444=VERTEX_POINT('',#1173);
#445=VERTEX_POINT('',#1175);
#446=VERTEX_POINT('',#1177);
#447=VERTEX_POINT('',#1197);
#448=VERTEX_POINT('',#1199);
#449=VERTEX_POINT('',#1203);
#450=VERTEX_POINT('',#1205);
#451=VERTEX_POINT('',#1212);
#452=VERTEX_POINT('',#1213);
#453=VERTEX_POINT('',#1215);
#454=VERTEX_POINT('',#1217);
#455=VERTEX_POINT('',#1221);
#456=VERTEX_POINT('',#1222);
#457=LINE('',#1034,#522);
#458=LINE('',#1039,#523);
#459=LINE('',#1043,#524);
#460=LINE('',#1045,#525);
#461=LINE('',#1049,#526);
#462=LINE('',#1053,#527);
#463=LINE('',#1055,#528);
#464=LINE('',#1056,#529);
#465=LINE('',#1061,#530);
#466=LINE('',#1066,#531);
#467=LINE('',#1073,#532);
#468=LINE('',#1077,#533);
#469=LINE('',#1085,#534);
#470=LINE('',#1089,#535);
#471=LINE('',#1091,#536);
#472=LINE('',#1096,#537);
#473=LINE('',#1103,#538);
#474=LINE('',#1107,#539);
#475=LINE('',#1109,#540);
#476=LINE('',#1113,#541);
#477=LINE('',#1115,#542);
#478=LINE('',#1116,#543);
#479=LINE('',#1118,#544);
#480=LINE('',#1123,#545);
#481=LINE('',#1127,#546);
#482=LINE('',#1141,#547);
#483=LINE('',#1145,#548);
#484=LINE('',#1146,#549);
#485=LINE('',#1148,#550);
#486=LINE('',#1151,#551);
#487=LINE('',#1153,#552);
#488=LINE('',#1155,#553);
#489=LINE('',#1157,#554);
#490=LINE('',#1160,#555);
#491=LINE('',#1162,#556);
#492=LINE('',#1164,#557);
#493=LINE('',#1166,#558);
#494=LINE('',#1172,#559);
#495=LINE('',#1178,#560);
#496=LINE('',#1179,#561);
#497=LINE('',#1181,#562);
#498=LINE('',#1182,#563);
#499=LINE('',#1184,#564);
#500=LINE('',#1185,#565);
#501=LINE('',#1187,#566);
#502=LINE('',#1188,#567);
#503=LINE('',#1190,#568);
#504=LINE('',#1191,#569);
#505=LINE('',#1193,#570);
#506=LINE('',#1194,#571);
#507=LINE('',#1196,#572);
#508=LINE('',#1200,#573);
#509=LINE('',#1202,#574);
#510=LINE('',#1204,#575);
#511=LINE('',#1208,#576);
#512=LINE('',#1209,#577);
#513=LINE('',#1211,#578);
#514=LINE('',#1214,#579);
#515=LINE('',#1216,#580);
#516=LINE('',#1218,#581);
#517=LINE('',#1220,#582);
#518=LINE('',#1225,#583);
#519=LINE('',#1227,#584);
#520=LINE('',#1291,#585);
#521=LINE('',#1293,#586);
#522=VECTOR('',#823,1.);
#523=VECTOR('',#826,1.);
#524=VECTOR('',#831,1.);
#525=VECTOR('',#832,1.);
#526=VECTOR('',#837,1.);
#527=VECTOR('',#840,1.);
#528=VECTOR('',#843,1.);
#529=VECTOR('',#844,1.);
#530=VECTOR('',#853,1.);
#531=VECTOR('',#856,1.);
#532=VECTOR('',#863,1.);
#533=VECTOR('',#866,1.);
#534=VECTOR('',#873,1.);
#535=VECTOR('',#876,1.);
#536=VECTOR('',#879,1.);
#537=VECTOR('',#882,1.);
#538=VECTOR('',#889,1.);
#539=VECTOR('',#892,1.);
#540=VECTOR('',#895,1.);
#541=VECTOR('',#898,1.);
#542=VECTOR('',#901,1.);
#543=VECTOR('',#902,1.);
#544=VECTOR('',#905,1.);
#545=VECTOR('',#908,1.);
#546=VECTOR('',#911,1.);
#547=VECTOR('',#914,1.);
#548=VECTOR('',#919,1.);
#549=VECTOR('',#920,1.);
#550=VECTOR('',#923,1.);
#551=VECTOR('',#924,1.);
#552=VECTOR('',#925,1.);
#553=VECTOR('',#926,1.);
#554=VECTOR('',#929,1.);
#555=VECTOR('',#930,1.);
#556=VECTOR('',#931,1.);
#557=VECTOR('',#932,1.);
#558=VECTOR('',#935,1.);
#559=VECTOR('',#940,1.);
#560=VECTOR('',#945,1.);
#561=VECTOR('',#946,1.);
#562=VECTOR('',#949,1.);
#563=VECTOR('',#950,1.);
#564=VECTOR('',#953,1.);
#565=VECTOR('',#954,1.);
#566=VECTOR('',#957,1.);
#567=VECTOR('',#958,1.);
#568=VECTOR('',#961,1.);
#569=VECTOR('',#962,1.);
#570=VECTOR('',#965,1.);
#571=VECTOR('',#966,1.);
#572=VECTOR('',#969,1.);
#573=VECTOR('',#972,1.);
#574=VECTOR('',#975,1.);
#575=VECTOR('',#976,1.);
#576=VECTOR('',#981,1.);
#577=VECTOR('',#982,1.);
#578=VECTOR('',#985,1.);
#579=VECTOR('',#986,1.);
#580=VECTOR('',#987,1.);
#581=VECTOR('',#988,1.);
#582=VECTOR('',#991,1.);
#583=VECTOR('',#996,1.);
#584=VECTOR('',#999,1.);
#585=VECTOR('',#1020,1.);
#586=VECTOR('',#1023,1.);
#587=EDGE_LOOP('',(#82,#83,#84,#85));
#588=EDGE_LOOP('',(#86,#87,#88,#89));
#589=EDGE_LOOP('',(#90,#91,#92,#93));
#590=EDGE_LOOP('',(#94,#95,#96,#97));
#591=EDGE_LOOP('',(#98,#99,#100,#101));
#592=EDGE_LOOP('',(#102,#103,#104,#105));
#593=EDGE_LOOP('',(#106,#107,#108,#109));
#594=EDGE_LOOP('',(#110,#111,#112,#113,#114,#115,#116,#117,#118,#119));
#595=EDGE_LOOP('',(#120,#121,#122,#123));
#596=EDGE_LOOP('',(#124,#125,#126,#127));
#597=EDGE_LOOP('',(#128,#129,#130,#131));
#598=EDGE_LOOP('',(#132,#133,#134,#135));
#599=EDGE_LOOP('',(#136,#137,#138,#139,#140,#141,#142,#143,#144,#145));
#600=EDGE_LOOP('',(#146,#147,#148,#149));
#601=EDGE_LOOP('',(#150,#151,#152,#153));
#602=EDGE_LOOP('',(#154,#155,#156,#157));
#603=EDGE_LOOP('',(#158,#159,#160,#161,#162,#163,#164,#165,#166,#167));
#604=EDGE_LOOP('',(#168,#169,#170,#171));
#605=EDGE_LOOP('',(#172,#173,#174,#175));
#606=EDGE_LOOP('',(#176,#177,#178,#179));
#607=EDGE_LOOP('',(#180,#181,#182,#183));
#608=EDGE_LOOP('',(#184,#185,#186,#187));
#609=EDGE_LOOP('',(#188,#189,#190,#191));
#610=EDGE_LOOP('',(#192,#193,#194,#195));
#611=EDGE_LOOP('',(#196,#197,#198,#199));
#612=EDGE_LOOP('',(#200,#201,#202,#203));
#613=EDGE_LOOP('',(#204,#205));
#614=EDGE_LOOP('',(#206,#207,#208,#209,#210,#211,#212,#213));
#615=EDGE_LOOP('',(#214,#215));
#616=EDGE_LOOP('',(#216,#217,#218,#219));
#617=EDGE_LOOP('',(#220,#221,#222,#223));
#618=EDGE_LOOP('',(#224,#225,#226,#227));
#619=EDGE_LOOP('',(#228,#229,#230,#231));
#620=EDGE_LOOP('',(#232,#233,#234,#235));
#621=EDGE_LOOP('',(#236,#237,#238,#239));
#622=EDGE_LOOP('',(#240,#241,#242,#243));
#623=EDGE_LOOP('',(#244,#245,#246,#247));
#624=EDGE_LOOP('',(#248,#249,#250,#251));
#625=EDGE_LOOP('',(#252,#253,#254,#255));
#626=EDGE_LOOP('',(#256,#257,#258,#259,#260,#261,#262,#263,#264,#265,#266,
#267,#268,#269,#270,#271));
#627=EDGE_LOOP('',(#272,#273,#274,#275,#276,#277,#278,#279,#280,#281,#282,
#283,#284,#285,#286,#287));
#628=FACE_BOUND('',#587,.T.);
#629=FACE_BOUND('',#588,.T.);
#630=FACE_BOUND('',#589,.T.);
#631=FACE_BOUND('',#590,.T.);
#632=FACE_BOUND('',#591,.T.);
#633=FACE_BOUND('',#592,.T.);
#634=FACE_BOUND('',#593,.T.);
#635=FACE_BOUND('',#594,.T.);
#636=FACE_BOUND('',#595,.T.);
#637=FACE_BOUND('',#596,.T.);
#638=FACE_BOUND('',#597,.T.);
#639=FACE_BOUND('',#598,.T.);
#640=FACE_BOUND('',#599,.T.);
#641=FACE_BOUND('',#600,.T.);
#642=FACE_BOUND('',#601,.T.);
#643=FACE_BOUND('',#602,.T.);
#644=FACE_BOUND('',#603,.T.);
#645=FACE_BOUND('',#604,.T.);
#646=FACE_BOUND('',#605,.T.);
#647=FACE_BOUND('',#606,.T.);
#648=FACE_BOUND('',#607,.T.);
#649=FACE_BOUND('',#608,.T.);
#650=FACE_BOUND('',#609,.T.);
#651=FACE_BOUND('',#610,.T.);
#652=FACE_BOUND('',#611,.T.);
#653=FACE_BOUND('',#612,.T.);
#654=FACE_BOUND('',#613,.T.);
#655=FACE_BOUND('',#614,.T.);
#656=FACE_BOUND('',#615,.T.);
#657=FACE_BOUND('',#616,.T.);
#658=FACE_BOUND('',#617,.T.);
#659=FACE_BOUND('',#618,.T.);
#660=FACE_BOUND('',#619,.T.);
#661=FACE_BOUND('',#620,.T.);
#662=FACE_BOUND('',#621,.T.);
#663=FACE_BOUND('',#622,.T.);
#664=FACE_BOUND('',#623,.T.);
#665=FACE_BOUND('',#624,.T.);
#666=FACE_BOUND('',#625,.T.);
#667=FACE_BOUND('',#626,.T.);
#668=FACE_BOUND('',#627,.T.);
#669=CYLINDRICAL_SURFACE('',#746,0.008);
#670=CYLINDRICAL_SURFACE('',#751,0.0075);
#671=CYLINDRICAL_SURFACE('',#757,0.008);
#672=CYLINDRICAL_SURFACE('',#760,0.0055);
#673=CYLINDRICAL_SURFACE('',#767,0.007);
#674=CYLINDRICAL_SURFACE('',#773,0.005);
#675=CYLINDRICAL_SURFACE('',#776,0.008);
#676=CYLINDRICAL_SURFACE('',#796,0.0075);
#677=CYLINDRICAL_SURFACE('',#804,0.002);
#678=CYLINDRICAL_SURFACE('',#805,0.0015);
#679=CYLINDRICAL_SURFACE('',#811,0.0015);
#680=ADVANCED_FACE('',(#628),#669,.T.);
#681=ADVANCED_FACE('',(#629),#34,.F.);
#682=ADVANCED_FACE('',(#630),#670,.F.);
#683=ADVANCED_FACE('',(#631),#35,.T.);
#684=ADVANCED_FACE('',(#632),#36,.T.);
#685=ADVANCED_FACE('',(#633),#37,.T.);
#686=ADVANCED_FACE('',(#634),#671,.T.);
#687=ADVANCED_FACE('',(#635),#672,.F.);
#688=ADVANCED_FACE('',(#636),#673,.T.);
#689=ADVANCED_FACE('',(#637),#38,.T.);
#690=ADVANCED_FACE('',(#638),#674,.F.);
#691=ADVANCED_FACE('',(#639),#39,.F.);
#692=ADVANCED_FACE('',(#640),#675,.T.);
#693=ADVANCED_FACE('',(#641),#13,.T.);
#694=ADVANCED_FACE('',(#642),#40,.T.);
#695=ADVANCED_FACE('',(#643),#41,.F.);
#696=ADVANCED_FACE('',(#644),#42,.F.);
#697=ADVANCED_FACE('',(#645),#14,.T.);
#698=ADVANCED_FACE('',(#646),#15,.T.);
#699=ADVANCED_FACE('',(#647),#16,.T.);
#700=ADVANCED_FACE('',(#648),#43,.F.);
#701=ADVANCED_FACE('',(#649),#44,.F.);
#702=ADVANCED_FACE('',(#650),#45,.T.);
#703=ADVANCED_FACE('',(#651),#676,.T.);
#704=ADVANCED_FACE('',(#652),#46,.F.);
#705=ADVANCED_FACE('',(#653),#47,.F.);
#706=ADVANCED_FACE('',(#654),#48,.T.);
#707=ADVANCED_FACE('',(#655),#49,.T.);
#708=ADVANCED_FACE('',(#656),#50,.F.);
#709=ADVANCED_FACE('',(#657),#677,.F.);
#710=ADVANCED_FACE('',(#658),#678,.T.);
#711=ADVANCED_FACE('',(#659),#10,.T.);
#712=ADVANCED_FACE('',(#660),#11,.T.);
#713=ADVANCED_FACE('',(#661),#12,.T.);
#714=ADVANCED_FACE('',(#662),#679,.T.);
#715=ADVANCED_FACE('',(#663),#17,.T.);
#716=ADVANCED_FACE('',(#664),#51,.F.);
#717=ADVANCED_FACE('',(#665),#18,.T.);
#718=ADVANCED_FACE('',(#666),#52,.T.);
#719=ADVANCED_FACE('',(#667),#53,.T.);
#720=ADVANCED_FACE('',(#668),#54,.T.);
#721=CLOSED_SHELL('',(#680,#681,#682,#683,#684,#685));
#722=CLOSED_SHELL('',(#686,#687,#688,#689,#690,#691,#692,#693,#694,#695,
#696,#697,#698,#699,#700,#701,#702,#703,#704,#705,#706,#707,#708,#709,#710,
#711,#712,#713,#714,#715,#716,#717,#718,#719,#720));
#723=STYLED_ITEM('',(#725),#739);
#724=STYLED_ITEM('',(#726),#740);
#725=PRESENTATION_STYLE_ASSIGNMENT((#727));
#726=PRESENTATION_STYLE_ASSIGNMENT((#728));
#727=SURFACE_STYLE_USAGE(.BOTH.,#729);
#728=SURFACE_STYLE_USAGE(.BOTH.,#730);
#729=SURFACE_SIDE_STYLE('',(#731));
#730=SURFACE_SIDE_STYLE('',(#732));
#731=SURFACE_STYLE_FILL_AREA(#733);
#732=SURFACE_STYLE_FILL_AREA(#734);
#733=FILL_AREA_STYLE('',(#735));
#734=FILL_AREA_STYLE('',(#736));
#735=FILL_AREA_STYLE_COLOUR('',#737);
#736=FILL_AREA_STYLE_COLOUR('',#738);
#737=COLOUR_RGB('',0.647058823529412,0.647058823529412,0.647058823529412);
#738=COLOUR_RGB('',0.615686274509804,0.811764705882353,0.929411764705882);
#739=MANIFOLD_SOLID_BREP('Part 4',#721);
#740=MANIFOLD_SOLID_BREP('Part 1',#722);
#741=SHAPE_DEFINITION_REPRESENTATION(#1310,#743);
#742=SHAPE_DEFINITION_REPRESENTATION(#1311,#744);
#743=SHAPE_REPRESENTATION('Part 4',(#745),#1300);
#744=SHAPE_REPRESENTATION('Part 1',(#756),#1301);
#745=AXIS2_PLACEMENT_3D('',#1032,#819,#820);
#746=AXIS2_PLACEMENT_3D('',#1033,#821,#822);
#747=AXIS2_PLACEMENT_3D('',#1037,#824,#825);
#748=AXIS2_PLACEMENT_3D('',#1041,#827,#828);
#749=AXIS2_PLACEMENT_3D('',#1042,#829,#830);
#750=AXIS2_PLACEMENT_3D('',#1047,#833,#834);
#751=AXIS2_PLACEMENT_3D('',#1048,#835,#836);
#752=AXIS2_PLACEMENT_3D('',#1051,#838,#839);
#753=AXIS2_PLACEMENT_3D('',#1054,#841,#842);
#754=AXIS2_PLACEMENT_3D('',#1057,#845,#846);
#755=AXIS2_PLACEMENT_3D('',#1058,#847,#848);
#756=AXIS2_PLACEMENT_3D('',#1059,#849,#850);
#757=AXIS2_PLACEMENT_3D('',#1060,#851,#852);
#758=AXIS2_PLACEMENT_3D('',#1064,#854,#855);
#759=AXIS2_PLACEMENT_3D('',#1068,#857,#858);
#760=AXIS2_PLACEMENT_3D('',#1069,#859,#860);
#761=AXIS2_PLACEMENT_3D('',#1070,#861,#862);
#762=AXIS2_PLACEMENT_3D('',#1075,#864,#865);
#763=AXIS2_PLACEMENT_3D('',#1079,#867,#868);
#764=AXIS2_PLACEMENT_3D('',#1081,#869,#870);
#765=AXIS2_PLACEMENT_3D('',#1083,#871,#872);
#766=AXIS2_PLACEMENT_3D('',#1087,#874,#875);
#767=AXIS2_PLACEMENT_3D('',#1090,#877,#878);
#768=AXIS2_PLACEMENT_3D('',#1094,#880,#881);
#769=AXIS2_PLACEMENT_3D('',#1098,#883,#884);
#770=AXIS2_PLACEMENT_3D('',#1099,#885,#886);
#771=AXIS2_PLACEMENT_3D('',#1100,#887,#888);
#772=AXIS2_PLACEMENT_3D('',#1105,#890,#891);
#773=AXIS2_PLACEMENT_3D('',#1108,#893,#894);
#774=AXIS2_PLACEMENT_3D('',#1111,#896,#897);
#775=AXIS2_PLACEMENT_3D('',#1114,#899,#900);
#776=AXIS2_PLACEMENT_3D('',#1117,#903,#904);
#777=AXIS2_PLACEMENT_3D('',#1121,#906,#907);
#778=AXIS2_PLACEMENT_3D('',#1125,#909,#910);
#779=AXIS2_PLACEMENT_3D('',#1134,#912,#913);
#780=AXIS2_PLACEMENT_3D('',#1143,#915,#916);
#781=AXIS2_PLACEMENT_3D('',#1144,#917,#918);
#782=AXIS2_PLACEMENT_3D('',#1147,#921,#922);
#783=AXIS2_PLACEMENT_3D('',#1156,#927,#928);
#784=AXIS2_PLACEMENT_3D('',#1165,#933,#934);
#785=AXIS2_PLACEMENT_3D('',#1168,#936,#937);
#786=AXIS2_PLACEMENT_3D('',#1170,#938,#939);
#787=AXIS2_PLACEMENT_3D('',#1174,#941,#942);
#788=AXIS2_PLACEMENT_3D('',#1176,#943,#944);
#789=AXIS2_PLACEMENT_3D('',#1180,#947,#948);
#790=AXIS2_PLACEMENT_3D('',#1183,#951,#952);
#791=AXIS2_PLACEMENT_3D('',#1186,#955,#956);
#792=AXIS2_PLACEMENT_3D('',#1189,#959,#960);
#793=AXIS2_PLACEMENT_3D('',#1192,#963,#964);
#794=AXIS2_PLACEMENT_3D('',#1195,#967,#968);
#795=AXIS2_PLACEMENT_3D('',#1198,#970,#971);
#796=AXIS2_PLACEMENT_3D('',#1201,#973,#974);
#797=AXIS2_PLACEMENT_3D('',#1206,#977,#978);
#798=AXIS2_PLACEMENT_3D('',#1207,#979,#980);
#799=AXIS2_PLACEMENT_3D('',#1210,#983,#984);
#800=AXIS2_PLACEMENT_3D('',#1219,#989,#990);
#801=AXIS2_PLACEMENT_3D('',#1223,#992,#993);
#802=AXIS2_PLACEMENT_3D('',#1224,#994,#995);
#803=AXIS2_PLACEMENT_3D('',#1226,#997,#998);
#804=AXIS2_PLACEMENT_3D('',#1228,#1000,#1001);
#805=AXIS2_PLACEMENT_3D('',#1237,#1002,#1003);
#806=AXIS2_PLACEMENT_3D('',#1238,#1004,#1005);
#807=AXIS2_PLACEMENT_3D('',#1239,#1006,#1007);
#808=AXIS2_PLACEMENT_3D('',#1252,#1008,#1009);
#809=AXIS2_PLACEMENT_3D('',#1274,#1010,#1011);
#810=AXIS2_PLACEMENT_3D('',#1287,#1012,#1013);
#811=AXIS2_PLACEMENT_3D('',#1288,#1014,#1015);
#812=AXIS2_PLACEMENT_3D('',#1289,#1016,#1017);
#813=AXIS2_PLACEMENT_3D('',#1290,#1018,#1019);
#814=AXIS2_PLACEMENT_3D('',#1292,#1021,#1022);
#815=AXIS2_PLACEMENT_3D('',#1294,#1024,#1025);
#816=AXIS2_PLACEMENT_3D('',#1295,#1026,#1027);
#817=AXIS2_PLACEMENT_3D('',#1296,#1028,#1029);
#818=AXIS2_PLACEMENT_3D('',#1297,#1030,#1031);
#819=DIRECTION('',(0.,0.,1.));
#820=DIRECTION('',(1.,0.,0.));
#821=DIRECTION('',(0.,-1.,0.));
#822=DIRECTION('',(0.,0.,-1.));
#823=DIRECTION('',(0.,-1.,0.));
#824=DIRECTION('',(0.,-1.,0.));
#825=DIRECTION('',(0.,0.,-1.));
#826=DIRECTION('',(0.,-1.,0.));
#827=DIRECTION('',(0.,-1.,0.));
#828=DIRECTION('',(0.,0.,-1.));
#829=DIRECTION('',(0.,-1.,0.));
#830=DIRECTION('',(0.,0.,-1.));
#831=DIRECTION('',(-1.,0.,0.));
#832=DIRECTION('',(-1.,0.,0.));
#833=DIRECTION('',(0.,-1.,0.));
#834=DIRECTION('',(0.,0.,-1.));
#835=DIRECTION('',(0.,-1.,0.));
#836=DIRECTION('',(0.,0.,-1.));
#837=DIRECTION('',(0.,-1.,0.));
#838=DIRECTION('',(0.,-1.,0.));
#839=DIRECTION('',(0.,0.,-1.));
#840=DIRECTION('',(0.,-1.,0.));
#841=DIRECTION('',(0.,-1.,0.));
#842=DIRECTION('',(0.,0.,-1.));
#843=DIRECTION('',(-1.,0.,0.));
#844=DIRECTION('',(-1.,0.,0.));
#845=DIRECTION('',(0.,0.,1.));
#846=DIRECTION('',(1.,0.,0.));
#847=DIRECTION('',(0.,0.,1.));
#848=DIRECTION('',(1.,0.,0.));
#849=DIRECTION('',(0.,0.,1.));
#850=DIRECTION('',(1.,0.,0.));
#851=DIRECTION('',(0.,-1.,0.));
#852=DIRECTION('',(0.,0.,-1.));
#853=DIRECTION('',(0.,-1.,0.));
#854=DIRECTION('',(0.,-1.,0.));
#855=DIRECTION('',(0.,0.,-1.));
#856=DIRECTION('',(0.,-1.,0.));
#857=DIRECTION('',(0.,-1.,0.));
#858=DIRECTION('',(0.,0.,-1.));
#859=DIRECTION('',(0.,-1.,0.));
#860=DIRECTION('',(0.,0.,-1.));
#861=DIRECTION('',(0.,-1.,0.));
#862=DIRECTION('',(0.,0.,-1.));
#863=DIRECTION('',(0.,-1.,0.));
#864=DIRECTION('',(-0.707106781186548,0.707106781186548,0.));
#865=DIRECTION('',(-0.707106781186548,-0.707106781186548,0.));
#866=DIRECTION('',(0.,-1.,0.));
#867=DIRECTION('',(0.,0.707106781186548,0.707106781186548));
#868=DIRECTION('',(0.,-0.707106781186548,0.707106781186548));
#869=DIRECTION('',(0.,-0.64278760968654,-0.766044443118978));
#870=DIRECTION('',(0.,-0.766044443118978,0.64278760968654));
#871=DIRECTION('',(0.,0.707106781186548,0.707106781186548));
#872=DIRECTION('',(0.,-0.707106781186548,0.707106781186548));
#873=DIRECTION('',(0.,-1.,0.));
#874=DIRECTION('',(0.707106781186547,0.707106781186548,0.));
#875=DIRECTION('',(0.707106781186548,-0.707106781186547,0.));
#876=DIRECTION('',(0.,-1.,0.));
#877=DIRECTION('',(0.,-1.,0.));
#878=DIRECTION('',(0.,0.,-1.));
#879=DIRECTION('',(0.,-1.,0.));
#880=DIRECTION('',(0.,1.,0.));
#881=DIRECTION('',(0.,0.,1.));
#882=DIRECTION('',(0.,-1.,0.));
#883=DIRECTION('',(0.,-1.,0.));
#884=DIRECTION('',(0.,0.,-1.));
#885=DIRECTION('',(0.,1.,0.));
#886=DIRECTION('',(0.,0.,1.));
#887=DIRECTION('',(0.,1.,0.));
#888=DIRECTION('',(0.,0.,1.));
#889=DIRECTION('',(1.,0.,0.));
#890=DIRECTION('',(0.,-1.,0.));
#891=DIRECTION('',(0.,0.,-1.));
#892=DIRECTION('',(1.,0.,0.));
#893=DIRECTION('',(0.,-1.,0.));
#894=DIRECTION('',(0.,0.,-1.));
#895=DIRECTION('',(0.,-1.,0.));
#896=DIRECTION('',(0.,-1.,0.));
#897=DIRECTION('',(0.,0.,-1.));
#898=DIRECTION('',(0.,-1.,0.));
#899=DIRECTION('',(0.,1.,0.));
#900=DIRECTION('',(0.,0.,1.));
#901=DIRECTION('',(1.,0.,0.));
#902=DIRECTION('',(1.,0.,0.));
#903=DIRECTION('',(0.,-1.,0.));
#904=DIRECTION('',(0.,0.,-1.));
#905=DIRECTION('',(0.,-1.,0.));
#906=DIRECTION('',(0.,-1.,0.));
#907=DIRECTION('',(0.,0.,-1.));
#908=DIRECTION('',(0.,-1.,0.));
#909=DIRECTION('',(0.,1.,0.));
#910=DIRECTION('',(0.,0.,1.));
#911=DIRECTION('',(0.,-1.,0.));
#912=DIRECTION('',(0.,0.718401836356469,0.69562835014083));
#913=DIRECTION('',(0.,-0.69562835014083,0.718401836356469));
#914=DIRECTION('',(0.,-1.,0.));
#915=DIRECTION('',(0.,1.,0.));
#916=DIRECTION('',(0.,0.,1.));
#917=DIRECTION('',(0.,-1.,0.));
#918=DIRECTION('',(0.,0.,-1.));
#919=DIRECTION('',(-0.707106781186548,-0.707106781186547,0.));
#920=DIRECTION('',(-0.707106781186548,0.707106781186547,0.));
#921=DIRECTION('',(-1.,0.,0.));
#922=DIRECTION('',(0.,0.,1.));
#923=DIRECTION('',(0.,0.,1.));
#924=DIRECTION('',(0.,1.,0.));
#925=DIRECTION('',(0.,0.,1.));
#926=DIRECTION('',(0.,-1.,0.));
#927=DIRECTION('',(-1.,0.,0.));
#928=DIRECTION('',(0.,0.,1.));
#929=DIRECTION('',(0.,1.,0.));
#930=DIRECTION('',(0.,0.,1.));
#931=DIRECTION('',(0.,-1.,0.));
#932=DIRECTION('',(0.,0.,1.));
#933=DIRECTION('',(0.,1.,0.));
#934=DIRECTION('',(0.,0.,1.));
#935=DIRECTION('',(1.,0.,0.));
#936=DIRECTION('',(0.,1.,0.));
#937=DIRECTION('',(0.,0.,1.));
#938=DIRECTION('',(0.,1.,0.));
#939=DIRECTION('',(0.,0.,1.));
#940=DIRECTION('',(1.,0.,0.));
#941=DIRECTION('',(0.,1.,0.));
#942=DIRECTION('',(0.,0.,1.));
#943=DIRECTION('',(0.,1.,0.));
#944=DIRECTION('',(0.,0.,1.));
#945=DIRECTION('',(1.,0.,0.));
#946=DIRECTION('',(1.,0.,0.));
#947=DIRECTION('',(0.,1.,0.));
#948=DIRECTION('',(0.,0.,1.));
#949=DIRECTION('',(0.707106781186546,-0.707106781186549,0.));
#950=DIRECTION('',(-0.652713951864504,0.707106781186549,-0.27196414661021));
#951=DIRECTION('',(0.,1.,0.));
#952=DIRECTION('',(0.,0.,1.));
#953=DIRECTION('',(0.707106781186546,0.707106781186549,0.));
#954=DIRECTION('',(0.652713951864504,0.707106781186548,-0.271964146610211));
#955=DIRECTION('',(0.,-1.,0.));
#956=DIRECTION('',(0.,0.,-1.));
#957=DIRECTION('',(-0.707106781186545,-0.707106781186551,0.));
#958=DIRECTION('',(-0.707106781186545,0.707106781186551,0.));
#959=DIRECTION('',(-0.707106781186548,0.707106781186548,0.));
#960=DIRECTION('',(-0.707106781186548,-0.707106781186548,0.));
#961=DIRECTION('',(0.707106781186548,0.707106781186548,0.));
#962=DIRECTION('',(0.707106781186548,0.707106781186548,0.));
#963=DIRECTION('',(0.707106781186547,0.707106781186548,0.));
#964=DIRECTION('',(-0.707106781186548,0.707106781186547,0.));
#965=DIRECTION('',(0.707106781186548,-0.707106781186547,0.));
#966=DIRECTION('',(0.707106781186548,-0.707106781186547,0.));
#967=DIRECTION('',(0.,-1.,0.));
#968=DIRECTION('',(0.,0.,-1.));
#969=DIRECTION('',(-1.,0.,0.));
#970=DIRECTION('',(0.,-1.,0.));
#971=DIRECTION('',(0.,0.,-1.));
#972=DIRECTION('',(-1.,0.,0.));
#973=DIRECTION('',(0.,-1.,0.));
#974=DIRECTION('',(0.,0.,-1.));
#975=DIRECTION('',(0.,-1.,0.));
#976=DIRECTION('',(0.,-1.,0.));
#977=DIRECTION('',(0.,-1.,0.));
#978=DIRECTION('',(0.,0.,-1.));
#979=DIRECTION('',(0.,-1.,0.));
#980=DIRECTION('',(0.,0.,-1.));
#981=DIRECTION('',(-1.,0.,0.));
#982=DIRECTION('',(-1.,0.,0.));
#983=DIRECTION('',(0.,0.,1.));
#984=DIRECTION('',(1.,0.,0.));
#985=DIRECTION('',(0.,-1.,0.));
#986=DIRECTION('',(-1.,0.,0.));
#987=DIRECTION('',(0.,-1.,0.));
#988=DIRECTION('',(-1.,0.,0.));
#989=DIRECTION('',(0.,-0.64278760968654,-0.766044443118978));
#990=DIRECTION('',(1.,0.,0.));
#991=DIRECTION('',(-1.,0.,0.));
#992=DIRECTION('',(0.,-0.64278760968654,-0.766044443118978));
#993=DIRECTION('',(0.,-0.766044443118978,0.64278760968654));
#994=DIRECTION('',(0.,0.,1.));
#995=DIRECTION('',(1.,0.,0.));
#996=DIRECTION('',(-1.,0.,0.));
#997=DIRECTION('',(0.,-0.64278760968654,-0.766044443118978));
#998=DIRECTION('',(1.,0.,0.));
#999=DIRECTION('',(1.,0.,0.));
#1000=DIRECTION('',(-1.,0.,0.));
#1001=DIRECTION('',(0.,0.,1.));
#1002=DIRECTION('',(0.,-1.,0.));
#1003=DIRECTION('',(0.,0.,-1.));
#1004=DIRECTION('',(0.,1.,0.));
#1005=DIRECTION('',(0.,0.,1.));
#1006=DIRECTION('',(0.,1.,0.));
#1007=DIRECTION('',(0.,0.,1.));
#1008=DIRECTION('',(-0.356612074701476,0.715678974805411,-0.600525963800555));
#1009=DIRECTION('',(0.,0.64278760968654,0.766044443118978));
#1010=DIRECTION('',(-0.356612074701476,-0.715678974805411,0.600525963800555));
#1011=DIRECTION('',(0.,-0.64278760968654,-0.766044443118978));
#1012=DIRECTION('',(0.,-1.,0.));
#1013=DIRECTION('',(0.,0.,-1.));
#1014=DIRECTION('',(0.,-1.,0.));
#1015=DIRECTION('',(0.,0.,-1.));
#1016=DIRECTION('',(0.,1.,0.));
#1017=DIRECTION('',(0.,0.,1.));
#1018=DIRECTION('',(0.,1.,0.));
#1019=DIRECTION('',(0.,0.,1.));
#1020=DIRECTION('',(0.,0.707106781186548,-0.707106781186547));
#1021=DIRECTION('',(0.,0.707106781186547,0.707106781186548));
#1022=DIRECTION('',(1.,0.,0.));
#1023=DIRECTION('',(0.,0.707106781186548,-0.707106781186547));
#1024=DIRECTION('',(0.,1.,0.));
#1025=DIRECTION('',(0.,0.,1.));
#1026=DIRECTION('',(0.,0.707106781186548,0.707106781186548));
#1027=DIRECTION('',(-1.,0.,0.));
#1028=DIRECTION('',(0.,0.,1.));
#1029=DIRECTION('',(1.,0.,0.));
#1030=DIRECTION('',(0.,0.,1.));
#1031=DIRECTION('',(1.,0.,0.));
#1032=CARTESIAN_POINT('',(0.,0.,0.));
#1033=CARTESIAN_POINT('',(0.,0.016211150214076,0.));
#1034=CARTESIAN_POINT('',(-0.008,0.016211150214076,0.));
#1035=CARTESIAN_POINT('',(-0.008,0.02,0.));
#1036=CARTESIAN_POINT('',(-0.008,0.018,0.));
#1037=CARTESIAN_POINT('',(0.,0.02,0.));
#1038=CARTESIAN_POINT('',(0.008,0.02,0.));
#1039=CARTESIAN_POINT('',(0.008,0.016211150214076,0.));
#1040=CARTESIAN_POINT('',(0.008,0.018,0.));
#1041=CARTESIAN_POINT('',(0.,0.018,0.));
#1042=CARTESIAN_POINT('',(0.00775,0.02,0.));
#1043=CARTESIAN_POINT('',(0.00775,0.02,0.));
#1044=CARTESIAN_POINT('',(0.0075,0.02,0.));
#1045=CARTESIAN_POINT('',(0.00775,0.02,0.));
#1046=CARTESIAN_POINT('',(-0.0075,0.02,0.));
#1047=CARTESIAN_POINT('',(0.,0.02,0.));
#1048=CARTESIAN_POINT('',(0.,0.016211150214076,0.));
#1049=CARTESIAN_POINT('',(-0.0075,0.016211150214076,0.));
#1050=CARTESIAN_POINT('',(-0.0075,0.018,0.));
#1051=CARTESIAN_POINT('',(0.,0.018,0.));
#1052=CARTESIAN_POINT('',(0.0075,0.018,0.));
#1053=CARTESIAN_POINT('',(0.0075,0.016211150214076,0.));
#1054=CARTESIAN_POINT('',(0.00775,0.018,0.));
#1055=CARTESIAN_POINT('',(0.00775,0.018,0.));
#1056=CARTESIAN_POINT('',(0.00775,0.018,0.));
#1057=CARTESIAN_POINT('',(0.,0.,0.));
#1058=CARTESIAN_POINT('',(0.,0.,0.));
#1059=CARTESIAN_POINT('',(0.,0.,0.));
#1060=CARTESIAN_POINT('',(0.,0.015,0.));
#1061=CARTESIAN_POINT('',(-0.008,0.015,0.));
#1062=CARTESIAN_POINT('',(-0.008,0.024,0.));
#1063=CARTESIAN_POINT('',(-0.008,0.02,0.));
#1064=CARTESIAN_POINT('',(0.,0.024,0.));
#1065=CARTESIAN_POINT('',(0.008,0.024,0.));
#1066=CARTESIAN_POINT('',(0.008,0.015,0.));
#1067=CARTESIAN_POINT('',(0.008,0.02,0.));
#1068=CARTESIAN_POINT('',(0.,0.02,0.));
#1069=CARTESIAN_POINT('',(0.,0.015,0.));
#1070=CARTESIAN_POINT('',(0.,0.027,0.));
#1071=CARTESIAN_POINT('',(-0.0055,0.027,0.));
#1072=CARTESIAN_POINT('',(0.0055,0.027,0.));
#1073=CARTESIAN_POINT('',(-0.0055,0.015,0.));
#1074=CARTESIAN_POINT('',(-0.0055,0.0115,0.));
#1075=CARTESIAN_POINT('',(0.,0.017,0.));
#1076=CARTESIAN_POINT('',(-0.0051234753829798,0.0118765246170202,-0.002));
#1077=CARTESIAN_POINT('',(-0.0051234753829798,0.015,-0.002));
#1078=CARTESIAN_POINT('',(-0.0051234753829798,0.01015,-0.002));
#1079=CARTESIAN_POINT('',(0.,0.00815,0.));
#1080=CARTESIAN_POINT('',(-0.00488723973289886,0.0106728729244999,-0.00252287292449991));
#1081=CARTESIAN_POINT('',(0.,0.00766623005306849,0.));
#1082=CARTESIAN_POINT('',(0.00488723973289886,0.0106728729244999,-0.00252287292449991));
#1083=CARTESIAN_POINT('',(0.,0.00815,0.));
#1084=CARTESIAN_POINT('',(0.0051234753829798,0.01015,-0.002));
#1085=CARTESIAN_POINT('',(0.0051234753829798,0.015,-0.002));
#1086=CARTESIAN_POINT('',(0.0051234753829798,0.0118765246170202,-0.002));
#1087=CARTESIAN_POINT('',(0.,0.017,0.));
#1088=CARTESIAN_POINT('',(0.0055,0.0115,0.));
#1089=CARTESIAN_POINT('',(0.0055,0.015,0.));
#1090=CARTESIAN_POINT('',(0.,0.015,0.));
#1091=CARTESIAN_POINT('',(-0.007,0.015,0.));
#1092=CARTESIAN_POINT('',(-0.007,0.0296,0.));
#1093=CARTESIAN_POINT('',(-0.007,0.025,0.));
#1094=CARTESIAN_POINT('',(0.,0.0296,0.));
#1095=CARTESIAN_POINT('',(0.007,0.0296,0.));
#1096=CARTESIAN_POINT('',(0.007,0.015,0.));
#1097=CARTESIAN_POINT('',(0.007,0.025,0.));
#1098=CARTESIAN_POINT('',(0.,0.025,0.));
#1099=CARTESIAN_POINT('',(0.006,0.03,0.));
#1100=CARTESIAN_POINT('',(0.,0.03,0.));
#1101=CARTESIAN_POINT('',(0.0066,0.03,0.));
#1102=CARTESIAN_POINT('',(-0.0066,0.03,0.));
#1103=CARTESIAN_POINT('',(0.006,0.03,0.));
#1104=CARTESIAN_POINT('',(-0.005,0.03,0.));
#1105=CARTESIAN_POINT('',(0.,0.03,0.));
#1106=CARTESIAN_POINT('',(0.005,0.03,0.));
#1107=CARTESIAN_POINT('',(0.006,0.03,0.));
#1108=CARTESIAN_POINT('',(0.,0.015,0.));
#1109=CARTESIAN_POINT('',(-0.005,0.015,0.));
#1110=CARTESIAN_POINT('',(-0.005,0.027,0.));
#1111=CARTESIAN_POINT('',(0.,0.027,0.));
#1112=CARTESIAN_POINT('',(0.005,0.027,0.));
#1113=CARTESIAN_POINT('',(0.005,0.015,0.));
#1114=CARTESIAN_POINT('',(0.00525,0.027,0.));
#1115=CARTESIAN_POINT('',(0.00525,0.027,0.));
#1116=CARTESIAN_POINT('',(0.00525,0.027,0.));
#1117=CARTESIAN_POINT('',(0.,0.015,0.));
#1118=CARTESIAN_POINT('',(-0.008,0.015,0.));
#1119=CARTESIAN_POINT('',(-0.008,0.018,0.));
#1120=CARTESIAN_POINT('',(-0.008,0.0044,0.));
#1121=CARTESIAN_POINT('',(0.,0.018,0.));
#1122=CARTESIAN_POINT('',(0.008,0.018,0.));
#1123=CARTESIAN_POINT('',(0.008,0.015,0.));
#1124=CARTESIAN_POINT('',(0.008,0.0044,0.));
#1125=CARTESIAN_POINT('',(0.,0.0044,0.));
#1126=CARTESIAN_POINT('',(0.00738461538461538,0.0044,-0.00307692307692308));
#1127=CARTESIAN_POINT('',(0.00738461538461538,0.015,-0.00307692307692308));
#1128=CARTESIAN_POINT('',(0.00738461538461538,0.00859385630119209,-0.00307692307692308));
#1129=CARTESIAN_POINT('',(0.00738461538461538,0.00859385630119209,-0.00307692307692308));
#1130=CARTESIAN_POINT('',(0.00738461538461538,0.00946991308842661,-0.00307692307692308));
#1131=CARTESIAN_POINT('',(0.00722137808990646,0.0102846611649772,-0.00350748089222382));
#1132=CARTESIAN_POINT('',(0.00687858761038977,0.010843612935095,-0.00408473162964133));
#1133=CARTESIAN_POINT('',(0.00687858761038977,0.010843612935095,-0.00408473162964133));
#1134=CARTESIAN_POINT('',(0.,0.00688836813963828,0.));
#1135=CARTESIAN_POINT('',(-0.00687858761038977,0.010843612935095,-0.00408473162964133));
#1136=CARTESIAN_POINT('',(-0.00687858761038977,0.010843612935095,-0.00408473162964133));
#1137=CARTESIAN_POINT('',(-0.00722166618977935,0.0102841913913296,-0.00350699573912298));
#1138=CARTESIAN_POINT('',(-0.00738461538461538,0.00947144820829733,-0.00307692307692308));
#1139=CARTESIAN_POINT('',(-0.00738461538461538,0.00859385630119209,-0.00307692307692308));
#1140=CARTESIAN_POINT('',(-0.00738461538461538,0.00859385630119209,-0.00307692307692308));
#1141=CARTESIAN_POINT('',(-0.00738461538461538,0.015,-0.00307692307692308));
#1142=CARTESIAN_POINT('',(-0.00738461538461538,0.0044,-0.00307692307692308));
#1143=CARTESIAN_POINT('',(0.,0.0044,0.));
#1144=CARTESIAN_POINT('',(0.,0.025,0.));
#1145=CARTESIAN_POINT('',(0.,0.032,0.));
#1146=CARTESIAN_POINT('',(0.,0.032,0.));
#1147=CARTESIAN_POINT('',(0.00625,0.0035,-0.002));
#1148=CARTESIAN_POINT('',(0.00625,0.004,-0.002));
#1149=CARTESIAN_POINT('',(0.00625,0.004,-0.002));
#1150=CARTESIAN_POINT('',(0.00625,0.004,0.));
#1151=CARTESIAN_POINT('',(0.00625,0.0035,0.));
#1152=CARTESIAN_POINT('',(0.00625,0.01075,0.));
#1153=CARTESIAN_POINT('',(0.00625,0.01075,0.));
#1154=CARTESIAN_POINT('',(0.00625,0.01075,-0.002));
#1155=CARTESIAN_POINT('',(0.00625,0.0035,-0.002));
#1156=CARTESIAN_POINT('',(-0.00625,0.0035,-0.002));
#1157=CARTESIAN_POINT('',(-0.00625,0.0035,0.));
#1158=CARTESIAN_POINT('',(-0.00625,0.004,0.));
#1159=CARTESIAN_POINT('',(-0.00625,0.01075,0.));
#1160=CARTESIAN_POINT('',(-0.00625,0.004,-0.002));
#1161=CARTESIAN_POINT('',(-0.00625,0.004,-0.002));
#1162=CARTESIAN_POINT('',(-0.00625,0.0035,-0.002));
#1163=CARTESIAN_POINT('',(-0.00625,0.01075,-0.002));
#1164=CARTESIAN_POINT('',(-0.00625,0.01075,0.));
#1165=CARTESIAN_POINT('',(0.00675,0.004,0.));
#1166=CARTESIAN_POINT('',(0.00675,0.004,0.));
#1167=CARTESIAN_POINT('',(-0.0076,0.004,0.));
#1168=CARTESIAN_POINT('',(0.,0.004,0.));
#1169=CARTESIAN_POINT('',(-0.00701538461538461,0.004,-0.00292307692307692));
#1170=CARTESIAN_POINT('',(-0.006,0.004,-0.0025));
#1171=CARTESIAN_POINT('',(-0.006,0.004,-0.0036));
#1172=CARTESIAN_POINT('',(0.00675,0.004,-0.0036));
#1173=CARTESIAN_POINT('',(0.006,0.004,-0.0036));
#1174=CARTESIAN_POINT('',(0.006,0.004,-0.0025));
#1175=CARTESIAN_POINT('',(0.00701538461538461,0.004,-0.00292307692307692));
#1176=CARTESIAN_POINT('',(0.,0.004,0.));
#1177=CARTESIAN_POINT('',(0.0076,0.004,0.));
#1178=CARTESIAN_POINT('',(0.00675,0.004,0.));
#1179=CARTESIAN_POINT('',(-0.003125,0.004,-0.002));
#1180=CARTESIAN_POINT('',(0.,0.0044,0.));
#1181=CARTESIAN_POINT('',(0.,-0.0036,0.));
#1182=CARTESIAN_POINT('',(-0.00701538461538461,0.004,-0.00292307692307692));
#1183=CARTESIAN_POINT('',(0.,0.0044,0.));
#1184=CARTESIAN_POINT('',(0.,-0.0036,0.));
#1185=CARTESIAN_POINT('',(0.00701538461538461,0.004,-0.00292307692307692));
#1186=CARTESIAN_POINT('',(0.,0.0296,0.));
#1187=CARTESIAN_POINT('',(0.,0.0366,0.));
#1188=CARTESIAN_POINT('',(0.,0.0366,0.));
#1189=CARTESIAN_POINT('',(-0.00561202406330767,0.0113879759366923,0.002002));
#1190=CARTESIAN_POINT('',(-0.00561202406330767,0.0113879759366923,0.));
#1191=CARTESIAN_POINT('',(-0.00561202406330767,0.0113879759366923,-0.002));
#1192=CARTESIAN_POINT('',(0.00561202406330767,0.0113879759366923,0.002002));
#1193=CARTESIAN_POINT('',(0.00561202406330767,0.0113879759366923,0.));
#1194=CARTESIAN_POINT('',(0.00561202406330767,0.0113879759366923,-0.002));
#1195=CARTESIAN_POINT('',(0.00775,0.02,0.));
#1196=CARTESIAN_POINT('',(0.00775,0.02,0.));
#1197=CARTESIAN_POINT('',(0.0075,0.02,0.));
#1198=CARTESIAN_POINT('',(0.,0.02,0.));
#1199=CARTESIAN_POINT('',(-0.0075,0.02,0.));
#1200=CARTESIAN_POINT('',(0.00775,0.02,0.));
#1201=CARTESIAN_POINT('',(0.,0.016211150214076,0.));
#1202=CARTESIAN_POINT('',(-0.0075,0.016211150214076,0.));
#1203=CARTESIAN_POINT('',(-0.0075,0.018,0.));
#1204=CARTESIAN_POINT('',(0.0075,0.016211150214076,0.));
#1205=CARTESIAN_POINT('',(0.0075,0.018,0.));
#1206=CARTESIAN_POINT('',(0.,0.018,0.));
#1207=CARTESIAN_POINT('',(0.00775,0.018,0.));
#1208=CARTESIAN_POINT('',(0.00775,0.018,0.));
#1209=CARTESIAN_POINT('',(0.00775,0.018,0.));
#1210=CARTESIAN_POINT('',(0.,0.005375,-0.004));
#1211=CARTESIAN_POINT('',(0.006,0.005375,-0.004));
#1212=CARTESIAN_POINT('',(0.006,0.00859385630119209,-0.004));
#1213=CARTESIAN_POINT('',(0.006,0.0044,-0.004));
#1214=CARTESIAN_POINT('',(0.,0.0044,-0.004));
#1215=CARTESIAN_POINT('',(-0.006,0.0044,-0.004));
#1216=CARTESIAN_POINT('',(-0.006,0.005375,-0.004));
#1217=CARTESIAN_POINT('',(-0.006,0.00859385630119209,-0.004));
#1218=CARTESIAN_POINT('',(0.,0.00859385630119209,-0.004));
#1219=CARTESIAN_POINT('',(-0.00692820323027551,0.0093217967697245,-0.004));
#1220=CARTESIAN_POINT('',(-0.00692820323027551,0.00987943152056517,-0.00446791111376205));
#1221=CARTESIAN_POINT('',(0.00558885243344169,0.00987943152056517,-0.00446791111376205));
#1222=CARTESIAN_POINT('',(-0.00558885243344169,0.00987943152056517,-0.00446791111376205));
#1223=CARTESIAN_POINT('',(0.,0.00592418672510847,-0.00114906666467847));
#1224=CARTESIAN_POINT('',(0.,0.00525,-0.002));
#1225=CARTESIAN_POINT('',(-0.0051234753829798,0.01015,-0.002));
#1226=CARTESIAN_POINT('',(-0.00692820323027551,0.0106073719890976,-0.00246791111376205));
#1227=CARTESIAN_POINT('',(-0.00692820323027551,0.0106728729244999,-0.00252287292449991));
#1228=CARTESIAN_POINT('',(-0.00692820323027551,0.00859385630119209,-0.006));
#1229=CARTESIAN_POINT('',(-0.006,0.00859385630119209,-0.004));
#1230=CARTESIAN_POINT('',(-0.006,0.00909191382285864,-0.004));
#1231=CARTESIAN_POINT('',(-0.0058649950897928,0.00956275368775628,-0.00420218686105008));
#1232=CARTESIAN_POINT('',(-0.00558885243344169,0.00987943152056517,-0.00446791111376205));
#1233=CARTESIAN_POINT('',(0.00558885243344169,0.00987943152056517,-0.00446791111376205));
#1234=CARTESIAN_POINT('',(0.00586517099095784,0.00956255196593442,-0.00420201759634376));
#1235=CARTESIAN_POINT('',(0.006,0.00909187723093686,-0.004));
#1236=CARTESIAN_POINT('',(0.006,0.00859385630119209,-0.004));
#1237=CARTESIAN_POINT('',(0.006,0.015,-0.0025));
#1238=CARTESIAN_POINT('',(0.006,0.0044,-0.0025));
#1239=CARTESIAN_POINT('',(0.006,0.00859385630119209,-0.0025));
#1240=CARTESIAN_POINT('',(0.006,0.00859385630119209,-0.004));
#1241=CARTESIAN_POINT('',(0.007,0.00859385630119209,-0.004));
#1242=CARTESIAN_POINT('',(0.00738461538461539,0.00859385630119209,-0.00307692307692308));
#1243=CARTESIAN_POINT('',(0.00599999999478615,0.00907239517579148,-0.004));
#1244=CARTESIAN_POINT('',(0.00699999999351534,0.00917209076957978,-0.00400000001014227));
#1245=CARTESIAN_POINT('',(0.00738461537818776,0.00943129933174175,-0.00307692309234939));
#1246=CARTESIAN_POINT('',(0.00588753867163604,0.00953690089628165,-0.00418049379325881));
#1247=CARTESIAN_POINT('',(0.00685309162085332,0.00974484268419522,-0.00425221648130333));
#1248=CARTESIAN_POINT('',(0.00724620146370429,0.0102441843500929,-0.00346567894121809));
#1249=CARTESIAN_POINT('',(0.00558885243344169,0.00987943152056517,-0.00446791111376205));
#1250=CARTESIAN_POINT('',(0.00651596194150238,0.0101505235529621,-0.0046953843381614));
#1251=CARTESIAN_POINT('',(0.00687858761038977,0.010843612935095,-0.00408473162964133));
#1252=CARTESIAN_POINT('',(0.00558885243344169,0.010843612935095,-0.00331884444908358));
#1253=CARTESIAN_POINT('',(-0.00687858761038978,0.010843612935095,-0.00408473162964132));
#1254=CARTESIAN_POINT('',(-0.00651596194150239,0.0101505235529621,-0.0046953843381614));
#1255=CARTESIAN_POINT('',(-0.0055888524334417,0.00987943152056516,-0.00446791111376204));
#1256=CARTESIAN_POINT('',(-0.00617402327845831,0.0119924706310553,-0.00527120063758737));
#1257=CARTESIAN_POINT('',(-0.00580198051412226,0.0113086918116353,-0.00566720289685134));
#1258=CARTESIAN_POINT('',(-0.00501639391374675,0.0110282892165252,-0.00543191718271731));
#1259=CARTESIAN_POINT('',(-0.00413811702783811,0.0139275589756575,-0.00726963991912602));
#1260=CARTESIAN_POINT('',(-0.00387346996327046,0.0133242296432036,-0.00735843994794996));
#1261=CARTESIAN_POINT('',(-0.00336222008511875,0.0129633775611278,-0.00705564909896879));
#1262=CARTESIAN_POINT('',(1.26101052676776E-17,0.0149883702494222,-0.00836518004043695));
#1263=CARTESIAN_POINT('',(4.49268364831192E-16,0.0144600245285162,-0.00831148501730626));
#1264=CARTESIAN_POINT('',(7.89882982739247E-17,0.0140241888348923,-0.00794577544753329));
#1265=CARTESIAN_POINT('',(0.00413811702783801,0.0139275589756575,-0.00726963991912615));
#1266=CARTESIAN_POINT('',(0.0038734699632684,0.0133242296432024,-0.00735843994794837));
#1267=CARTESIAN_POINT('',(0.00336222008511839,0.0129633775611278,-0.0070556490989688));
#1268=CARTESIAN_POINT('',(0.00617402327845848,0.0119924706310554,-0.00527120063758708));
#1269=CARTESIAN_POINT('',(0.00580198051412686,0.0113086918116381,-0.00566720289685514));
#1270=CARTESIAN_POINT('',(0.00501639391374744,0.0110282892165252,-0.00543191718271733));
#1271=CARTESIAN_POINT('',(0.00687858761038977,0.010843612935095,-0.00408473162964133));
#1272=CARTESIAN_POINT('',(0.00651596194150238,0.0101505235529621,-0.00469538433816141));
#1273=CARTESIAN_POINT('',(0.00558885243344169,0.00987943152056518,-0.00446791111376205));
#1274=CARTESIAN_POINT('',(-0.00558885243344169,0.010843612935095,-0.00331884444908358));
#1275=CARTESIAN_POINT('',(-0.00558885243344169,0.00987943152056517,-0.00446791111376205));
#1276=CARTESIAN_POINT('',(-0.00651596194150238,0.0101505235529621,-0.0046953843381614));
#1277=CARTESIAN_POINT('',(-0.00687858761038977,0.010843612935095,-0.00408473162964133));
#1278=CARTESIAN_POINT('',(-0.00588750790454169,0.0095369361725067,-0.00418052339352625));
#1279=CARTESIAN_POINT('',(-0.00685305706963074,0.00974488424890331,-0.00425226189758296));
#1280=CARTESIAN_POINT('',(-0.00724616359898748,0.0102442460784687,-0.00346574270447002));
#1281=CARTESIAN_POINT('',(-0.00599999999843437,0.00907238021064466,-0.004));
#1282=CARTESIAN_POINT('',(-0.00699999999805245,0.00917207268677235,-0.00400000000304912));
#1283=CARTESIAN_POINT('',(-0.00738461538267949,0.00943127314273391,-0.00307692308156923));
#1284=CARTESIAN_POINT('',(-0.006,0.00859385630119209,-0.004));
#1285=CARTESIAN_POINT('',(-0.007,0.00859385630119209,-0.004));
#1286=CARTESIAN_POINT('',(-0.00738461538461539,0.00859385630119209,-0.00307692307692308));
#1287=CARTESIAN_POINT('',(-0.006,0.00859385630119209,-0.0025));
#1288=CARTESIAN_POINT('',(-0.006,0.015,-0.0025));
#1289=CARTESIAN_POINT('',(-0.006,0.0044,-0.0025));
#1290=CARTESIAN_POINT('',(-0.006,0.004,-0.0025));
#1291=CARTESIAN_POINT('',(-0.006,0.004,-0.0036));
#1292=CARTESIAN_POINT('',(0.00675,0.004,-0.0036));
#1293=CARTESIAN_POINT('',(0.006,0.004,-0.0036));
#1294=CARTESIAN_POINT('',(0.006,0.004,-0.0025));
#1295=CARTESIAN_POINT('',(-1.7347234759768E-18,0.01075,-0.0026));
#1296=CARTESIAN_POINT('',(0.,0.,0.));
#1297=CARTESIAN_POINT('',(0.,0.,0.));
#1298=MECHANICAL_DESIGN_GEOMETRIC_PRESENTATION_REPRESENTATION('',(#723),
#1300);
#1299=MECHANICAL_DESIGN_GEOMETRIC_PRESENTATION_REPRESENTATION('',(#724),
#1301);
#1300=(
GEOMETRIC_REPRESENTATION_CONTEXT(3)
GLOBAL_UNCERTAINTY_ASSIGNED_CONTEXT((#1302))
GLOBAL_UNIT_ASSIGNED_CONTEXT((#1308,#1306,#1304))
REPRESENTATION_CONTEXT('Part 4','TOP_LEVEL_ASSEMBLY_PART')
);
#1301=(
GEOMETRIC_REPRESENTATION_CONTEXT(3)
GLOBAL_UNCERTAINTY_ASSIGNED_CONTEXT((#1303))
GLOBAL_UNIT_ASSIGNED_CONTEXT((#1309,#1307,#1305))
REPRESENTATION_CONTEXT('Part 1','TOP_LEVEL_ASSEMBLY_PART')
);
#1302=UNCERTAINTY_MEASURE_WITH_UNIT(LENGTH_MEASURE(1.E-8),#1308,
'DISTANCE_ACCURACY_VALUE','Maximum Tolerance applied to model');
#1303=UNCERTAINTY_MEASURE_WITH_UNIT(LENGTH_MEASURE(2.E-5),#1309,
'DISTANCE_ACCURACY_VALUE','Maximum Tolerance applied to model');
#1304=(
NAMED_UNIT(*)
SI_UNIT($,.STERADIAN.)
SOLID_ANGLE_UNIT()
);
#1305=(
NAMED_UNIT(*)
SI_UNIT($,.STERADIAN.)
SOLID_ANGLE_UNIT()
);
#1306=(
NAMED_UNIT(*)
PLANE_ANGLE_UNIT()
SI_UNIT($,.RADIAN.)
);
#1307=(
NAMED_UNIT(*)
PLANE_ANGLE_UNIT()
SI_UNIT($,.RADIAN.)
);
#1308=(
LENGTH_UNIT()
NAMED_UNIT(*)
SI_UNIT($,.METRE.)
);
#1309=(
LENGTH_UNIT()
NAMED_UNIT(*)
SI_UNIT($,.METRE.)
);
#1310=PRODUCT_DEFINITION_SHAPE('','',#1312);
#1311=PRODUCT_DEFINITION_SHAPE('','',#1313);
#1312=PRODUCT_DEFINITION('','',#1316,#1314);
#1313=PRODUCT_DEFINITION('','',#1317,#1315);
#1314=PRODUCT_DEFINITION_CONTEXT('',#1328,'design');
#1315=PRODUCT_DEFINITION_CONTEXT('',#1329,'design');
#1316=PRODUCT_DEFINITION_FORMATION_WITH_SPECIFIED_SOURCE('','',#1320,
 .NOT_KNOWN.);
#1317=PRODUCT_DEFINITION_FORMATION_WITH_SPECIFIED_SOURCE('','',#1321,
 .NOT_KNOWN.);
#1318=PRODUCT_RELATED_PRODUCT_CATEGORY('','',(#1320));
#1319=PRODUCT_RELATED_PRODUCT_CATEGORY('','',(#1321));
#1320=PRODUCT('Part 4','Part 4','Part 4',(#1324));
#1321=PRODUCT('Part 1','Part 1','Part 1',(#1325));
#1322=PRODUCT_CATEGORY('','');
#1323=PRODUCT_CATEGORY('','');
#1324=PRODUCT_CONTEXT('',#1328,'mechanical');
#1325=PRODUCT_CONTEXT('',#1329,'mechanical');
#1326=APPLICATION_PROTOCOL_DEFINITION('international standard',
'ap242_managed_model_based_3d_engineering',2020,#1328);
#1327=APPLICATION_PROTOCOL_DEFINITION('international standard',
'ap242_managed_model_based_3d_engineering',2020,#1329);
#1328=APPLICATION_CONTEXT('managed model based 3d engineering');
#1329=APPLICATION_CONTEXT('managed model based 3d engineering');
ENDSEC;
END-ISO-10303-21;
